<svg width="76" height="71" viewBox="0 0 76 71" fill="none" xmlns="http://www.w3.org/2000/svg">
<g id="Group 1">
<g id="Group">
<path id="Vector" fill-rule="evenodd" clip-rule="evenodd" d="M57.1858 15.3631C57.0164 15.1653 56.8628 14.9638 56.7265 14.7686C56.3205 14.1786 56.8465 13.7724 56.8879 13.7415C56.9749 13.6769 57.3745 13.4047 57.8081 13.7737C57.8343 13.7954 57.9957 13.9749 58.0566 14.0451C58.1859 14.1952 58.3092 14.3457 58.4077 14.5164C58.6304 14.7626 58.8823 14.9982 59.1607 15.1877C59.5697 15.4689 60.0301 15.6639 60.5207 15.5769C61.3993 15.4235 62.2068 14.7738 62.9559 14.3258C63.2687 14.1386 63.6716 14.2075 63.905 14.4874C64.1366 14.7691 64.1298 15.1773 63.8869 15.4502C63.1551 16.2734 62.7767 17.8154 62.6381 18.9281C62.5954 19.27 62.7362 19.8959 62.7235 20.3767C62.7121 20.7629 62.619 21.0882 62.4637 21.3095C62.4029 21.3957 62.0309 21.8274 61.4775 21.525C61.3234 21.4391 60.6087 20.9173 60.5317 20.8544C60.0855 20.4973 59.631 20.2218 59.0662 20.1011C58.5764 19.9966 58.062 19.9727 57.5769 20.1149C57.3814 20.1722 57.1911 20.2483 56.9997 20.323C56.9401 20.3587 56.7715 20.4586 56.7028 20.4825C56.5633 20.5317 56.4367 20.5373 56.3335 20.525C56.1378 20.5019 55.9801 20.4154 55.8549 20.2746C55.771 20.1827 55.6942 20.0559 55.6639 19.8727C55.6452 19.7404 55.6565 19.5105 55.8007 19.2548C55.9514 18.9876 56.3622 18.5255 56.4297 18.4358C56.8997 17.8133 57.2931 17.1164 57.4214 16.3393C57.4846 15.9515 57.36 15.6832 57.1858 15.3631ZM58.8519 16.7189C59.4509 17.0158 60.104 17.1498 60.776 17.0315C61.0536 16.9836 61.3292 16.8968 61.5987 16.7862C61.3894 17.4593 61.247 18.1501 61.1715 18.7465C61.1475 18.9401 61.1662 19.2087 61.1906 19.5006C60.6406 19.0983 60.0617 18.8031 59.3735 18.6561C58.9668 18.5703 58.5496 18.5271 58.1349 18.5432C58.4683 17.9776 58.7262 17.3671 58.8519 16.7189Z" fill="#17161C"/>
</g>
<g id="Group_2">
<path id="Vector_2" fill-rule="evenodd" clip-rule="evenodd" d="M57.8826 41.3187C62.3875 37.9856 66.7386 34.2544 72.1419 32.4771C72.5296 32.3501 72.7398 31.9308 72.6144 31.5451C72.4874 31.1574 72.0681 30.9471 71.6804 31.0741C66.1253 32.9009 61.6337 36.704 57.0049 40.1304C56.6764 40.3735 56.6082 40.835 56.8498 41.1616C57.093 41.4902 57.5545 41.5584 57.8826 41.3187Z" fill="#17161C"/>
</g>
<g id="Group_3">
<path id="Vector_3" fill-rule="evenodd" clip-rule="evenodd" d="M52.5288 35.1145C52.9183 32.7891 53.6773 30.682 55.1201 28.8086C55.3682 28.4862 55.3072 28.0229 54.9852 27.7734C54.6614 27.5255 54.199 27.5845 53.9489 27.9085C52.354 29.9792 51.5028 32.3004 51.0724 34.87C51.0048 35.2722 51.2763 35.6532 51.6782 35.7207C52.08 35.7883 52.4612 35.5167 52.5288 35.1145Z" fill="#17161C"/>
</g>
<g id="Group_4">
<path id="Vector_4" fill-rule="evenodd" clip-rule="evenodd" d="M37.8835 24.1631C36.8402 21.5272 36.7666 18.8872 37.7131 16.2033C37.848 15.8196 37.6468 15.3967 37.2614 15.2621C36.8778 15.1258 36.4553 15.3282 36.3205 15.7122C35.25 18.7457 35.3313 21.7284 36.5104 24.7071C36.6612 25.0853 37.0899 25.2717 37.469 25.1215C37.848 24.9713 38.0343 24.5413 37.8835 24.1631Z" fill="#17161C"/>
</g>
<g id="Group_5">
<path id="Vector_5" fill-rule="evenodd" clip-rule="evenodd" d="M13.526 38.3184C13.4984 39.0365 13.5347 39.7567 13.6404 40.4698C13.6995 40.8825 13.9298 41.7718 14.3533 42.216C14.6712 42.5484 15.0707 42.7092 15.5474 42.6165C16.3092 42.4692 16.7199 42.0951 16.9255 41.666C17.1232 41.2546 17.1363 40.7423 16.9669 40.1958C16.6636 39.2208 15.7434 38.1061 15.0652 37.531C15.1456 36.8326 15.2909 36.1414 15.4935 35.4679C17.0551 30.2916 22.8799 27.2402 29.6808 27.8727C32.0639 28.0938 34.8329 30.3022 37.4555 32.9637C41.5732 37.1382 45.2579 42.5119 46.3851 44.049C46.6833 44.4523 46.9086 44.6537 46.9644 44.6854C47.2744 44.8594 47.5216 44.7762 47.6753 44.6972C47.8909 44.5856 48.0118 44.4323 48.0843 44.2729C48.181 44.0605 48.2003 43.8047 48.0808 43.5228C48.0191 43.3794 47.8999 43.2061 47.7583 43.0322C47.673 42.9305 47.5589 42.8359 47.5219 42.7442C47.2634 42.0993 47.0453 41.4422 46.8189 40.7863C46.0569 38.5802 45.5571 36.3464 45.1402 34.0507C43.8212 26.7472 42.1771 19.2222 43.5562 11.8031C43.631 11.4021 43.3676 11.0155 42.9666 10.941C42.5658 10.8667 42.1796 11.132 42.1048 11.5329C40.6921 19.1292 42.335 26.8371 43.6882 34.3128C44.0016 36.0505 44.3649 37.7522 44.8465 39.4336C42.6434 36.5055 39.5249 32.6412 36.3656 29.9072C34.1148 27.9559 31.8241 26.587 29.8182 26.4017C22.2308 25.6962 15.8212 29.2668 14.0796 35.0414C13.9075 35.6099 13.7743 36.1883 13.6786 36.7748C8.81235 34.7769 3.3815 36.7072 0.916861 41.4242C0.729431 41.7845 0.868445 42.2318 1.23011 42.4201C1.59178 42.6084 2.03809 42.4685 2.22552 42.1082C4.39845 37.9503 9.26883 36.3378 13.526 38.3184ZM15.0294 39.6336C15.0472 39.8409 15.0712 40.048 15.1013 40.2551C15.1213 40.4011 15.1702 40.6443 15.2557 40.8784C15.2869 40.9586 15.351 41.0731 15.3919 41.1417C15.4904 41.12 15.5625 41.0925 15.5949 41.0259C15.647 40.9164 15.6006 40.7807 15.5552 40.6342C15.4541 40.3077 15.2583 39.9558 15.0294 39.6336Z" fill="#17161C"/>
</g>
</g>
</svg>
