<svg width="35" height="37" viewBox="0 0 35 37" fill="none" xmlns="http://www.w3.org/2000/svg">
<path d="M2.46095 33.4804C2.46095 27.8336 2.46095 22.2627 2.46095 16.6989C1.57512 16.4051 1.49357 16.2912 1.49217 15.3449C1.49076 14.9231 1.48092 14.5012 1.49498 14.0794C1.51607 13.4397 1.7551 13.1823 2.38783 13.1528C2.92073 13.1275 3.45645 13.1472 4.0709 13.1472C4.0709 12.3443 4.06387 11.6244 4.0723 10.9031C4.08074 10.2155 4.16651 10.1298 4.83861 10.1241C5.79896 10.1171 6.7593 10.1185 7.71965 10.1241C8.43534 10.1284 8.50423 10.2043 8.50986 10.9467C8.51408 11.6469 8.51127 12.3471 8.51127 13.1374C9.04698 13.1374 9.54051 13.1922 10.0129 13.1135C10.2281 13.0769 10.4545 12.8083 10.581 12.5904C12.6521 9.03022 14.7078 5.46021 16.7677 1.89302C16.8971 1.66945 17.0124 1.43745 17.1586 1.22794C17.3892 0.897518 17.6521 0.891894 17.8883 1.22232C18.0233 1.41214 18.1274 1.62446 18.2455 1.82693C20.2941 5.37304 22.3582 8.91212 24.3774 12.4751C24.6783 13.0052 25.0073 13.2231 25.5908 13.1486C25.8861 13.1106 26.1898 13.1416 26.5385 13.1416C26.5385 12.3289 26.5329 11.6047 26.5399 10.882C26.5469 10.2268 26.6327 10.1312 27.2528 10.1241C28.2595 10.1143 29.2677 10.1382 30.2744 10.1143C30.7947 10.1016 30.9929 10.3238 30.9831 10.8244C30.9676 11.5696 30.9788 12.3148 30.9788 13.1416C31.5652 13.1416 32.0756 13.1275 32.586 13.1444C33.3045 13.1697 33.5393 13.4172 33.5576 14.1399C33.5674 14.5378 33.5604 14.9357 33.559 15.335C33.5562 16.2855 33.4718 16.4051 32.5888 16.6905C32.5888 22.2543 32.5888 27.8237 32.5888 33.4565C32.8292 33.4733 33.0514 33.4958 33.275 33.5029C33.9921 33.5268 34.061 33.5914 34.068 34.331C34.0736 34.9863 34.061 35.6429 34.0708 36.2981C34.0778 36.7593 33.9021 37.0138 33.4085 36.973C33.2918 36.9632 33.1737 36.9716 33.057 36.9716C22.7027 36.9716 12.3484 36.9716 1.99413 36.9716C0.980357 36.9716 0.980357 36.9702 0.977545 35.9522C0.976138 35.4137 0.973326 34.8752 0.978951 34.3353C0.985981 33.576 1.04644 33.5226 1.83806 33.5029C2.02647 33.5029 2.21207 33.4916 2.46095 33.4804ZM3.32568 33.4579C12.8377 33.4579 22.2668 33.4579 31.7114 33.4579C31.7114 27.8252 31.7114 22.2417 31.7114 16.6567C30.0705 16.6567 28.4803 16.6567 26.8211 16.6567C27.0911 17.1362 27.3287 17.5369 27.5438 17.9489C27.8363 18.5085 27.714 18.7026 27.0742 18.7307C26.9111 18.7377 26.7466 18.7321 26.5821 18.7321C22.5298 18.7321 18.4775 18.7321 14.4238 18.7321C12.2922 18.7321 10.1606 18.7377 8.02898 18.7293C7.30064 18.7265 7.19097 18.5212 7.53967 17.8772C7.75761 17.4751 7.98258 17.0758 8.2174 16.6525C6.53293 16.6525 4.93141 16.6525 3.32287 16.6525C3.32568 22.2782 3.32568 27.8462 3.32568 33.4579ZM17.527 2.15876C14.4575 7.47652 11.464 12.6649 8.43393 17.9166C14.5503 17.9166 20.5247 17.9166 26.62 17.9166C23.5801 12.6494 20.5922 7.4723 17.527 2.15876ZM33.2497 34.3521C22.7252 34.3521 12.2739 34.3521 1.82822 34.3521C1.82822 34.975 1.82822 35.5487 1.82822 36.1167C12.3259 36.1167 22.7758 36.1167 33.2497 36.1167C33.2497 35.5079 33.2497 34.9525 33.2497 34.3521ZM25.2702 13.9655C25.5514 14.4619 25.813 14.8724 26.021 15.3097C26.2081 15.6992 26.4696 15.8328 26.9012 15.8258C28.6546 15.8019 30.4094 15.8131 32.1642 15.8089C32.3427 15.8089 32.5227 15.7808 32.7168 15.7639C32.7168 15.1466 32.7168 14.5744 32.7168 13.9655C30.2449 13.9655 27.8194 13.9655 25.2702 13.9655ZM9.77954 13.981C7.23034 13.981 4.78799 13.981 2.34706 13.981C2.34706 14.6053 2.34706 15.1762 2.34706 15.8145C4.40976 15.8145 6.41622 15.8201 8.42128 15.8033C8.57454 15.8019 8.78404 15.6809 8.867 15.5516C9.17915 15.0651 9.45193 14.5533 9.77954 13.981ZM7.67184 10.9875C6.69884 10.9875 5.80458 10.9875 4.92298 10.9875C4.92298 11.7257 4.92298 12.409 4.92298 13.0881C5.86926 13.0881 6.76352 13.0881 7.67184 13.0881C7.67184 12.364 7.67184 11.6947 7.67184 10.9875ZM30.1535 10.9889C29.1819 10.9889 28.2876 10.9889 27.3793 10.9889C27.3793 11.7144 27.3793 12.3837 27.3793 13.0881C28.32 13.0881 29.2325 13.0881 30.1535 13.0881C30.1535 12.3626 30.1535 11.6933 30.1535 10.9889Z" fill="white"/>
<path d="M18.8098 23.6605C19.3849 23.6605 19.8742 23.6338 20.3579 23.6675C20.9273 23.7069 21.0665 23.9684 20.76 24.4535C19.6815 26.1534 18.5848 27.8421 17.4895 29.5294C17.4178 29.6405 17.2954 29.7924 17.19 29.7966C16.5137 29.8233 15.8331 29.8514 15.1596 29.7994C14.8348 29.7741 14.8165 29.4732 14.9361 29.1934C15.2032 28.5705 15.4676 27.9448 15.7319 27.3205C15.8219 27.1082 15.9048 26.893 16.0384 26.5598C15.5308 26.5598 15.0992 26.5767 14.6703 26.5556C14.1838 26.5303 14.0277 26.3194 14.2063 25.868C14.8854 24.1498 15.5786 22.4358 16.2943 20.733C16.366 20.5615 16.6205 20.3689 16.8033 20.3562C17.6666 20.2929 18.5342 20.2704 19.4003 20.269C19.8896 20.269 20.0415 20.4926 19.8756 20.9482C19.6436 21.5851 19.368 22.2066 19.1163 22.8351C19.0221 23.0699 18.9391 23.3104 18.8098 23.6605ZM15.8711 29.0429C16.3604 29.0499 16.7682 29.2341 17.0719 28.7476C17.9268 27.3767 18.8098 26.0241 19.6759 24.6616C19.704 24.6166 19.6872 24.5421 19.6942 24.4254C19.3188 24.4254 18.9673 24.4366 18.6172 24.4226C17.796 24.3916 17.6976 24.2412 17.9999 23.4847C18.3092 22.7072 18.6242 21.9324 18.9518 21.1183C18.253 21.1183 17.6301 21.1183 16.9763 21.1183C16.3576 22.6495 15.7488 24.1596 15.1048 25.7527C15.5533 25.7527 15.902 25.7485 16.2507 25.7541C17.0677 25.764 17.1787 25.9271 16.8694 26.6695C16.5474 27.4414 16.2212 28.2119 15.8711 29.0429Z" fill="white"/>
<path d="M25.5105 26.294C24.8905 26.294 24.3773 26.2827 23.8654 26.2982C23.4591 26.3108 23.2496 26.1562 23.2608 25.7287C23.2721 25.2844 23.2749 24.8401 23.2594 24.3958C23.2454 23.9669 23.4633 23.8094 23.8598 23.8137C24.3716 23.8179 24.8834 23.8151 25.5091 23.8151C25.5091 23.2498 25.5274 22.7451 25.5035 22.2431C25.481 21.7678 25.6736 21.5808 26.1531 21.5569C27.9318 21.4683 27.9304 21.4571 27.9726 23.247C27.9768 23.4059 28.0035 23.5648 28.0274 23.8123C28.3241 23.8123 28.5969 23.8137 28.8696 23.8123C30.4135 23.8038 30.2026 23.7771 30.2167 25.1916C30.2181 25.3786 30.2124 25.5656 30.2153 25.7526C30.2223 26.1337 30.0395 26.3038 29.657 26.2968C29.1241 26.2855 28.5898 26.294 27.9684 26.294C27.9684 26.8634 27.9543 27.371 27.9726 27.8786C27.9894 28.3468 27.8165 28.5774 27.3202 28.5493C26.9011 28.5254 26.4779 28.5366 26.0575 28.5451C25.6708 28.5535 25.5035 28.3693 25.5077 27.9925C25.5148 27.4596 25.5105 26.9253 25.5105 26.294ZM29.4166 24.6067C28.8429 24.6067 28.3297 24.5926 27.8193 24.6109C27.3652 24.6278 27.1838 24.4281 27.1978 23.981C27.2147 23.4523 27.202 22.9236 27.202 22.3963C26.8463 22.3963 26.5974 22.3963 26.2797 22.3963C26.2797 22.7099 26.2797 22.9855 26.2797 23.2625C26.2811 24.7417 26.3767 24.6053 24.9734 24.6081C24.6782 24.6081 24.3829 24.6081 24.082 24.6081C24.082 24.9484 24.082 25.193 24.082 25.5108C24.6416 25.5108 25.152 25.5206 25.6638 25.508C26.1109 25.4967 26.2994 25.6964 26.2839 26.1449C26.2642 26.6539 26.2797 27.1629 26.2797 27.6846C26.6284 27.6846 26.8899 27.6846 27.1331 27.6846C27.1655 27.5791 27.1908 27.5355 27.1908 27.4919C27.1978 27.094 27.1978 26.6961 27.2035 26.2982C27.2133 25.5572 27.2499 25.5206 28.0162 25.5122C28.4745 25.5066 28.9343 25.5108 29.418 25.5108C29.4166 25.1663 29.4166 24.9399 29.4166 24.6067Z" fill="white"/>
<path d="M8.30844 26.2953C7.3734 26.2953 6.43696 26.2798 5.50193 26.3023C5.02386 26.3136 4.80592 26.1406 4.83123 25.6513C4.85092 25.2548 4.85373 24.8555 4.83123 24.459C4.80311 23.957 5.0548 23.808 5.51177 23.8094C7.38325 23.8192 9.25332 23.8192 11.1248 23.8094C11.5902 23.8065 11.825 23.9739 11.7955 24.4674C11.773 24.8639 11.7744 25.2632 11.7955 25.6597C11.8222 26.1589 11.5832 26.3108 11.1164 26.3009C10.1799 26.2798 9.24348 26.2953 8.30844 26.2953ZM10.9772 25.4545C10.9772 25.1578 10.9772 24.9145 10.9772 24.6614C9.17036 24.6614 7.40715 24.6614 5.66222 24.6614C5.66222 24.9623 5.66222 25.2056 5.66222 25.4545C7.46339 25.4545 9.20692 25.4545 10.9772 25.4545Z" fill="white"/>
<path d="M16.1577 9.97785C16.1577 8.99641 16.1493 8.01357 16.1605 7.03213C16.1676 6.39097 16.2491 6.31926 16.9001 6.30801C17.3206 6.30098 17.7424 6.30098 18.1628 6.30801C18.8054 6.31926 18.8869 6.39237 18.8911 7.04338C18.901 8.44664 18.8939 9.84849 18.8939 11.2517C18.8939 11.8367 18.8897 12.4202 18.8939 13.0051C18.8968 13.4396 18.7069 13.6491 18.2556 13.6322C17.7888 13.6139 17.3191 13.6069 16.8537 13.6336C16.3265 13.6632 16.1465 13.4171 16.1535 12.9222C16.169 11.9421 16.1577 10.9607 16.1577 9.97785ZM17 7.12634C17 9.04422 17 10.9016 17 12.7759C17.374 12.7759 17.7072 12.7759 18.0531 12.7759C18.0531 10.8721 18.0531 9.0175 18.0531 7.12634C17.6974 7.12634 17.3796 7.12634 17 7.12634Z" fill="white"/>
<path d="M18.9625 15.6514C18.9653 16.4613 18.2904 17.1348 17.4959 17.1137C16.7212 17.094 16.0913 16.443 16.0899 15.6612C16.087 14.8401 16.7451 14.1877 17.5564 14.2059C18.341 14.2228 18.9596 14.8598 18.9625 15.6514ZM18.1849 15.6654C18.1905 15.3069 17.8868 15.0116 17.517 15.0186C17.1261 15.0257 16.9251 15.2563 16.8773 15.6148C16.8309 15.9621 17.1458 16.2897 17.5015 16.3038C17.8559 16.3193 18.1793 16.017 18.1849 15.6654Z" fill="white"/>
</svg>
