<svg width="54" height="34" viewBox="0 0 54 34" fill="none" xmlns="http://www.w3.org/2000/svg">
<path d="M3.54728 25.0125C2.68861 25.0125 1.92862 25.0042 1.16862 25.0146C0.551383 25.023 -0.0133664 24.9097 -0.000769749 24.156C0.00972745 23.4863 0.528289 23.3246 1.10983 23.3267C3.59347 23.3288 6.07711 23.3288 8.56285 23.3267C9.14439 23.3267 9.65666 23.4716 9.68185 24.1476C9.71124 24.9181 9.14859 25.0209 8.53345 25.0146C7.48793 25.0063 6.44451 25.0125 5.31711 25.0125C5.31711 25.6508 5.31711 26.2176 5.31711 26.9083C6.79512 26.9083 8.25423 26.9251 9.71124 26.8874C9.91699 26.8811 10.2025 26.6522 10.3075 26.4507C11.3614 24.4415 13.0032 23.3078 15.2727 23.3519C17.6387 23.3981 19.2469 24.6934 20.221 26.8643C25.9798 26.8643 31.7449 26.8643 37.6716 26.8643C37.6716 26.289 37.6716 25.7432 37.6716 25.1994C37.6716 24.009 37.6716 22.8207 37.6716 21.6304C37.6716 20.2216 37.8689 19.7744 38.4904 19.7577C39.1496 19.7409 39.3679 20.2195 39.37 21.6891C39.37 23.0538 39.37 24.4184 39.37 25.783C39.37 26.1232 39.37 26.4633 39.37 26.8034C39.4414 26.8307 39.5107 26.8559 39.5821 26.8832C39.7122 26.7257 39.8739 26.5829 39.9663 26.4045C40.9719 24.4646 42.5654 23.3687 44.7425 23.3498C46.9175 23.3309 48.5572 24.3743 49.5523 26.3247C49.777 26.7656 50.0331 26.9503 50.5118 26.9167C50.9631 26.8853 51.4187 26.9104 51.952 26.9104C51.952 25.697 51.952 24.5297 51.952 23.3456C51.847 23.3162 51.7525 23.27 51.656 23.2658C49.0107 23.121 47.6523 21.1454 48.5236 18.6072C48.6265 18.3069 49.187 18.0382 49.567 17.9857C50.2766 17.887 51.0093 17.9563 51.8428 17.9563C51.4397 16.8268 50.7385 16.1592 49.7476 16.1382C46.3297 16.0689 42.9097 16.1109 39.4477 16.1109C39.4078 16.4657 39.4624 16.8289 39.3133 17.0641C39.116 17.3727 38.7486 17.7842 38.4715 17.7716C38.1985 17.7569 37.8731 17.3076 37.7136 16.9801C37.5876 16.724 37.6737 16.3629 37.6737 16.0479C37.6737 11.6748 37.6737 7.30167 37.6737 2.92854C37.6737 2.55274 37.6737 2.17484 37.6737 1.74235C26.8322 1.74235 16.1082 1.74235 5.23523 1.74235C5.23523 2.12655 5.23523 2.49815 5.23523 2.86765C5.23523 7.34576 5.23733 11.8239 5.23313 16.302C5.23313 16.9528 5.3759 17.7275 4.39966 17.8178C3.79712 17.8745 3.54938 17.4042 3.54938 16.3104C3.54728 11.6223 3.54518 6.93427 3.54938 2.24622C3.55148 0.612854 4.14353 0.00401599 5.7412 0.00401599C16.2027 0.00191655 26.6642 0.00191655 37.1257 0.00401599C38.7507 0.00401599 39.3427 0.591859 39.37 2.20633C39.3763 2.61992 39.37 3.03351 39.37 3.52058C39.7563 3.54367 40.0608 3.57726 40.3652 3.57936C42.114 3.58566 43.8649 3.55417 45.6138 3.58986C47.9903 3.63815 49.9302 5.79007 49.1345 7.96929C48.5656 9.52498 49.1807 10.6965 49.3571 12.0338C49.4033 12.3781 49.5607 12.7056 49.6048 13.0499C49.7224 13.9506 50.1255 14.4377 51.0618 14.7883C52.7351 15.416 53.6525 16.8163 53.6924 18.6156C53.7575 21.5527 53.7239 24.494 53.7113 27.4311C53.7071 28.3696 53.4762 28.5732 52.5062 28.5942C51.7441 28.611 50.9799 28.5984 50.2409 28.5984C49.5082 32.1884 47.6145 34.017 44.7488 33.9982C41.9314 33.9793 40.0461 32.1276 39.3616 28.6614C33.1263 28.6614 26.8805 28.6614 20.6409 28.6614C19.6395 32.4677 17.7983 34.1535 14.8465 33.9919C12.1508 33.8449 10.2823 31.9113 9.75533 28.5984C8.53975 28.5984 7.29479 28.6005 6.04982 28.5984C4.04695 28.5963 3.55778 28.1176 3.54938 26.1504C3.54728 25.8145 3.54728 25.4723 3.54728 25.0125ZM39.4414 8.85946C39.4414 10.7301 39.4414 12.4831 39.4414 14.2823C42.3491 14.2823 45.1876 14.2823 48.0323 14.2823C48.047 14.1144 48.0827 14.0073 48.0596 13.9149C47.8014 12.8316 47.5369 11.7504 47.266 10.6713C46.8125 8.85946 46.8105 8.86156 44.9147 8.86156C43.1112 8.85946 41.3078 8.85946 39.4414 8.85946ZM15.1782 25.0209C13.2131 25.0146 11.5608 26.6417 11.5273 28.6131C11.4937 30.6223 13.1522 32.3123 15.1635 32.3165C17.1706 32.3207 18.8522 30.6244 18.8207 28.6278C18.7934 26.6648 17.137 25.0272 15.1782 25.0209ZM48.4417 28.6572C48.4312 26.6921 46.8 25.0482 44.8307 25.0209C42.8362 24.9937 41.1357 26.6858 41.1441 28.6866C41.1525 30.6957 42.8509 32.3543 44.8601 32.3144C46.8335 32.2766 48.4522 30.6244 48.4417 28.6572ZM39.412 7.11062C42.135 7.11062 44.7782 7.11062 47.4214 7.11062C47.3647 5.92234 46.7832 5.3177 45.6012 5.28201C44.3772 5.24632 43.1532 5.27361 41.9293 5.27151C41.1021 5.27151 40.2749 5.27151 39.412 5.27151C39.412 5.94123 39.412 6.46189 39.412 7.11062ZM50.3186 19.6863C49.8609 21.1874 50.4005 21.75 51.9478 21.4141C51.9478 20.8431 51.9478 20.2783 51.9478 19.6863C51.3473 19.6863 50.8309 19.6863 50.3186 19.6863Z" fill="white"/>
<path d="M20.5861 15.7981C22.864 13.5181 25.0831 11.2927 27.3043 9.06936C27.5268 8.84682 27.7452 8.62008 27.9761 8.40593C28.3603 8.04903 28.7928 7.96505 29.1917 8.33875C29.5927 8.71455 29.5318 9.14914 29.1896 9.55013C29.0762 9.68239 28.9481 9.80416 28.8243 9.92803C26.4015 12.3529 23.9788 14.7777 21.5518 17.1984C20.6658 18.0823 20.4559 18.0823 19.5825 17.2131C18.2914 15.9324 17.0002 14.6518 15.7343 13.3459C15.5096 13.115 15.327 12.7686 15.2934 12.4579C15.2703 12.25 15.5411 11.8259 15.6902 11.8217C16.0639 11.8112 16.5488 11.87 16.8029 12.103C17.9345 13.1444 18.9989 14.2571 20.0906 15.3425C20.2103 15.4643 20.3425 15.5776 20.5861 15.7981Z" fill="white"/>
<path d="M28.62 25.0125C26.6633 25.0125 24.7087 25.0104 22.7521 25.0146C22.1558 25.0167 21.5617 24.9726 21.5596 24.1937C21.5575 23.4421 22.1201 23.3267 22.7311 23.3267C26.678 23.3288 30.625 23.3288 34.5698 23.3267C35.1954 23.3267 35.7308 23.4883 35.714 24.2273C35.6993 24.9243 35.1639 25.0188 34.5908 25.0167C32.6026 25.0083 30.6124 25.0125 28.62 25.0125Z" fill="white"/>
<path d="M7.94935 21.4266C6.30759 21.4266 4.66583 21.4224 3.02406 21.4287C2.42782 21.4308 1.82318 21.3888 1.81269 20.6225C1.80009 19.7996 2.42782 19.7387 3.06605 19.7408C6.34958 19.7471 9.6331 19.7429 12.9166 19.7429C13.0216 19.7429 13.1266 19.7429 13.2315 19.745C13.7984 19.7597 14.2099 20.0158 14.1952 20.6099C14.1805 21.202 13.7564 21.4287 13.1896 21.4266C11.4428 21.4245 9.69608 21.4266 7.94935 21.4266Z" fill="white"/>
<path d="M16.9215 28.6467C16.9362 29.5662 16.1238 30.4018 15.1958 30.4165C14.2742 30.4312 13.4407 29.6208 13.426 28.695C13.4113 27.7691 14.2175 26.9377 15.1454 26.923C16.0692 26.9084 16.9048 27.7208 16.9215 28.6467Z" fill="white"/>
<path d="M44.8277 30.4165C43.9061 30.4375 43.0663 29.6313 43.0453 28.7054C43.0243 27.7817 43.8284 26.944 44.7585 26.923C45.6801 26.902 46.5199 27.7082 46.5409 28.6362C46.5619 29.5578 45.7536 30.3976 44.8277 30.4165Z" fill="white"/>
</svg>
