<svg width="41" height="36" viewBox="0 0 41 36" fill="none" xmlns="http://www.w3.org/2000/svg">
<path d="M25.7576 29.6006C23.8404 30.9212 21.794 31.8185 19.5515 32.2974C10.8938 34.1411 2.02679 28.311 0.322047 19.6303C-1.4726 10.4855 4.40984 1.87677 13.571 0.240672C21.6845 -1.20746 29.7653 3.92639 31.9833 11.968C32.1369 12.5237 32.4099 12.8408 32.8904 13.1121C35.1885 14.4115 37.4587 15.7567 39.7601 17.0479C40.3354 17.3699 40.5446 17.7589 40.5364 18.4159C40.5037 21.2485 40.5037 24.081 40.5364 26.9135C40.5446 27.5738 40.3256 27.9563 39.7535 28.2783C37.2888 29.6676 34.8354 31.0781 32.4017 32.523C31.8051 32.8777 31.3426 32.8564 30.7607 32.5034C29.136 31.5194 27.4738 30.5894 25.7576 29.6006ZM9.2969 3.16637C9.98337 3.5472 10.6257 3.52268 11.2779 3.40173C11.9202 3.28241 12.5577 3.14348 13.2033 3.04215C13.9273 2.92937 14.6481 3.01273 15.2235 3.48018C15.9263 4.05061 16.701 4.33828 17.5836 4.49192C18.5447 4.65863 18.9713 5.24704 18.9435 6.23262C18.9272 6.80142 18.8536 7.37348 18.7408 7.93247C18.5954 8.66144 18.1459 9.14034 17.3989 9.30542C17.0802 9.3757 16.7631 9.45906 16.4411 9.50646C15.4474 9.65519 14.5713 10.103 13.7688 10.662C13.4403 10.8908 13.1314 11.2929 13.0267 11.6754C12.7571 12.6528 12.1196 13.1137 11.1863 13.2902C10.6094 13.3998 10.034 13.5191 9.31161 13.6629C9.67773 14.2807 9.99481 14.776 10.2727 15.2957C10.5375 15.7926 10.9117 16.0149 11.4675 15.8858C13.0153 15.5262 14.4422 16.0084 15.8217 16.5951C16.7648 16.9972 17.6801 17.5023 18.5284 18.0792C19.375 18.6562 19.6937 19.4979 19.4927 20.5767C19.2197 22.0412 18.409 23.1722 17.4709 24.2428C16.7321 25.0862 16.2842 26.0227 16.1175 27.1505C16.0096 27.886 15.7367 28.6379 15.3657 29.2835C14.5991 30.6172 13.352 30.5992 12.5478 29.2982C12.3223 28.9321 12.1343 28.5251 12.015 28.1132C11.7895 27.3303 11.6015 26.536 11.4413 25.7367C11.1618 24.336 10.7074 23.0709 9.36554 22.2961C8.77877 21.9578 8.44371 21.3596 8.32766 20.6944C8.20181 19.9736 8.11191 19.2397 8.08576 18.5091C8.05143 17.5709 7.59542 16.9204 6.85337 16.4235C6.6507 16.2879 6.43495 16.1702 6.22247 16.046C4.61415 15.1029 3.3311 13.8378 2.4158 12.2066C2.32754 12.0513 2.21803 11.9075 2.09544 11.7244C0.201096 16.7717 1.54953 24.2869 7.74252 28.6313C13.4681 32.6456 20.7594 31.6306 24.383 28.8111C24.0888 28.6379 23.8224 28.4417 23.5266 28.3175C22.8515 28.0364 22.6554 27.5608 22.6685 26.8383C22.7126 24.4422 22.6848 22.0444 22.6848 19.6483C22.6848 19.274 22.6848 18.8981 22.6848 18.5385C22.5148 18.4666 22.4184 18.4143 22.3154 18.3832C20.0075 17.6902 19.2786 15.8024 20.524 13.7446C20.6221 13.5812 20.7545 13.4308 20.8166 13.2559C20.9228 12.9584 21.0471 12.6463 21.0552 12.339C21.0863 11.1148 22.0866 10.3286 23.3043 10.5035C24.432 10.6653 25.5745 10.7405 26.7138 10.7961C27.4166 10.8304 27.4754 10.7143 27.4362 9.77778C27.1583 9.77778 26.8723 9.7647 26.5879 9.77941C25.6366 9.83172 24.687 9.91998 23.7358 9.94286C23.2765 9.9543 22.809 9.88238 22.5524 9.38387C21.7401 7.80825 22.3546 5.87304 23.9466 5.06561C24.3748 4.84823 24.826 4.67334 25.2852 4.47067C21.1893 0.887921 13.9486 0.302782 9.2969 3.16637ZM17.6866 5.87141C17.2273 5.77007 16.853 5.71777 16.5 5.60008C16.0407 5.44644 15.5046 5.34184 15.1679 5.03456C14.3621 4.29742 13.4811 4.20425 12.5135 4.48701C11.0458 4.91688 9.61235 4.89563 8.21978 4.23204C7.8079 4.0359 7.51043 4.16339 7.18353 4.41837C5.43629 5.77497 4.04536 7.42578 3.0042 9.37897C2.84076 9.68625 2.79499 9.9543 2.93719 10.2959C3.66943 12.0464 4.74001 13.5207 6.34505 14.57C6.70954 14.8087 7.09037 15.0211 7.45649 15.2565C8.59408 15.9904 9.3492 16.9596 9.38843 18.3783C9.4015 18.8687 9.43092 19.359 9.47832 19.8461C9.54043 20.4982 9.7807 21.0654 10.3642 21.4233C11.6146 22.1866 12.221 23.3749 12.5528 24.738C12.7456 25.5308 12.8715 26.3398 13.0807 27.1276C13.2523 27.7732 13.3994 28.4515 13.9666 28.937C14.568 28.3894 14.7478 27.6588 14.8263 26.9413C14.9783 25.5504 15.5896 24.4111 16.4787 23.3716C16.9021 22.8764 17.3564 22.3779 17.6457 21.8042C18.7131 19.6875 18.3796 19.3214 16.6798 18.4257C15.0159 17.5497 13.2834 16.8174 11.304 17.2048C10.6584 17.3306 10.0259 17.1868 9.62542 16.6098C9.14653 15.9201 8.65619 15.2205 8.29497 14.4671C7.78502 13.403 8.21651 12.5891 9.35901 12.3047C9.91309 12.1657 10.4802 12.0824 11.0425 11.981C11.3988 11.9173 11.6407 11.7391 11.7241 11.373C11.9611 10.3286 12.6982 9.73201 13.5743 9.21552C14.5779 8.62221 15.668 8.32801 16.786 8.07303C17.0361 8.01582 17.3859 7.81642 17.4431 7.61211C17.5918 7.07437 17.6082 6.49904 17.6866 5.87141ZM32.2464 30.9032C32.4295 30.9032 32.4932 30.9229 32.5325 30.9C34.6524 29.6839 36.7723 28.4695 38.8807 27.2355C39.0344 27.1456 39.1962 26.9119 39.1978 26.7435C39.2174 24.2199 39.2125 21.6947 39.2125 19.1138C39.054 19.1678 38.9477 19.1874 38.8611 19.2381C36.7886 20.428 34.7226 21.6277 32.6452 22.8077C32.3004 23.0039 32.2415 23.2654 32.2448 23.6135C32.2562 24.6465 32.2481 25.6795 32.2481 26.7108C32.2464 28.0936 32.2464 29.4747 32.2464 30.9032ZM23.7521 8.65163C24.0872 8.63529 24.3814 8.63038 24.6756 8.6075C25.38 8.55193 26.0845 8.47674 26.7906 8.43098C28.0213 8.35089 28.85 9.03737 28.8418 10.1112C28.8337 11.3305 28.0916 12.133 26.8739 12.1036C25.6546 12.0726 24.4353 11.9516 23.2193 11.8339C22.8221 11.7947 22.4037 11.8012 22.4298 12.2556C22.487 13.2477 21.9019 13.9408 21.472 14.7155C21.0389 15.4935 21.1026 15.9855 21.6796 16.5494C22.2141 17.0724 23.0248 17.3568 23.7309 16.9253C25.9112 15.5932 28.1472 14.3526 30.3586 13.0729C30.5188 12.9813 30.6626 12.862 30.831 12.7427C30.2949 10.5084 29.3207 8.5176 27.8383 6.81122C26.3607 5.10974 26.9671 5.29771 24.8358 6.10513C23.556 6.58894 23.3304 7.19859 23.7521 8.65163ZM30.8097 30.9278C30.8588 30.8395 30.9078 30.7954 30.9078 30.7496C30.9176 28.3028 30.9258 25.856 30.9176 23.4076C30.9176 23.2441 30.8293 23.0153 30.7051 22.9287C30.3145 22.6574 29.8879 22.4383 29.3126 22.1049C29.3126 23.0088 29.3289 23.7312 29.3093 24.4536C29.2848 25.3493 28.8811 25.5863 28.1063 25.163C27.4623 24.81 26.8462 24.4079 26.1973 24.0695C25.7462 23.8342 25.6007 23.4975 25.6154 23.0137C25.6383 22.1719 25.6056 21.3269 25.6285 20.4852C25.6383 20.1109 25.5206 19.8722 25.1823 19.7088C24.8243 19.5339 24.4827 19.3231 24.0643 19.0893C24.0332 19.3132 24.0005 19.4375 24.0005 19.5617C23.9973 21.9006 24.0055 24.2395 23.9891 26.5768C23.9858 26.9576 24.1362 27.1587 24.4517 27.3385C26.4343 28.4679 28.4071 29.6153 30.3864 30.7529C30.5188 30.8281 30.6708 30.8706 30.8097 30.9278ZM33.2042 14.8168C32.8365 14.5962 32.5161 14.4474 32.2448 14.235C31.7855 13.8754 31.3998 13.962 30.9258 14.2464C29.0805 15.348 27.209 16.4072 25.349 17.4859C25.143 17.6052 24.9485 17.7409 24.687 17.9109C25.2542 18.2378 25.7462 18.5222 26.2692 18.8245C28.5558 17.5006 30.8392 16.1832 33.2042 14.8168ZM29.9843 20.9641C30.6022 21.3253 31.0892 21.608 31.5992 21.9055C33.8891 20.5832 36.1593 19.2708 38.5375 17.8945C38.0259 17.5938 37.6467 17.3274 37.2315 17.1459C37.0469 17.0659 36.7445 17.0806 36.568 17.1803C34.417 18.3979 32.2791 19.6401 29.9843 20.9641ZM27.6519 19.5404C28.2632 20.1452 28.7797 20.204 29.4924 19.7595C31.2625 18.6546 33.098 17.651 34.9041 16.6017C35.1051 16.4856 35.2931 16.3434 35.5595 16.1653C35.1721 15.9397 34.8714 15.7632 34.533 15.5671C32.2579 16.8812 29.9827 18.1953 27.6519 19.5404ZM27.0031 20.8709C26.9834 20.9183 26.9475 20.9657 26.9459 21.0131C26.9377 21.3923 26.9328 21.7715 26.9328 22.1507C26.9328 23.0921 26.9344 23.0921 27.9935 23.4517C27.9935 23.0219 27.9935 22.623 27.9935 22.2226C27.9935 21.2321 27.9919 21.2321 27.0031 20.8709Z" fill="white"/>
<path d="M26.6629 34.7099C26.7201 34.9273 26.7854 35.0793 26.7969 35.2362C26.8361 35.8328 26.3327 36.1972 25.844 35.8785C25.2311 35.4781 24.6623 35.0057 24.1049 34.5268C23.7846 34.2506 23.7976 33.8681 24.1098 33.5952C24.6427 33.131 25.1967 32.6831 25.7835 32.2941C25.9649 32.1732 26.4275 32.1617 26.5141 32.2794C26.7054 32.5442 26.7413 32.9218 26.8851 33.399C26.9799 33.399 27.2643 33.399 27.5504 33.399C31.035 33.399 34.5214 33.399 38.006 33.4007C38.2512 33.4007 38.5013 33.3843 38.7383 33.4317C39.1028 33.5036 39.3627 33.7701 39.2629 34.1247C39.1992 34.3519 38.9213 34.5742 38.686 34.6837C38.4833 34.7785 38.2055 34.7131 37.9603 34.7131C34.5018 34.7131 31.0432 34.7131 27.5863 34.7131C27.2921 34.7099 26.9963 34.7099 26.6629 34.7099Z" fill="white"/>
<path d="M37.6366 10.0132C37.6709 9.61436 37.6137 9.27112 37.7412 9.02269C37.9095 8.69416 38.2789 8.64676 38.5878 8.86905C39.1599 9.28256 39.727 9.70426 40.2566 10.1701C40.644 10.51 40.626 10.8533 40.2206 11.2112C39.7532 11.6231 39.2449 11.9892 38.7529 12.375C38.4767 12.5924 38.1841 12.7166 37.8654 12.473C37.5646 12.2442 37.5025 11.9516 37.6856 11.6117C37.7216 11.543 37.7281 11.4597 37.764 11.3273C36.4369 11.3273 35.1375 11.3273 33.8364 11.3273C33.5913 11.3273 33.3477 11.3273 33.1026 11.3207C32.6809 11.3077 32.4242 11.0788 32.4308 10.6653C32.4373 10.2502 32.7152 10.0312 33.1254 10.023C33.8037 10.0099 34.4837 10.0164 35.162 10.0164C36.0037 10.0132 36.8438 10.0132 37.6366 10.0132Z" fill="white"/>
</svg>
