<svg width="36" height="36" viewBox="0 0 36 36" fill="none" xmlns="http://www.w3.org/2000/svg">
<path d="M17.9606 35.999C8.00798 35.9779 -0.023851 27.9025 5.32195e-05 17.9442C0.0239575 7.99584 8.11626 -0.0388082 18.0717 -0.000842568C28.0243 0.037123 36.0378 8.1252 35.9971 18.0891C35.9563 28.0051 27.8851 36.0201 17.9606 35.999ZM1.08278 17.9414C1.04481 27.2838 8.56762 34.8628 17.9128 34.8994C27.2383 34.9359 34.8581 27.4244 34.8904 18.1622C34.9242 8.72703 27.459 1.14094 18.0984 1.09735C8.6984 1.05376 1.12074 8.55548 1.08278 17.9414Z" fill="white"/>
<path d="M33.6148 18.0243C33.5923 26.6524 26.6136 33.5973 17.9744 33.5888C9.37164 33.5804 2.37613 26.5146 2.40144 17.857C2.42534 9.29364 9.43773 2.35859 18.0503 2.37969C26.6657 2.40218 33.6359 9.40895 33.6148 18.0243ZM25.005 12.2578C25.005 11.895 24.9685 11.6349 25.0149 11.3902C25.0599 11.1554 25.1414 10.8052 25.2975 10.7462C25.5056 10.6674 25.86 10.7448 26.0484 10.8896C27.0889 11.6869 28.1027 12.5193 29.1138 13.3546C29.5468 13.7117 29.5567 14.0323 29.1264 14.3979C28.1098 15.2613 27.0805 16.1134 26.0357 16.9444C25.5267 17.3494 25.0767 17.1328 25.0317 16.4902C25.0092 16.1739 25.0275 15.8547 25.0275 15.4919C24.0165 15.4919 23.1067 15.4891 22.197 15.4947C22.0859 15.4961 21.9383 15.5073 21.8679 15.5762C21.1874 16.2343 20.5195 16.9065 19.815 17.6081C20.7768 18.5587 21.6542 19.4361 22.5457 20.298C22.6694 20.4176 22.8593 20.5272 23.0224 20.5343C23.6706 20.561 24.3202 20.5455 25.0374 20.5455C25.0374 20.2221 24.998 19.9634 25.0486 19.7229C25.1021 19.4684 25.1878 19.086 25.3566 19.0241C25.5773 18.9439 25.9485 19.0494 26.1552 19.2069C27.1058 19.9282 28.0254 20.6918 28.9492 21.4497C29.6228 22.0023 29.6101 22.2441 28.9141 22.808C28.2152 23.3733 27.5164 23.9413 26.8541 24.4785C27.7245 25.3517 28.533 26.163 29.3401 26.9716C33.3097 22.486 34.1983 13.7609 28.3432 7.81439C22.4881 1.86645 13.6927 2.57936 9.01589 6.66418C11.8296 9.558 14.6418 12.4532 17.4892 15.3822C18.3681 14.4963 19.1119 13.7834 19.8108 13.0283C20.3282 12.4701 20.9258 12.2311 21.6809 12.2536C22.7552 12.2803 23.8309 12.2578 25.005 12.2578ZM8.75997 12.255C7.88114 11.3578 7.03605 10.4959 6.19378 9.63674C2.60392 14.1336 1.96835 22.6857 7.88536 28.4255C13.7996 34.1625 22.2406 33.1839 26.2959 29.8387C23.1785 26.7269 20.054 23.6081 16.8973 20.4569C16.0648 21.2922 15.2029 22.2174 14.2692 23.0653C13.9303 23.3733 13.4326 23.6601 12.9952 23.6798C11.3824 23.7515 9.76536 23.7164 8.1483 23.7009C7.63366 23.6967 7.19073 23.4829 6.88419 23.0498C6.53125 22.5507 6.4736 22.0079 6.73092 21.4553C7.01355 20.845 7.51554 20.5385 8.18486 20.5329C9.40257 20.5244 10.6203 20.5357 11.838 20.5216C12.0602 20.5188 12.3498 20.509 12.4904 20.3782C13.268 19.6456 14.0105 18.875 14.7853 18.0974C14.0119 17.3283 13.2835 16.6323 12.5903 15.9039C12.295 15.5931 11.9941 15.4483 11.554 15.4609C10.4305 15.4933 9.30555 15.4877 8.18205 15.4638C7.25822 15.4441 6.60999 14.7987 6.5889 13.9325C6.5664 13.048 7.15417 12.4026 8.08362 12.3C8.31282 12.2732 8.54624 12.2676 8.75997 12.255ZM6.92637 8.59761C13.7714 15.4384 20.5771 22.2399 27.4405 29.099C27.8075 28.7433 28.2054 28.358 28.5513 28.0219C21.6626 21.1305 14.8485 14.3149 7.99785 7.46145C7.66178 7.81861 7.28212 8.22076 6.92637 8.59761ZM26.2495 12.4856C25.971 13.3756 25.971 13.3771 25.0739 13.3785C23.9279 13.3799 22.7819 13.3672 21.6373 13.3883C21.373 13.3939 21.0355 13.4333 20.8597 13.595C20.0076 14.3867 19.1991 15.2261 18.361 16.0628C18.6029 16.3356 18.7998 16.5563 19.0346 16.8193C19.7433 16.0993 20.3915 15.4595 21.0158 14.7972C21.3097 14.4837 21.6331 14.3445 22.0662 14.3543C23.0477 14.3768 24.0306 14.3515 25.0121 14.3684C25.3073 14.374 25.6631 14.3684 25.8782 14.5245C26.0779 14.6693 26.1257 15.0222 26.2649 15.3372C26.8442 14.8662 27.4137 14.4021 28.0212 13.9072C27.3856 13.3981 26.826 12.9496 26.2495 12.4856ZM15.5558 18.8019C14.774 19.6076 14.0555 20.3093 13.3819 21.0545C12.9882 21.4904 12.5593 21.6676 11.9674 21.6479C10.7272 21.6086 9.48554 21.6381 8.24392 21.6381C7.91207 21.6381 7.64913 21.7928 7.71803 22.1274C7.7574 22.3144 8.01472 22.4874 8.21158 22.5985C8.33672 22.6688 8.53218 22.6182 8.69669 22.6182C9.70349 22.6182 10.7173 22.5436 11.7157 22.6393C12.7998 22.7419 13.5858 22.4002 14.2734 21.5678C14.8598 20.8577 15.5685 20.2474 16.2083 19.6062C15.9706 19.3138 15.7977 19.0986 15.5558 18.8019ZM26.1538 23.6095C26.8443 23.0513 27.3997 22.6027 28.0184 22.1021C27.3997 21.6001 26.8232 21.1319 26.2031 20.6271C26.0442 21.5537 25.9584 21.6268 25.1485 21.6339C24.7941 21.6367 24.4398 21.6339 24.0854 21.6339C24.0601 21.7154 24.0348 21.7984 24.0095 21.8799C24.4257 22.126 24.8208 22.5225 25.2624 22.5802C25.86 22.6603 26.1777 22.8403 26.1538 23.6095ZM10.841 14.3571C10.8635 14.2924 10.8874 14.2278 10.9099 14.1631C10.564 13.903 10.2505 13.5092 9.86519 13.415C9.33508 13.2857 8.7445 13.3447 8.18908 13.408C8.0091 13.4291 7.86005 13.7173 7.69693 13.8833C7.86286 14.0408 8.02175 14.3262 8.1947 14.3346C9.07635 14.3824 9.9594 14.3571 10.841 14.3571Z" fill="white"/>
</svg>
