<svg width="41" height="36" viewBox="0 0 41 36" fill="none" xmlns="http://www.w3.org/2000/svg">
<path d="M38.4852 25.8142C37.5017 24.456 36.281 24.1091 34.7658 24.744C31.8531 25.9631 28.9535 27.2165 26.0376 28.4274C25.5957 28.6107 25.0934 28.7285 24.6172 28.7383C22.6831 28.7727 20.7456 28.7547 18.8115 28.7498C18.6528 28.7498 18.4941 28.717 18.2797 28.6925C18.2797 28.303 18.2797 27.9398 18.2797 27.4783C18.5644 27.4783 18.8295 27.4783 19.0929 27.4783C20.8373 27.4783 22.5816 27.48 24.3276 27.4767C24.573 27.4767 24.8234 27.4865 25.0607 27.439C25.6939 27.3131 26.1374 26.7452 26.0965 26.1545C26.0539 25.5393 25.5777 25.0484 24.9118 25.0255C23.9594 24.9927 22.9989 24.9469 22.0514 25.0238C20.0895 25.1825 18.2666 24.8144 16.5599 23.8309C14.5685 22.6839 12.4331 22.1782 10.1324 22.427C9.81493 22.4613 9.4893 22.4319 9.11621 22.4319C9.11621 21.995 9.11621 21.6284 9.11621 21.149C11.124 21.2422 13.1432 20.8053 15.061 21.7495C15.9397 22.1815 16.8724 22.5088 17.7332 22.9719C18.8475 23.574 19.9995 23.8178 21.2627 23.7426C22.3493 23.6771 23.4423 23.7246 24.5338 23.7295C26.2061 23.7377 27.0423 24.4347 27.3532 26.0645C27.3728 26.1643 27.4137 26.2593 27.4661 26.4229C27.7786 26.3018 28.0535 26.2036 28.3219 26.0907C30.3788 25.2251 32.4242 24.3267 34.4958 23.4971C36.7785 22.5824 39.197 23.6984 40.0086 25.9876C40.0528 26.1136 40.0675 26.2494 40.1051 26.4311C39.8679 26.5669 39.6404 26.706 39.4048 26.832C34.2323 29.5728 29.0468 32.2924 23.889 35.0644C21.9974 36.0805 20.1009 36.2933 18.0686 35.5831C16.3734 34.9891 14.6503 34.4786 12.942 33.9206C11.7262 33.5229 10.5186 33.0893 9.13094 33.32C9.13094 32.8717 9.13094 32.5117 9.13094 31.9815C10.0227 32.0633 10.9375 32.011 11.7703 32.2499C14.0989 32.9159 16.3946 33.6948 18.697 34.4442C20.1418 34.9155 21.5475 34.8566 22.8942 34.1448C27.9488 31.471 32.9969 28.7858 38.0466 26.1022C38.1857 26.0253 38.3133 25.9271 38.4852 25.8142Z" fill="white"/>
<path d="M20.2197 0.0811323C20.8382 -0.12341 21.1671 0.0582235 21.3896 0.632577C21.8838 1.90074 22.4582 3.13617 22.9589 4.40106C23.1323 4.84123 23.3794 5.02777 23.8491 5.07523C25.2318 5.21595 26.6079 5.41395 27.989 5.56449C28.3473 5.60377 28.6828 5.67576 28.6877 6.07503C28.691 6.32539 28.5699 6.65102 28.3883 6.81465C27.3819 7.73264 26.3625 8.6408 25.2989 9.4917C24.8407 9.85987 24.7605 10.2297 24.8767 10.7615C25.1532 12.0395 25.3659 13.3289 25.6507 14.6052C25.7799 15.1861 25.649 15.5527 25.0092 15.7441C23.7149 14.9669 22.3714 14.1913 21.0624 13.36C20.6058 13.0704 20.2638 13.072 19.8024 13.3453C18.6782 14.0129 17.5033 14.5922 16.3841 15.2647C15.8441 15.5903 15.4448 15.6149 15.0554 15.0176C15.3892 13.5711 15.6985 12.0787 16.0912 10.6093C16.2499 10.0153 16.1076 9.6537 15.669 9.26588C14.6676 8.38226 13.6956 7.46591 12.7416 6.52993C12.5633 6.35484 12.4454 6.03248 12.4503 5.78049C12.4569 5.36486 12.8251 5.3125 13.1654 5.28304C14.5236 5.17177 15.8801 5.01305 17.2399 4.96068C17.8372 4.93778 18.0892 4.68742 18.3101 4.1867C18.927 2.79745 19.5913 1.4262 20.2197 0.0811323ZM24.1763 13.7494C24.0045 12.8625 23.9456 12.0918 23.6985 11.3882C23.2174 10.017 23.5463 9.03352 24.785 8.25626C25.4019 7.87009 25.9027 7.2941 26.5899 6.68538C25.2596 6.51684 24.1338 6.33848 22.9998 6.24848C22.4794 6.20757 22.2373 5.98667 22.0556 5.53504C21.6253 4.45997 21.1556 3.40289 20.6369 2.18873C20.2409 3.03963 19.8237 3.72362 19.5979 4.46488C19.1904 5.80667 18.3771 6.3663 16.9748 6.26975C16.2205 6.21739 15.4514 6.39739 14.5318 6.48902C15.4007 7.29901 16.0961 8.03209 16.8815 8.65062C17.559 9.18407 17.6932 9.73878 17.4428 10.5422C17.1466 11.4897 16.9781 12.4764 16.7146 13.6153C17.8306 12.9984 18.8059 12.5189 19.7173 11.9364C20.2949 11.5666 20.7318 11.632 21.2669 11.9838C22.1734 12.5778 23.1193 13.1129 24.1763 13.7494Z" fill="white"/>
<path d="M25.8242 11.7008C26.1695 11.3408 26.428 11.0692 26.6751 10.8123C26.752 10.8467 26.7798 10.8532 26.8011 10.8696C28.4342 12.1934 28.4325 12.1934 27.9613 14.2683C27.8664 14.6872 27.7813 15.1077 27.6536 15.7115C28.4914 15.2468 29.2163 14.8966 29.884 14.4581C30.4469 14.0883 30.9018 14.121 31.4434 14.5006C32.0816 14.949 32.7819 15.3106 33.6066 15.7999C33.4217 14.7919 33.3023 13.9377 33.0994 13.1015C32.9799 12.6057 33.0895 12.2817 33.479 11.9676C34.1515 11.4243 34.7897 10.8401 35.5833 10.1529C34.3021 9.99578 33.2041 9.86324 32.1225 9.7307C31.7036 8.70799 31.2847 7.68691 30.8118 6.53166C30.4714 7.25165 30.1212 7.81618 29.9314 8.42981C29.5894 9.5327 28.8891 9.94997 27.6635 9.73561C27.6438 9.40016 27.6193 9.01398 27.5915 8.54599C28.354 8.6589 28.6404 8.22363 28.8809 7.66073C29.2769 6.73457 29.7285 5.83294 30.1507 4.91987C30.2947 4.60897 30.46 4.27679 30.8576 4.41261C31.0981 4.49442 31.3698 4.70551 31.4761 4.93132C31.9261 5.89185 32.345 6.87038 32.7197 7.862C32.9194 8.3889 33.2188 8.62781 33.785 8.67199C34.8159 8.75217 35.8451 8.88144 36.8678 9.03689C37.1215 9.07616 37.4471 9.23325 37.5666 9.43779C37.7596 9.76997 37.6009 10.1071 37.2917 10.3689C36.4604 11.0741 35.6537 11.8088 34.8126 12.5026C34.4804 12.7776 34.3593 13.0361 34.4624 13.4779C34.7013 14.5121 34.8535 15.5659 35.0908 16.6C35.2168 17.1548 35.1513 17.5638 34.4788 17.8175C33.5003 17.2333 32.4252 16.6508 31.4189 15.9668C30.833 15.5691 30.3929 15.5953 29.8103 15.957C28.7974 16.5853 27.7273 17.1237 26.6669 17.7078C26.428 17.5131 26.2202 17.3446 25.9895 17.1564C26.266 15.952 26.4968 14.7493 26.8289 13.5777C27.004 12.9592 26.914 12.5337 26.3855 12.1836C26.2022 12.0657 26.0533 11.9021 25.8242 11.7008Z" fill="white"/>
<path d="M14.1311 17.8042C13.0609 17.1644 11.9646 16.5524 10.9206 15.8635C10.4543 15.5542 10.1188 15.6 9.6721 15.8635C8.59702 16.4984 7.48922 17.0809 6.42724 17.6667C5.79234 17.4426 5.61398 17.112 5.81198 16.464C6.12125 15.4511 6.26688 14.3892 6.55651 13.3697C6.69396 12.8886 6.55651 12.6219 6.21779 12.3192C5.28344 11.4863 4.37691 10.6207 3.4082 9.72233C3.47038 9.48343 3.54402 9.20198 3.62911 8.87635C4.94309 8.75853 6.23906 8.61453 7.53995 8.53926C8.02103 8.51144 8.26648 8.33799 8.45303 7.906C8.8932 6.88165 9.39392 5.88185 9.839 4.85914C9.97482 4.5466 10.1319 4.3977 10.4854 4.37315C10.8715 4.34697 11.0188 4.5466 11.1432 4.84442C11.5097 5.72313 11.9041 6.59202 12.2493 7.47892C12.5308 8.20218 12.8237 8.86162 13.8988 8.62762C13.8595 9.11198 13.8284 9.49652 13.7924 9.93342C13.2099 9.88269 12.6911 9.88269 12.197 9.77142C11.9859 9.72397 11.7552 9.48016 11.6553 9.26743C11.261 8.43454 10.9173 7.5771 10.4788 6.54621C10.0763 7.41183 9.71137 8.12691 9.41028 8.86817C9.18119 9.43106 8.8572 9.7387 8.20921 9.75506C7.39595 9.7747 6.58597 9.89578 5.57471 9.99069C6.30288 10.6681 6.88542 11.2638 7.52686 11.7874C7.97522 12.1539 8.0734 12.545 7.93431 13.0768C7.72322 13.8884 7.54977 14.7099 7.31577 15.7146C8.19776 15.2302 8.96356 14.8555 9.67864 14.4006C10.1695 14.0864 10.5574 14.1241 11.0204 14.435C11.6962 14.8866 12.408 15.2826 13.2851 15.8128C13.1264 14.9095 13.0626 14.1633 12.8531 13.4597C12.624 12.6906 12.7811 12.1474 13.4602 11.7285C13.6893 11.5878 13.8791 11.3848 14.1327 11.1721C14.3929 11.4699 14.6384 11.7514 14.8691 12.0165C14.8429 12.1097 14.8462 12.1883 14.8118 12.2079C14.0313 12.6645 14.0493 13.3223 14.2555 14.0946C14.4796 14.9341 14.6024 15.8013 14.7709 16.6555C14.9215 17.4 14.9231 17.4 14.1311 17.8042Z" fill="white"/>
<path d="M0.0441479 35.547C0.0261482 35.2803 0.00487584 35.1215 0.00814852 34.9628C0.0114212 34.7763 0.0343299 34.5881 0.0539659 34.3165C2.13375 34.3165 4.19553 34.3165 6.32604 34.3165C6.32604 29.7822 6.32604 25.3362 6.32604 20.815C4.23808 20.815 2.17793 20.815 0.0621476 20.815C0.0621476 20.3765 0.0621476 20.0116 0.0621476 19.5894C0.283053 19.5665 0.490868 19.524 0.698682 19.524C2.47083 19.5191 4.24299 19.5142 6.0135 19.524C7.25384 19.5305 7.67275 19.956 7.67438 21.2078C7.67765 25.4328 7.67765 29.6578 7.67438 33.8828C7.67275 35.1395 7.26857 35.5453 6.01677 35.5486C4.05481 35.5503 2.09448 35.547 0.0441479 35.547Z" fill="white"/>
<path d="M4.72277 32.3349C4.70804 32.8144 4.2875 33.2185 3.82114 33.2005C3.35643 33.1842 2.94407 32.744 2.96043 32.2809C2.9768 31.8031 3.3957 31.4137 3.87678 31.4284C4.36768 31.4431 4.73749 31.8391 4.72277 32.3349Z" fill="white"/>
</svg>
