<svg width="61" height="36" viewBox="0 0 61 36" fill="none" xmlns="http://www.w3.org/2000/svg">
<path d="M9.59105 21.6216C9.59105 23.7897 9.59105 25.8039 9.59105 27.9879C10.9843 27.9879 12.343 28.0304 13.6938 27.9534C13.9777 27.9375 14.2962 27.5076 14.4899 27.2024C15.286 25.9578 16.3635 25.09 17.7726 24.6628C20.2539 23.9065 22.8625 24.8167 24.2584 27.0246C24.7175 27.7544 25.1766 28.0357 26.0417 28.0251C30.4629 27.98 34.8841 28.0039 39.3053 28.0039C39.6529 28.0039 40.0005 28.0039 40.449 28.0039C40.449 19.1748 40.449 10.4465 40.449 1.60951C30.2161 1.60951 19.9487 1.60951 9.59901 1.60951C9.59901 2.70551 9.59901 3.7856 9.59901 5.0594C10.8012 5.0594 11.9768 5.05675 13.1524 5.06206C13.638 5.06471 14.1449 5.00368 14.6014 5.12309C14.8694 5.19209 15.233 5.55035 15.2409 5.78654C15.2489 6.02272 14.9039 6.33852 14.6385 6.49509C14.4368 6.61451 14.121 6.55082 13.8583 6.55082C9.74762 6.55347 5.63428 6.55613 1.5236 6.55082C0.921195 6.55082 0.202024 6.69147 0.0189142 5.85023C-0.0951977 5.33009 0.443517 5.06471 1.56341 5.06206C3.68111 5.05675 5.79882 5.0594 8.10759 5.0594C8.10759 3.7909 8.09963 2.61263 8.11025 1.43436C8.12351 0.126054 8.23232 0.00663441 9.56451 0.00398065C19.8664 -0.00132688 30.1683 -0.00132688 40.4703 0.00398065C41.9086 0.00398065 42.0254 0.134015 42.0333 1.63074C42.0413 3.43795 42.036 5.24782 42.036 7.21957C42.6304 7.24611 43.1373 7.26203 43.6442 7.29388C45.3585 7.40799 47.1179 7.32307 48.7792 7.68132C54.2858 8.86225 58.354 13.7584 58.6141 19.395C58.7176 21.6454 58.6512 23.9038 58.6618 26.1595C58.6645 26.6876 58.6618 27.2157 58.6618 27.7969C59.0466 27.9667 59.4128 28.0994 59.7472 28.2852C60.615 28.7655 61.0555 29.7288 60.8485 30.6337C60.6283 31.5997 59.9091 32.2977 58.9086 32.3454C57.6322 32.4038 56.3531 32.3587 55.135 32.3587C52.3167 37.3876 46.5235 36.9497 44.159 32.4197C43.8352 32.4065 43.4876 32.3773 43.14 32.3773C37.437 32.3746 31.7314 32.3879 26.0285 32.3613C25.2509 32.3587 24.7785 32.5365 24.3221 33.2504C21.9921 36.9099 16.942 36.9179 14.5961 33.2663C14.1449 32.5657 13.6938 32.3295 12.9056 32.3587C11.4036 32.4144 9.89623 32.3162 8.39685 32.3932C7.10181 32.4595 6.07746 31.6316 5.90762 30.5037C5.74043 29.3785 6.31895 28.5558 7.64053 28.049C7.75995 28.0039 7.87406 27.9402 8.0439 27.8579C8.0439 25.8517 8.0439 23.8375 8.0439 21.6295C6.8099 21.6295 5.63428 21.6348 4.45866 21.6269C4.01814 21.6242 3.55904 21.6587 3.14505 21.5446C2.91152 21.4809 2.57449 21.1227 2.60103 20.9475C2.64349 20.6715 2.90886 20.3663 3.16363 20.2044C3.35735 20.0824 3.67846 20.154 3.94383 20.154C7.08324 20.1514 10.2226 20.1461 13.362 20.1593C13.9432 20.162 14.7792 19.9603 14.7712 20.8918C14.7632 21.81 13.9246 21.6083 13.3461 21.6242C12.1174 21.6428 10.8914 21.6216 9.59105 21.6216ZM42.097 27.9826C43.0816 27.8632 43.9467 28.4099 44.6606 27.2794C47.1233 23.3863 52.0752 23.4182 54.6016 27.3006C54.9412 27.8208 55.2809 28.049 55.8701 28.0065C56.292 27.9773 56.7193 28.0012 57.189 28.0012C57.189 24.9043 57.2819 21.9904 57.1571 19.0846C57.0696 17.0226 56.2734 15.1278 55.0341 13.4559C51.77 9.05597 47.2055 8.28638 42.0997 8.83837C42.097 15.1809 42.097 21.4862 42.097 27.9826ZM19.4922 34.4976C21.8727 34.4844 23.7781 32.5869 23.794 30.2145C23.8099 27.7969 21.8488 25.8517 19.4179 25.8702C17.0455 25.8888 15.1241 27.7969 15.1029 30.1561C15.0817 32.5657 17.0481 34.5109 19.4922 34.4976ZM49.5594 34.4976C52.0115 34.5215 53.9726 32.5975 53.9673 30.18C53.962 27.8128 52.0593 25.9047 49.6788 25.8729C47.2374 25.841 45.2868 27.7624 45.2895 30.1932C45.2922 32.571 47.1816 34.4737 49.5594 34.4976ZM43.7769 29.5059C37.5564 29.5059 31.4368 29.5059 25.2934 29.5059C25.2934 30.0021 25.2934 30.4188 25.2934 30.9018C31.482 30.9018 37.5989 30.9018 43.7769 30.9018C43.7769 30.4214 43.7769 29.9942 43.7769 29.5059ZM13.6248 29.4342C11.7937 29.4342 9.99973 29.4263 8.20313 29.4396C7.69891 29.4422 7.27431 29.7076 7.39373 30.233C7.45742 30.517 7.89529 30.9097 8.17394 30.9204C9.96788 30.9814 11.7671 30.9522 13.6248 30.9522C13.6248 30.4055 13.6248 29.9889 13.6248 29.4342ZM55.4587 30.9575C56.5176 30.9575 57.5207 30.9734 58.5238 30.9495C59.0095 30.9389 59.3969 30.7293 59.381 30.164C59.3651 29.5935 58.9617 29.4369 58.4761 29.4342C57.4756 29.4263 56.4751 29.4316 55.4561 29.4316C55.4587 29.9968 55.4587 30.4161 55.4587 30.9575Z" fill="white"/>
<path d="M14.7868 16.6059C12.8018 16.6059 10.8195 16.6059 8.83445 16.6059C8.61419 16.6059 8.39393 16.6085 8.17366 16.6059C7.58984 16.5979 6.87597 16.6059 6.90516 15.823C6.93436 15.0428 7.66414 15.1171 8.23735 15.1145C12.6028 15.1118 16.9682 15.1145 21.3337 15.1145C21.4664 15.1145 21.5991 15.1145 21.7291 15.1198C22.228 15.141 22.6712 15.3666 22.5863 15.8814C22.5412 16.1547 22.1059 16.4281 21.7875 16.5687C21.5274 16.6828 21.1798 16.6059 20.8719 16.6059C18.8445 16.6059 16.8143 16.6059 14.7868 16.6059Z" fill="white"/>
<path d="M18.0968 11.5718C16.2391 11.5718 14.3815 11.5744 12.5239 11.5691C12.216 11.5691 11.8657 11.6355 11.6083 11.516C11.3323 11.386 10.9714 11.0702 10.9688 10.834C10.9661 10.5952 11.3244 10.29 11.5951 10.1361C11.7994 10.0193 12.1125 10.0857 12.3779 10.0857C16.2259 10.083 20.0738 10.0804 23.9218 10.0857C25.0921 10.0883 25.5326 10.3112 25.4291 10.8844C25.2673 11.7761 24.5162 11.5585 23.9377 11.5638C21.9899 11.585 20.042 11.5718 18.0968 11.5718Z" fill="white"/>
<path d="M21.0128 21.619C19.9061 21.619 18.8022 21.6296 17.6956 21.6137C17.1887 21.6084 16.6526 21.5208 16.6632 20.8627C16.6739 20.2099 17.1993 20.1435 17.7141 20.1435C19.8371 20.1435 21.9575 20.1409 24.0805 20.1435C24.598 20.1435 25.1155 20.2178 25.1102 20.8813C25.1049 21.5474 24.5635 21.6057 24.0619 21.6137C23.0482 21.6296 22.0318 21.619 21.0128 21.619Z" fill="white"/>
<path d="M5.95775 11.5611C5.20674 11.5611 4.44776 11.6248 3.70736 11.5292C3.40218 11.4894 2.959 11.1471 2.89796 10.8711C2.77854 10.3297 3.2403 10.1015 3.72859 10.0962C5.23062 10.0803 6.73531 10.0538 8.23468 10.1228C8.52925 10.136 8.99897 10.5075 9.05204 10.7809C9.15554 11.301 8.70705 11.5452 8.2108 11.5558C7.45978 11.577 6.70877 11.5637 5.95775 11.5611Z" fill="white"/>
<path d="M19.7842 6.54015C19.1659 6.54015 18.5476 6.56404 17.9319 6.53219C17.502 6.51096 17.157 6.31193 17.1544 5.81037C17.149 5.3035 17.4993 5.09385 17.9266 5.08589C19.2508 5.062 20.5751 5.04343 21.8966 5.10977C22.1541 5.12304 22.3902 5.51845 22.637 5.73606C22.3929 6.00144 22.1779 6.45258 21.8993 6.49769C21.212 6.60915 20.4928 6.53484 19.7869 6.53484C19.7842 6.53484 19.7842 6.5375 19.7842 6.54015Z" fill="white"/>
<path d="M2.45529 16.5767C1.88207 16.5767 1.29559 16.6457 0.740953 16.5449C0.467615 16.4944 0.250006 16.1309 0.00585938 15.9106C0.25266 15.6479 0.486191 15.1808 0.751568 15.1622C1.93515 15.0826 3.132 15.0932 4.31823 15.1622C4.56768 15.1755 4.93125 15.5391 4.99759 15.8045C5.11701 16.2715 4.74549 16.5395 4.30231 16.5687C3.69194 16.6059 3.07361 16.5767 2.45529 16.5767Z" fill="white"/>
<path d="M49.5088 20.9634C48.0041 20.9634 46.5021 20.9767 44.9974 20.9581C43.9969 20.9448 43.8006 20.7883 43.7926 19.8223C43.7661 17.081 43.7846 14.3396 43.7846 11.5956C43.7846 10.9083 44.0792 10.5819 44.817 10.5262C49.8803 10.1467 54.2591 13.4241 55.2648 18.384C55.2914 18.514 55.3206 18.644 55.3391 18.7741C55.6151 20.714 55.4559 20.9024 53.4868 20.9156C52.1599 20.9236 50.833 20.9183 49.5062 20.9183C49.5088 20.9316 49.5088 20.9475 49.5088 20.9634ZM45.3185 19.5569C48.2509 19.4906 51.0347 19.602 53.7973 19.395C53.9804 15.9956 49.9998 11.3727 45.3185 12.145C45.3185 14.5466 45.3185 16.9562 45.3185 19.5569Z" fill="white"/>
<path d="M19.3861 27.818C20.6838 27.7835 21.7718 28.7919 21.8355 30.087C21.9019 31.4006 20.7873 32.5709 19.463 32.5762C18.176 32.5815 17.1224 31.5306 17.1038 30.2276C17.0826 28.9034 18.0804 27.8525 19.3861 27.818ZM20.36 30.1905C20.3282 29.596 19.9726 29.2829 19.4418 29.2855C18.9084 29.2882 18.5342 29.6226 18.5422 30.1878C18.5475 30.7504 18.9004 31.0662 19.4577 31.0662C20.0203 31.0636 20.3308 30.7451 20.36 30.1905Z" fill="white"/>
<path d="M49.5831 27.8208C50.8941 27.8022 51.9423 28.8133 51.9742 30.1243C52.006 31.4299 51.0002 32.5206 49.7158 32.5737C48.3995 32.6294 47.2239 31.5042 47.2266 30.1906C47.2266 28.9115 48.2934 27.8394 49.5831 27.8208ZM49.5274 29.2804C49.0099 29.3865 48.6808 29.6864 48.7313 30.2782C48.7764 30.8089 49.1107 31.0558 49.6176 31.069C50.1298 31.0823 50.5624 30.6391 50.5411 30.1508C50.5252 29.6731 50.0396 29.2432 49.5274 29.2804Z" fill="white"/>
</svg>
