<svg width="110" height="110" viewBox="0 0 110 110" fill="none" xmlns="http://www.w3.org/2000/svg">
<circle cx="55" cy="55" r="55" fill="#39BCDF" fill-opacity="0.06"/>
<circle cx="55" cy="55" r="54.5" stroke="#39BCDF" stroke-opacity="0.2" stroke-dasharray="6 6"/>
<path d="M34.2023 72.9618C30.7173 72.5686 30.1429 71.915 30.1403 68.3483C30.1403 67.8454 30.1403 67.3424 30.1403 66.7373C29.7191 66.7373 29.3948 66.745 29.0706 66.7373C26.9209 66.6786 25.1541 65.0548 25.0673 62.8847C24.9805 60.6763 24.9729 58.4577 25.0724 56.2518C25.1695 54.0919 26.9515 52.5064 29.1268 52.4579C29.4178 52.4502 29.7089 52.4579 30.1429 52.4579C30.1429 50.4639 30.1557 48.5185 30.1378 46.573C30.1276 45.4267 30.4978 44.4463 31.4756 43.8438C31.9913 43.5246 32.6475 43.374 33.2602 43.2795C33.8729 43.1851 34.5112 43.2591 35.1903 43.2591C35.1903 42.5494 35.1903 41.9724 35.1903 41.2166C34.5623 41.2166 33.9393 41.2345 33.3189 41.2141C31.4347 41.1503 30.2067 39.9554 30.1531 38.0917C30.1174 36.7743 30.1174 35.4543 30.1531 34.1369C30.2042 32.2732 31.4347 31.0196 33.3113 31.0145C41.3075 30.9915 49.3064 30.9992 57.3027 31.0145C57.752 31.0145 58.2294 31.1422 58.6481 31.3234C60.9868 32.3344 63.3024 33.4016 65.6462 34.4076C67.2418 35.0918 68.0359 36.2356 67.9414 37.9895C67.9082 38.6253 67.9567 39.2661 67.9286 39.9044C67.8878 40.8822 67.5916 41.1911 66.6087 41.2166C65.3883 41.2473 64.1654 41.2243 62.8888 41.2243C62.8888 41.9315 62.8888 42.5085 62.8888 43.2591C64.4947 43.2591 66.0955 43.2183 67.6937 43.277C68.3958 43.3025 69.1413 43.4149 69.7796 43.688C70.6962 44.0787 71.1379 44.9161 71.3293 45.8914C71.7914 48.2249 72.3046 50.5482 72.731 52.8894C72.8484 53.5353 73.1369 53.8238 73.7216 54.0306C76.3257 54.9472 78.9171 55.8995 81.5111 56.8441C83.7246 57.6509 84.271 58.4398 84.2735 60.8371C84.2761 63.6021 84.2786 66.3671 84.2735 69.1321C84.2684 71.7082 83.2497 72.7703 80.6966 72.8877C80.5307 72.8954 80.3673 72.9286 80.2192 72.9464C78.6056 77.1642 76.461 78.9794 73.0986 78.9998C69.6724 79.0202 67.5406 77.2484 65.8402 72.9362C60.0881 72.9362 54.3181 72.9362 48.5685 72.9362C46.9295 77.1769 44.7925 78.982 41.4326 78.9998C38.0038 79.01 35.8618 77.2229 34.2023 72.9618ZM37.3017 43.157C45.2112 43.157 52.965 43.157 60.7136 43.157C60.7136 42.4855 60.7136 41.9085 60.7136 41.2141C60.2362 41.2141 59.8226 41.2141 59.4064 41.2141C56.7282 41.2141 54.0475 41.2166 51.3693 41.2141C50.0646 41.2115 49.5311 40.8899 49.5668 40.1418C49.6 39.4423 50.0902 39.1665 51.3386 39.1665C55.7197 39.164 60.1008 39.1665 64.4794 39.1665C64.9287 39.1665 65.3781 39.1665 65.8147 39.1665C65.9781 36.8024 65.9781 36.8024 64.0377 35.942C62.174 35.1173 60.3204 34.2646 58.4362 33.4884C57.8286 33.2382 57.1393 33.0748 56.4857 33.0672C53.1692 33.0263 49.8502 33.0468 46.5337 33.0468C42.2803 33.0468 38.0268 33.0417 33.7734 33.0493C32.4407 33.0519 32.2109 33.2893 32.193 34.6118C32.1803 35.5896 32.1828 36.5675 32.193 37.5453C32.2083 38.9265 32.4356 39.1563 33.85 39.1614C37.0822 39.1691 40.3144 39.164 43.5466 39.164C43.8862 39.164 44.2921 39.0669 44.55 39.2176C44.9074 39.4244 45.321 39.7869 45.4027 40.152C45.5329 40.7162 45.1065 41.1018 44.527 41.1835C44.1517 41.2371 43.7636 41.2141 43.3807 41.2141C41.3918 41.2166 39.4055 41.2141 37.3732 41.2141C37.3375 41.4873 37.3043 41.6456 37.2992 41.8064C37.2941 42.2277 37.3017 42.6489 37.3017 43.157ZM65.8938 70.7584C66.8206 67.1867 68.9907 64.848 72.8101 64.7459C76.8746 64.6387 79.1877 67.0233 80.1937 70.7584C81.7664 70.8478 82.1723 70.6793 82.1978 69.7449C82.254 67.7586 82.2157 65.7697 82.2157 63.7528C81.9349 63.7221 81.7715 63.694 81.6106 63.6864C79.2082 63.5638 78.1563 62.4762 78.141 60.084C78.1359 59.3308 78.141 58.5777 78.141 57.8143C76.5504 57.2322 75.0492 56.7548 73.6118 56.1318C72.6595 55.7182 71.9421 55.7361 71.314 56.6245C70.7779 57.3854 70.0298 57.5973 69.0954 57.5768C66.3738 57.5207 63.6496 57.5539 60.928 57.559C60.563 57.559 60.1979 57.6049 59.8277 57.6305C59.8277 62.055 59.8277 66.3773 59.8277 70.761C61.8701 70.7585 63.8539 70.7584 65.8938 70.7584ZM57.6524 57.6458C52.5284 57.6458 47.4988 57.6458 42.4718 57.6458C42.4718 60.0585 42.4718 62.3792 42.4718 64.7434C45.7857 65.4863 47.7669 67.539 48.497 70.7584C51.5863 70.7584 54.5887 70.7584 57.655 70.7584C57.6524 66.3773 57.6524 62.0575 57.6524 57.6458ZM42.4947 45.3552C42.4947 48.7866 42.4947 52.1132 42.4947 55.4016C47.6137 55.4016 52.6407 55.4016 57.6422 55.4016C57.6422 52.0035 57.6422 48.7049 57.6422 45.3552C52.5794 45.3552 47.583 45.3552 42.4947 45.3552ZM59.8226 55.5037C62.945 55.5037 65.9219 55.5191 68.8962 55.4961C70.0579 55.4884 70.9413 54.434 70.7319 53.3234C70.3081 51.069 69.8588 48.8197 69.3941 46.5705C69.1771 45.5161 68.9167 45.3093 67.829 45.3041C65.4904 45.2914 63.1492 45.2965 60.8106 45.3041C60.4864 45.3041 60.1621 45.3552 59.82 45.3858C59.8226 48.7687 59.8226 52.0673 59.8226 55.5037ZM32.193 55.4118C34.9886 55.4118 37.6388 55.4118 40.2838 55.4118C40.2838 52.0188 40.2838 48.7176 40.2838 45.3093C37.889 45.3093 35.5605 45.2914 33.2321 45.3195C32.5096 45.3297 32.193 45.8173 32.193 46.5143C32.193 49.4453 32.193 52.3788 32.193 55.4118ZM32.1905 57.6126C32.1905 58.0466 32.1905 58.3785 32.1905 58.713C32.1905 62.152 32.1879 65.591 32.193 69.03C32.1956 70.7329 32.5453 71.0061 34.3172 70.6589C35.004 67.3935 37.1128 65.4787 40.2838 64.7229C40.2838 62.3103 40.2838 59.9921 40.2838 57.6151C37.603 57.6126 34.9861 57.6126 32.1905 57.6126ZM41.4122 66.7475C38.6013 66.7297 36.2958 69.0045 36.278 71.8129C36.2601 74.6213 38.54 76.9344 41.3407 76.9471C44.1491 76.9599 46.4546 74.6851 46.475 71.8793C46.498 69.0734 44.2181 66.7654 41.4122 66.7475ZM78.1333 71.8793C78.1537 69.0734 75.8764 66.7654 73.068 66.7475C70.257 66.7297 67.9516 69.0045 67.9337 71.8129C67.9159 74.6213 70.1958 76.9344 72.9965 76.9471C75.8075 76.9599 78.1129 74.6851 78.1333 71.8793ZM30.1071 54.817C28.5421 54.2195 27.2221 54.8399 27.1379 56.3335C27.0153 58.4909 27.0153 60.6661 27.1353 62.8235C27.2221 64.3885 28.6519 65.0344 30.1071 64.294C30.1071 61.1742 30.1071 58.039 30.1071 54.817ZM82.1646 61.5316C82.3051 59.2593 82.111 58.9862 80.2498 58.7589C80.0583 61.478 80.2192 61.7205 82.1646 61.5316Z" fill="#F7C600"/>
<path d="M47.731 41.3366C46.9626 41.2064 46.4596 40.7111 46.5081 40.1468C46.5566 39.5647 46.9013 39.2252 47.4859 39.1894C48.0502 39.1537 48.6246 39.6898 48.4816 40.2209C48.3693 40.6294 47.9889 40.9664 47.731 41.3366Z" fill="#F7C600"/>
<path d="M63.8282 61.6108C63.4478 61.6108 63.0061 61.7334 62.7049 61.5802C62.3474 61.3964 61.9441 61.016 61.8598 60.6509C61.7296 60.0917 62.1483 59.6756 62.7227 59.6271C63.4351 59.5658 64.1576 59.576 64.8725 59.6118C65.4494 59.6398 65.835 59.982 65.8554 60.5692C65.8758 61.2228 65.475 61.57 64.8393 61.6261C64.5048 61.6542 64.1652 61.6312 63.8257 61.6312C63.8282 61.6236 63.8282 61.6159 63.8282 61.6108Z" fill="#F7C600"/>
<path d="M46.46 61.6262C46.123 61.6262 45.7809 61.6517 45.4464 61.6211C44.8694 61.5649 44.4864 61.2407 44.4711 60.6535C44.4558 59.9973 44.8566 59.6373 45.4949 59.6067C46.1689 59.5735 46.8481 59.5735 47.5195 59.6118C48.0965 59.645 48.4795 59.9871 48.4948 60.5769C48.5101 61.2305 48.1067 61.5751 47.471 61.6262C47.1366 61.6543 46.797 61.6313 46.4574 61.6313C46.46 61.6287 46.46 61.6262 46.46 61.6262Z" fill="#F7C600"/>
<path d="M41.4326 74.9021C39.745 74.9328 38.3332 73.5567 38.3204 71.8691C38.3076 70.1789 39.694 68.7875 41.3867 68.79C43.0232 68.7926 44.3916 70.1228 44.4351 71.7567C44.4785 73.4494 43.1202 74.8715 41.4326 74.9021ZM42.3696 71.5193C42.1526 71.3661 41.8181 70.9883 41.4096 70.8759C40.8863 70.7304 40.3476 71.3099 40.3833 71.8665C40.4216 72.4461 40.7586 72.7882 41.3356 72.8392C41.8922 72.8878 42.3875 72.3822 42.3696 71.5193Z" fill="#F7C600"/>
<path d="M76.0928 71.9023C76.0596 73.5899 74.635 74.9507 72.9474 74.9022C71.2649 74.8537 69.9169 73.4087 69.9807 71.7236C70.0445 70.0897 71.4206 68.7774 73.0623 68.7901C74.7499 68.8029 76.126 70.2148 76.0928 71.9023ZM74.0324 71.5373C73.818 71.379 73.4886 70.996 73.0853 70.876C72.5644 70.7228 72.0155 71.2922 72.041 71.8513C72.0666 72.4334 72.4036 72.7781 72.9755 72.8393C73.5295 72.9006 74.0376 72.4002 74.0324 71.5373Z" fill="#F7C600"/>
</svg>
