<svg width="110" height="110" viewBox="0 0 110 110" fill="none" xmlns="http://www.w3.org/2000/svg">
<g id="icon / bg">
<g id="icon_bg">
<circle cx="55" cy="55" r="55" fill="#39BCDF" fill-opacity="0.06"/>
<circle cx="55" cy="55" r="54.5" stroke="#39BCDF" stroke-opacity="0.2" stroke-dasharray="6 6"/>
</g>
<g id="icon">
<path id="Vector" d="M52.7514 76.5269C51.8341 78.9254 50.4992 79.9848 48.5312 79.9998C46.5224 80.0149 45.153 78.9427 44.2551 76.5936C38.5601 76.5936 32.8285 76.5936 27.0172 76.5936C27.0172 76.0359 27.0172 75.5623 27.0172 74.9615C31.5711 74.9615 36.1077 74.9615 40.7025 74.9615C40.7025 73.1658 40.7025 71.4907 40.7025 69.7058C36.1529 69.7058 31.6163 69.7058 27.0065 69.7058C27.0065 69.1481 27.0065 68.7003 27.0065 68.1189C31.5151 68.1189 36.0474 68.1189 40.6702 68.1189C40.6702 62.8481 40.6702 57.7064 40.6702 52.4571C36.14 52.4571 31.6012 52.4571 27 52.4571C27 51.9037 27 51.4537 27 50.8681C29.8012 50.8681 32.6132 50.8681 35.4855 50.8681C35.5307 50.4719 35.5845 50.2006 35.5867 49.9293C35.5953 48.4221 35.6383 46.9128 35.5716 45.4078C35.5371 44.5939 35.7891 44.131 36.5039 43.6982C41.9621 40.3888 47.3879 37.0278 52.8246 33.684C54.8076 32.4632 56.7906 31.2424 58.8103 30C59.1634 30.2045 59.5014 30.3919 59.833 30.5964C66.9491 34.9737 74.0565 39.3639 81.1898 43.7176C81.8616 44.1266 82.0877 44.5616 82.0812 45.3389C82.0403 49.6085 82.0618 53.8803 82.0618 58.1499C82.0618 58.5031 82.0618 58.8583 82.0618 59.2911C81.5149 59.2911 81.0391 59.2911 80.4341 59.2911C80.4341 55.8762 80.4341 52.4851 80.4341 48.9927C70.3144 48.9927 60.3196 48.9927 50.2645 48.9927C50.2645 48.4415 50.2645 47.9937 50.2645 47.4102C60.2744 47.4102 70.2627 47.4102 80.3393 47.4102C80.3393 46.7319 80.3393 46.1872 80.3393 45.5929C65.9952 45.5929 51.692 45.5929 37.3178 45.5929C37.3178 46.1377 37.3178 46.6587 37.3178 47.309C40.9781 47.309 44.6513 47.309 48.4042 47.309C48.4042 47.914 48.4042 48.3898 48.4042 48.9798C44.7159 48.9798 41.0384 48.9798 37.3049 48.9798C37.3049 49.6107 37.3049 50.1339 37.3049 50.8078C38.9757 50.8078 40.6357 50.8078 42.341 50.8078C42.3927 51.4408 42.4336 51.9317 42.4831 52.5497C53.927 52.5497 65.3536 52.5497 76.8664 52.5497C76.8664 60.0598 76.8664 67.4407 76.8664 74.8969C78.0463 74.8969 79.1379 74.8969 80.4039 74.8969C80.4039 70.3237 80.4039 65.7612 80.4039 61.1492C81.0262 61.1492 81.4762 61.1492 81.9929 61.1492C81.9929 66.2694 81.9929 71.3464 81.9929 76.5376C72.2479 76.5269 62.5093 76.5269 52.7514 76.5269ZM39.6475 43.696C39.6754 43.7434 39.7056 43.7929 39.7336 43.8403C52.4779 43.8403 65.2223 43.8403 77.9688 43.8403C77.9838 43.7886 78.001 43.7369 78.0161 43.6853C71.6213 39.7515 65.2266 35.8156 58.8382 31.8861C52.3832 35.8565 46.0142 39.7773 39.6475 43.696ZM58.0394 74.9099C58.0394 72.578 58.0394 70.3689 58.0394 68.0479C59.215 68.0479 60.2765 68.0479 61.493 68.0479C61.493 65.7053 61.493 63.4725 61.493 61.2289C64.3955 61.2289 67.1407 61.2289 70.0237 61.2289C70.0237 63.5241 70.0237 65.7591 70.0237 68.0909C71.2209 68.0909 72.2802 68.0909 73.473 68.0909C73.473 70.4271 73.473 72.662 73.473 74.8754C74.1276 74.8754 74.6443 74.8754 75.2537 74.8754C75.2472 69.0792 75.2666 63.3691 75.2407 57.6633C64.2038 57.6633 53.3521 57.6633 42.4637 57.6633C42.4637 58.2554 42.4637 58.7808 42.4637 59.4418C42.8578 59.4418 43.2066 59.4418 43.5554 59.4418C45.0626 59.4418 46.5676 59.459 48.0748 59.4332C48.6195 59.4224 49.0157 59.5904 49.3989 59.9823C51.4616 62.0772 53.5416 64.1593 55.6387 66.2199C56.0564 66.6311 56.2287 67.051 56.22 67.6345C56.1899 69.751 56.205 71.8653 56.2114 73.9819C56.2114 74.2876 56.2588 74.5955 56.2846 74.912C56.8703 74.9099 57.3612 74.9099 58.0394 74.9099ZM42.468 55.9193C53.4339 55.9193 64.2835 55.9193 75.1611 55.9193C75.1611 55.3078 75.1611 54.7631 75.1611 54.2076C64.2189 54.2076 53.3693 54.2076 42.468 54.2076C42.468 54.7911 42.468 55.3143 42.468 55.9193ZM44.2702 74.9163C44.886 72.9591 46.0874 71.6823 48.1695 71.5445C50.6155 71.383 52.0021 72.7847 52.7514 74.9056C53.3607 74.9056 53.8882 74.9056 54.4846 74.9056C54.4846 72.5802 54.4846 70.3108 54.4846 67.9983C50.4518 67.9983 46.4879 67.9983 42.4939 67.9983C42.4939 70.3302 42.4939 72.6017 42.4939 74.9163C43.0989 74.9163 43.6264 74.9163 44.2702 74.9163ZM53.3629 66.2952C51.5758 64.4974 49.9674 62.8739 48.3482 61.2612C48.2341 61.1471 48.036 61.061 47.8767 61.0588C46.0939 61.0437 44.309 61.0502 42.496 61.0502C42.496 62.8567 42.496 64.5533 42.496 66.2952C46.0745 66.2952 49.5755 66.2952 53.3629 66.2952ZM63.1445 67.9811C64.9316 67.9811 66.5959 67.9811 68.2926 67.9811C68.2926 66.2242 68.2926 64.5533 68.2926 62.8502C67.6854 62.8502 67.1407 62.8502 66.5206 62.8502C66.5206 63.7136 66.5206 64.4952 66.5206 65.3263C65.9672 65.3263 65.4914 65.3263 64.8799 65.3263C64.8799 64.4521 64.8799 63.6469 64.8799 62.8308C64.2254 62.8308 63.7065 62.8308 63.1466 62.8308C63.1445 64.5706 63.1445 66.2457 63.1445 67.9811ZM63.1079 72.3024C62.4835 72.2744 62.0076 72.2551 61.5081 72.2314C61.4651 71.3055 61.4263 70.5046 61.3918 69.7467C60.7351 69.7467 60.2184 69.7467 59.7189 69.7467C59.7189 71.5058 59.7189 73.1787 59.7189 74.8969C61.4478 74.8969 63.1143 74.8969 64.8261 74.8969C64.8261 73.1357 64.8261 71.4412 64.8261 69.7273C64.2254 69.7273 63.7065 69.7273 63.11 69.7273C63.1079 70.5713 63.1079 71.3486 63.1079 72.3024ZM69.9505 69.6993C69.9505 70.6187 69.9505 71.4261 69.9505 72.2357C69.3821 72.2357 68.9299 72.2357 68.3421 72.2357C68.3421 71.3701 68.3421 70.5627 68.3421 69.7187C67.6897 69.7187 67.1708 69.7187 66.6218 69.7187C66.6218 71.4756 66.6218 73.1723 66.6218 74.8883C68.3637 74.8883 70.0302 74.8883 71.7075 74.8883C71.7075 73.1185 71.7075 71.4218 71.7075 69.6993C71.1218 69.6993 70.6309 69.6993 69.9505 69.6993ZM51.0999 75.7345C51.0891 74.3005 49.9394 73.1335 48.5205 73.1163C47.0671 73.0991 45.8614 74.3134 45.8721 75.7797C45.8829 77.2072 47.037 78.3764 48.4602 78.3979C49.9135 78.4216 51.1107 77.2159 51.0999 75.7345Z" fill="#F7C600"/>
<path id="Vector_2" d="M38.9523 71.5725C38.9523 72.1043 38.9523 72.5522 38.9523 73.0539C36.1144 73.0539 33.3305 73.0539 30.4668 73.0539C30.4668 72.5802 30.4668 72.1065 30.4668 71.5725C33.2788 71.5725 36.0628 71.5725 38.9523 71.5725Z" fill="#F7C600"/>
<path id="Vector_3" d="M56.2061 40.4448C56.2061 41.0477 56.2061 41.4999 56.2061 42.0166C55.6613 42.0166 55.1511 42.0166 54.5762 42.0166C54.5762 41.5494 54.5762 41.1037 54.5762 40.5245C55.0649 40.5008 55.5688 40.4771 56.2061 40.4448Z" fill="#F7C600"/>
<path id="Vector_4" d="M59.6439 40.5244C59.6439 41.0347 59.6439 41.4847 59.6439 42.0122C59.125 42.0122 58.6147 42.0122 58.0312 42.0122C58.0312 41.5385 58.0312 41.0648 58.0312 40.5244C58.5717 40.5244 59.0841 40.5244 59.6439 40.5244Z" fill="#F7C600"/>
<path id="Vector_5" d="M63.0429 42.0445C62.5175 42.0445 62.033 42.0445 61.4775 42.0445C61.4775 41.5385 61.4775 41.0648 61.4775 40.5244C61.9835 40.5244 62.4658 40.5244 63.0429 40.5244C63.0429 40.9916 63.0429 41.4632 63.0429 42.0445Z" fill="#F7C600"/>
<path id="Vector_6" d="M46.6926 70.4807C45.5686 70.4807 44.5093 70.4807 43.3789 70.4807C43.3789 69.9984 43.3789 69.5527 43.3789 69.0166C44.4555 69.0166 45.5385 69.0166 46.6926 69.0166C46.6926 69.4645 46.6926 69.9123 46.6926 70.4807Z" fill="#F7C600"/>
<path id="Vector_7" d="M47.6699 75.0304C48.2039 75.0304 48.6905 75.0304 49.2611 75.0304C49.2611 75.4847 49.2611 75.9584 49.2611 76.4967C48.7422 76.4967 48.2297 76.4967 47.6699 76.4967C47.6699 75.9885 47.6699 75.5428 47.6699 75.0304Z" fill="#F7C600"/>
</g>
</g>
</svg>
