<svg width="110" height="110" viewBox="0 0 110 110" fill="none" xmlns="http://www.w3.org/2000/svg">
<g id="icon / bg">
<g id="icon_bg">
<circle cx="55" cy="55" r="55" fill="#39BCDF" fill-opacity="0.06"/>
<circle cx="55" cy="55" r="54.5" stroke="#39BCDF" stroke-opacity="0.2" stroke-dasharray="6 6"/>
</g>
<g id="icon">
<path id="Vector" d="M63.0285 64.7859C61.3346 60.8812 59.7037 57.1177 58.051 53.3065C55.8425 55.046 53.7555 56.7182 51.6381 58.3491C50.3503 59.3437 49.03 60.2971 47.6922 61.2244C47.2492 61.5327 47.0842 61.8498 47.1298 62.3862C47.3513 64.9813 47.5163 67.5808 47.7487 70.1759C47.8052 70.8122 47.6835 71.2878 47.2101 71.7243C46.5195 72.3628 45.8876 73.0621 45.2035 73.7092C44.4456 74.4281 43.9743 74.3043 43.6703 73.301C42.8863 70.7058 42.1284 68.1042 41.3575 65.5069C41.3075 65.3375 41.2446 65.1703 41.1946 65.0226C39.5072 64.749 39.3226 64.56 39.1771 62.9465C36.8209 62.2559 34.4321 61.5566 32.0454 60.8552C31.559 60.7118 31.0638 60.5967 30.5947 60.4122C29.928 60.1494 29.8086 59.689 30.3037 59.1591C31.0942 58.3143 31.9064 57.4826 32.7729 56.7182C33.0227 56.4988 33.5048 56.4467 33.8696 56.4684C36.506 56.6204 39.1424 56.8072 41.7766 56.9983C42.2435 57.0331 42.5693 56.9549 42.8842 56.5423C45.4663 53.1436 48.081 49.7689 50.6826 46.3854C50.726 46.3289 50.7521 46.2594 50.8303 46.1161C50.4719 45.9511 50.1223 45.7839 49.7662 45.6297C43.7637 43.0324 37.7612 40.4351 31.7587 37.8377C31.5264 37.7378 31.281 37.6532 31.0747 37.5142C30.6925 37.2557 30.5166 36.867 30.864 36.5043C32.0172 35.3056 33.1834 34.1155 34.4103 32.9928C34.6188 32.8038 35.1704 32.9037 35.5353 32.9863C42.4433 34.552 49.3579 36.1026 56.2486 37.7465C57.4408 38.031 58.1965 37.8703 59.0522 36.9517C61.2086 34.6389 63.6865 32.6953 66.5292 31.262C67.9256 30.5583 69.3676 29.9872 70.9724 30.0002C72.9812 30.0176 74.2299 31.1686 74.1148 33.173C74.0475 34.3718 73.75 35.614 73.2918 36.7259C71.8867 40.1288 69.5478 42.8977 66.9158 45.4103C66.2382 46.0553 66.0688 46.6199 66.3164 47.4734C66.6378 48.5788 66.8658 49.7124 67.1612 50.9546C67.5825 50.9546 67.9712 50.9546 68.3577 50.9546C71.7607 50.9546 75.1616 50.9502 78.5646 50.9567C79.911 50.9589 80.0087 51.0545 80.0087 52.351C80.0109 61.1093 80.0109 69.8676 80.0087 78.6259C80.0087 79.9289 79.9436 79.9984 78.6797 79.9984C69.2698 80.0005 59.86 80.0005 50.4502 79.9984C49.1624 79.9984 49.0886 79.9267 49.0864 78.6585C49.0821 74.4954 49.0821 70.3345 49.0864 66.1714C49.0886 64.8445 49.1538 64.7837 50.5262 64.7837C54.255 64.7815 57.9816 64.7837 61.7103 64.7837C62.0947 64.7859 62.4834 64.7859 63.0285 64.7859ZM40.5865 63.2809C40.6712 63.3569 40.7581 63.4329 40.8428 63.5089C41.3379 63.3092 41.8548 63.1506 42.3217 62.8987C43.3055 62.3645 44.3001 61.8368 45.2252 61.2092C52.7913 56.0797 59.8123 50.2748 66.4119 43.9597C68.3795 42.0768 70.0994 39.9595 71.3329 37.5185C71.928 36.3393 72.4166 35.0645 72.7054 33.7767C73.0898 32.0742 72.0648 31.0665 70.3535 31.4509C69.1005 31.7332 67.8517 32.1849 66.7073 32.7691C64.0405 34.1307 61.7798 36.057 59.7145 38.2091C55.4255 42.6784 51.4427 47.4169 47.7009 52.3466C45.6487 55.0503 43.7637 57.8843 41.8613 60.701C41.3293 61.4893 41.0057 62.4188 40.5865 63.2809ZM65.2501 64.7186C69.7389 64.7186 74.1322 64.7186 78.558 64.7186C78.558 60.5902 78.558 56.5249 78.558 52.4704C77.0618 52.4704 75.6393 52.4704 74.1583 52.4704C74.1583 53.4259 74.1669 54.2902 74.1561 55.1546C74.1431 56.2643 74.0323 56.3707 72.89 56.3881C72.2385 56.3968 71.587 56.3989 70.9377 56.3881C69.8258 56.3685 69.702 56.2469 69.689 55.1263C69.6781 54.2338 69.6868 53.3412 69.6868 52.4704C68.1102 52.4704 66.6877 52.4704 65.2501 52.4704C65.2501 56.5792 65.2501 60.5902 65.2501 64.7186ZM63.7951 78.5738C63.7951 74.4042 63.7951 70.3692 63.7951 66.2974C62.3118 66.2974 60.8937 66.2974 59.3844 66.2974C59.3844 67.355 59.3779 68.3257 59.3866 69.2943C59.3931 69.9262 59.1043 70.2259 58.468 70.215C57.7101 70.2042 56.95 70.2194 56.1921 70.2129C55.0259 70.202 54.9239 70.0999 54.913 68.886C54.9043 68.0303 54.9108 67.1725 54.9108 66.3039C53.3472 66.3039 51.9313 66.3039 50.5501 66.3039C50.5501 70.4626 50.5501 74.5193 50.5501 78.5716C55.0064 78.5738 59.3649 78.5738 63.7951 78.5738ZM69.6846 66.2974C68.1362 66.2974 66.7203 66.2974 65.3109 66.2974C65.3109 70.4474 65.3109 74.5062 65.3109 78.5434C69.7845 78.5434 74.1713 78.5434 78.5711 78.5434C78.5711 74.4215 78.5711 70.3866 78.5711 66.2887C77.0943 66.2887 75.6784 66.2887 74.1561 66.2887C74.1561 67.2637 74.1669 68.1606 74.1539 69.0575C74.1387 70.0674 74.0149 70.1955 73.0442 70.2129C72.321 70.2281 71.5979 70.2237 70.8769 70.2129C69.8236 70.1977 69.7063 70.0847 69.689 69.0163C69.6738 68.1216 69.6846 67.2268 69.6846 66.2974ZM56.7524 39.2819C55.6514 39.0256 54.7458 38.8128 53.8359 38.6022C47.8204 37.2145 41.8027 35.8224 35.7828 34.4521C35.4636 34.3783 34.9924 34.3544 34.7795 34.5325C34.026 35.1644 33.3549 35.8919 32.5818 36.6542C39.1011 39.4752 45.4532 42.2245 51.8097 44.9738C53.4558 43.0801 55.039 41.2559 56.7524 39.2819ZM64.8744 47.4126C62.9264 49.1087 61.0849 50.7092 59.1781 52.3683C60.6614 55.7996 62.1359 59.2112 63.6105 62.6229C63.6887 62.6034 63.7669 62.5838 63.8472 62.5664C63.8472 62.2211 63.8472 61.8737 63.8472 61.5284C63.8472 58.5662 63.8429 55.6041 63.8494 52.642C63.8516 51.2586 63.6344 50.9828 65.426 50.9046C65.4846 50.9025 65.5389 50.8264 65.6453 50.7504C65.4043 49.7015 65.1567 48.6309 64.8744 47.4126ZM32.167 59.4436C34.747 60.195 37.2313 60.916 39.7287 61.6435C40.339 60.5533 40.8993 59.5544 41.5182 58.449C40.9796 58.386 40.5214 58.3143 40.0632 58.2839C38.4388 58.1732 36.7948 58.1927 35.1943 57.9365C33.8023 57.7128 32.9162 58.1819 32.167 59.4436ZM44.7257 72.0175C46.0374 71.1966 46.4674 70.2389 46.2459 68.8339C45.9875 67.1964 45.981 65.5199 45.8572 63.8586C45.8289 63.4785 45.7703 63.1007 45.716 62.6359C44.5846 63.2722 43.5878 63.8347 42.5128 64.4406C43.249 66.9597 43.9722 69.4398 44.7257 72.0175ZM71.1288 52.4335C71.1288 53.2956 71.1288 54.1013 71.1288 54.92C71.7043 54.92 72.2168 54.92 72.7163 54.92C72.7163 54.0383 72.7163 53.2348 72.7163 52.4335C72.1473 52.4335 71.6587 52.4335 71.1288 52.4335ZM57.9533 66.2648C57.4017 66.2648 56.9131 66.2648 56.3615 66.2648C56.3615 67.1161 56.3615 67.9239 56.3615 68.7535C56.9348 68.7535 57.4473 68.7535 57.9533 68.7535C57.9533 67.8827 57.9533 67.103 57.9533 66.2648ZM72.7402 68.7904C72.7402 67.887 72.7402 67.1117 72.7402 66.28C72.1755 66.28 71.6674 66.28 71.1418 66.28C71.1418 67.1552 71.1418 67.9565 71.1418 68.7904C71.6978 68.7904 72.182 68.7904 72.7402 68.7904Z" fill="#F7C600"/>
<path id="Vector_2" d="M77.7542 62.6595C77.7259 62.7182 77.676 62.9484 77.6043 62.9549C76.6531 63.0461 77.0245 64.3296 76.2383 64.4707C76.0103 64.512 75.5282 64.1775 75.4804 63.9495C75.3914 63.5217 75.311 63.2481 74.8376 63.1417C74.6921 63.1091 74.5379 62.8333 74.5032 62.6487C74.4076 62.134 75.6694 60.8701 76.1862 60.9222C76.6162 60.9678 77.7629 62.1753 77.7542 62.6595Z" fill="#F7C600"/>
<path id="Vector_3" d="M61.341 74.759C61.7623 74.7655 62.9676 75.936 62.9698 76.3616C62.9698 76.4963 62.9285 76.7069 62.8395 76.7525C62.2792 77.0392 62.0142 77.4996 61.7732 78.0729C61.5886 78.5159 60.7894 78.3487 60.6939 77.8275C60.6048 77.3432 60.4441 77.0653 59.9881 76.8872C59.8491 76.8329 59.7427 76.5354 59.7318 76.3443C59.7079 75.8665 60.8763 74.7503 61.341 74.759Z" fill="#F7C600"/>
<path id="Vector_4" d="M77.7598 76.4654C77.2821 77.0583 76.7847 77.6794 76.2788 78.294C76.2462 78.3331 76.118 78.3483 76.0768 78.3179C75.8596 78.1593 75.4579 77.953 75.4796 77.8162C75.6055 76.9888 73.4947 76.6652 74.9801 75.5685C75.2103 75.3992 75.3819 75.1538 75.6077 74.9778C75.7402 74.8736 75.9226 74.7889 76.0876 74.7737C76.5437 74.7325 77.7815 75.9703 77.7598 76.4654Z" fill="#F7C600"/>
</g>
</g>
</svg>
