<svg width="110" height="110" viewBox="0 0 110 110" fill="none" xmlns="http://www.w3.org/2000/svg">
<circle cx="55" cy="55" r="55" fill="#39BCDF" fill-opacity="0.06"/>
<circle cx="55" cy="55" r="54.5" stroke="#39BCDF" stroke-opacity="0.2" stroke-dasharray="6 6"/>
<path d="M44.818 42.5121C44.818 41.1634 44.818 39.9631 44.818 38.6125C43.5494 38.6125 42.2964 38.6301 41.0434 38.6086C39.7592 38.5852 38.8009 37.785 38.6213 36.6315C38.4027 35.2458 39.4391 33.9869 40.9009 33.9381C42.1656 33.8952 43.4323 33.9284 44.8395 33.9284C44.8395 32.9798 44.8668 32.084 44.8317 31.1901C44.7946 30.2825 45.2338 29.9976 46.0828 30.0112C48.0657 30.0425 50.0526 30.0639 52.0356 30.0015C52.8963 29.9742 53.3081 30.3255 53.6653 31.0574C55.4081 34.6173 57.2115 38.148 58.9584 41.706C59.2511 42.3033 59.5849 42.5355 60.2758 42.5316C66.3593 42.5004 72.4409 42.5121 78.5245 42.514C79.8673 42.514 79.9766 42.6233 79.9766 43.9622C79.9785 50.8265 79.9785 57.6888 79.9766 64.553C79.9766 65.8119 79.8438 65.9407 78.5616 65.9407C71.7305 65.9426 64.8994 65.9524 58.0684 65.929C57.194 65.9251 56.4406 66.0968 55.6853 66.5613C53.6126 67.8417 51.5047 69.0674 49.391 70.2833C48.9108 70.5604 48.7254 70.8708 48.7352 71.4329C48.7703 73.4158 48.7586 75.4007 48.7449 77.3857C48.7332 79.0563 47.814 79.9854 46.1452 79.9912C41.6231 80.0029 37.1028 80.0029 32.5807 79.9912C30.9666 79.9873 30.0161 79.0544 30.0102 77.4579C29.9966 72.9045 29.9966 68.3491 30.0102 63.7957C30.0161 62.1953 30.9627 61.2624 32.5748 61.2585C36.9994 61.2448 41.422 61.2526 45.8466 61.2546C47.9115 61.2565 48.7118 62.0606 48.7488 64.149C48.7508 64.311 48.7645 64.473 48.7801 64.7931C50.0994 64.0143 51.3446 63.2805 52.7089 62.4764C52.4357 62.1816 52.2151 61.9279 51.977 61.6898C49.633 59.3419 47.2714 57.0096 44.9449 54.6441C42.4467 52.1029 41.1176 49.0289 40.9536 45.4729C40.858 43.4235 41.746 42.5297 43.7739 42.5179C44.094 42.5101 44.4121 42.5121 44.818 42.5121ZM78.3625 44.1262C78.1634 44.1067 78.0365 44.0832 77.9116 44.0832C66.4998 44.0813 55.0881 44.0852 43.6782 44.0715C42.7785 44.0696 42.4604 44.4502 42.5033 45.3148C42.6692 48.5742 43.8832 51.3691 46.1823 53.6799C49.5295 57.0466 52.9002 60.3861 56.2376 63.7626C56.6885 64.2173 57.1393 64.3891 57.7697 64.3871C64.3041 64.3676 70.8386 64.3754 77.373 64.3754C77.6891 64.3754 78.0034 64.3754 78.343 64.3754C78.343 63.2883 78.343 62.3046 78.343 61.2585C77.9253 61.2585 77.572 61.2585 77.2188 61.2585C72.439 61.2585 67.6611 61.2585 62.8813 61.2585C62.6218 61.2585 62.3134 61.3444 62.1124 61.2331C61.7884 61.0555 61.5346 60.7491 61.2497 60.4954C61.519 60.2299 61.7552 59.9059 62.0694 59.7166C62.2607 59.6015 62.5769 59.6893 62.8364 59.6893C67.6475 59.6893 72.4604 59.6893 77.2715 59.6893C77.6189 59.6893 77.9682 59.6893 78.3605 59.6893C78.3625 54.4645 78.3625 49.3412 78.3625 44.1262ZM36.2519 62.8179C34.9306 62.8179 33.7615 62.8238 32.5924 62.816C31.9073 62.8101 31.5716 63.1224 31.5716 63.8172C31.5755 68.3706 31.5736 72.922 31.5736 77.4754C31.5736 78.1195 31.9054 78.4259 32.5416 78.4259C37.095 78.4259 41.6465 78.424 46.1999 78.4259C46.9005 78.4259 47.1933 78.0629 47.1816 77.3876C47.1699 76.7377 47.1796 76.0877 47.1796 75.4359C47.1796 71.6319 47.1757 67.8261 47.1835 64.0221C47.1855 63.421 47.1152 62.855 46.3658 62.8335C45.1089 62.7964 43.85 62.8238 42.5013 62.8238C42.5013 64.0475 42.474 65.1776 42.5111 66.3076C42.5404 67.1957 42.152 67.5353 41.2835 67.5118C40.0168 67.4767 38.7462 67.4689 37.4795 67.5138C36.531 67.547 36.207 67.1215 36.2402 66.2198C36.2831 65.121 36.2519 64.0221 36.2519 62.8179ZM57.6117 42.4789C55.8024 38.8643 54.0634 35.3844 52.3088 31.9122C52.2366 31.7697 52.0297 31.6097 51.8833 31.6078C50.076 31.5863 48.2687 31.5941 46.4868 31.5941C46.4868 32.445 46.4868 33.1711 46.4868 33.9264C47.2811 33.9264 47.9974 33.9069 48.7118 33.9303C50.0877 33.9791 51.0812 34.9706 51.0831 36.2665C51.0831 37.5625 50.0916 38.5559 48.7157 38.6047C47.9779 38.6301 47.2382 38.6086 46.4712 38.6086C46.4712 39.9553 46.4712 41.2005 46.4712 42.477C50.1677 42.4789 53.8038 42.4789 57.6117 42.4789ZM44.74 37.0472C45.9696 37.0472 47.2011 37.0414 48.4307 37.0492C49.0143 37.0531 49.5764 36.8891 49.4554 36.2334C49.4007 35.9347 48.7996 35.5346 48.4385 35.5249C46.0437 35.4624 43.647 35.4956 41.2503 35.4898C40.6667 35.4878 40.1046 35.6498 40.2256 36.3036C40.2803 36.6042 40.8716 36.9828 41.2444 37.0121C42.4038 37.1038 43.5748 37.0472 44.74 37.0472ZM48.8698 68.7844C50.9992 67.5255 53.0934 66.2861 55.2208 65.0273C54.7231 64.5179 54.3015 64.0865 53.8487 63.622C52.5859 64.3656 51.331 65.0995 50.0819 65.8431C48.5322 66.7643 48.5341 66.7663 48.8698 68.7844ZM37.8816 62.8355C37.8816 63.905 37.8816 64.8868 37.8816 65.8607C38.9277 65.8607 39.9094 65.8607 40.8541 65.8607C40.8541 64.8048 40.8541 63.8231 40.8541 62.8355C39.8392 62.8355 38.9043 62.8355 37.8816 62.8355Z" fill="#F7C600"/>
<path d="M58.1113 51.0686C58.1113 48.1527 59.6747 46.3473 62.1475 46.4293C62.4988 46.441 62.8638 46.4996 63.1956 46.6128C65.8987 47.5457 66.3984 50.0537 65.6997 53.0515C65.2117 55.1516 62.8892 56.2524 60.8379 55.5947C58.9877 55.0033 58.1094 53.5453 58.1113 51.0686ZM64.353 51.1564C64.353 50.8656 64.3666 50.5728 64.351 50.282C64.2769 48.9763 63.2951 48.0044 62.046 47.9868C60.7637 47.9692 59.741 48.9685 59.6844 50.3191C59.661 50.8695 59.6552 51.4218 59.6883 51.9703C59.7664 53.2623 60.7891 54.2284 62.0363 54.2167C63.2834 54.205 64.273 53.2331 64.351 51.9313C64.3666 51.6756 64.353 51.414 64.353 51.1564Z" fill="#F7C600"/>
<path d="M76.0727 51.1476C76.0707 54.0576 74.4976 55.8649 72.0228 55.7732C71.6715 55.7595 71.3065 55.701 70.9767 55.5839C68.2716 54.6353 67.7856 52.1273 68.4882 49.1353C68.982 47.0372 71.3065 45.9462 73.3597 46.6078C75.1963 47.2012 76.0727 48.6689 76.0727 51.1476ZM69.8349 51.1183C69.833 51.1183 69.831 51.1183 69.8271 51.1183C69.8271 51.3447 69.8213 51.573 69.8291 51.7994C69.8779 53.2184 70.8849 54.2411 72.2063 54.2176C73.4905 54.1942 74.4566 53.1891 74.4996 51.8131C74.5171 51.2627 74.5327 50.7084 74.4898 50.1619C74.3942 48.9226 73.3832 47.9897 72.1731 47.9858C70.9669 47.9819 69.9501 48.9148 69.8388 50.1463C69.8095 50.4684 69.8349 50.7943 69.8349 51.1183Z" fill="#F7C600"/>
<path d="M41.7478 76.8671C41.0354 76.8671 40.3211 76.8612 39.6087 76.869C38.9256 76.8768 38.5899 76.5528 38.5938 75.8658C38.5996 74.9583 38.5957 74.0507 38.5957 73.1412C38.5957 72.5049 38.9119 72.1809 39.5501 72.1809C40.9769 72.179 42.4036 72.1848 43.8303 72.177C44.5134 72.1731 44.851 72.4932 44.8452 73.1802C44.8393 74.0878 44.8452 74.9953 44.8432 75.9048C44.8432 76.5392 44.5251 76.8651 43.8869 76.8671C43.1745 76.869 42.4602 76.8671 41.7478 76.8671ZM43.2155 75.2491C43.2155 74.7338 43.2155 74.2712 43.2155 73.8126C42.1694 73.8126 41.1857 73.8126 40.2059 73.8126C40.2059 74.322 40.2059 74.7631 40.2059 75.2491C41.2306 75.2491 42.2142 75.2491 43.2155 75.2491Z" fill="#F7C600"/>
</svg>
