<svg width="16" height="16" viewBox="0 0 16 16" fill="none" xmlns="http://www.w3.org/2000/svg">
<g id="Icon">
<g id="icon">
<path id="Vector" d="M11.5 1H4.5C2.567 1 1 2.567 1 4.5V11.5C1 13.433 2.567 15 4.5 15H11.5C13.433 15 15 13.433 15 11.5V4.5C15 2.567 13.433 1 11.5 1Z" stroke="white" stroke-width="1.5" stroke-linecap="round" stroke-linejoin="round"/>
<path id="Vector_2" d="M10.7987 7.55885C10.8851 8.14142 10.7856 8.7364 10.5144 9.25916C10.2431 9.78192 9.81392 10.2058 9.28786 10.4706C8.76179 10.7354 8.16563 10.8276 7.58417 10.734C7.00271 10.6404 6.46555 10.3659 6.04911 9.94946C5.63266 9.53302 5.35813 8.99586 5.26457 8.4144C5.171 7.83294 5.26317 7.23678 5.52795 6.71071C5.79273 6.18465 6.21665 5.75547 6.73941 5.48422C7.26217 5.21297 7.85715 5.11346 8.43972 5.19985C9.03397 5.28797 9.58412 5.56487 10.0089 5.98967C10.4337 6.41446 10.7106 6.9646 10.7987 7.55885Z" stroke="white" stroke-width="1.5" stroke-linecap="round" stroke-linejoin="round"/>
<path id="Vector_3" d="M11.8494 4.14993H11.8564" stroke="white" stroke-width="1.5" stroke-linecap="round" stroke-linejoin="round"/>
</g>
</g>
</svg>
