<svg width="20" height="20" viewBox="0 0 20 20" fill="none" xmlns="http://www.w3.org/2000/svg">
<path d="M4.16797 8.33335H5.83464C7.5013 8.33335 8.33464 7.50002 8.33464 5.83335V4.16669C8.33464 2.50002 7.5013 1.66669 5.83464 1.66669H4.16797C2.5013 1.66669 1.66797 2.50002 1.66797 4.16669V5.83335C1.66797 7.50002 2.5013 8.33335 4.16797 8.33335Z" stroke="#292D32" stroke-width="1.5" stroke-miterlimit="10" stroke-linecap="round" stroke-linejoin="round"/>
<path d="M14.168 8.33335H15.8346C17.5013 8.33335 18.3346 7.50002 18.3346 5.83335V4.16669C18.3346 2.50002 17.5013 1.66669 15.8346 1.66669H14.168C12.5013 1.66669 11.668 2.50002 11.668 4.16669V5.83335C11.668 7.50002 12.5013 8.33335 14.168 8.33335Z" stroke="#292D32" stroke-width="1.5" stroke-miterlimit="10" stroke-linecap="round" stroke-linejoin="round"/>
<path d="M14.168 18.3334H15.8346C17.5013 18.3334 18.3346 17.5 18.3346 15.8334V14.1667C18.3346 12.5 17.5013 11.6667 15.8346 11.6667H14.168C12.5013 11.6667 11.668 12.5 11.668 14.1667V15.8334C11.668 17.5 12.5013 18.3334 14.168 18.3334Z" stroke="#292D32" stroke-width="1.5" stroke-miterlimit="10" stroke-linecap="round" stroke-linejoin="round"/>
<path d="M4.16797 18.3334H5.83464C7.5013 18.3334 8.33464 17.5 8.33464 15.8334V14.1667C8.33464 12.5 7.5013 11.6667 5.83464 11.6667H4.16797C2.5013 11.6667 1.66797 12.5 1.66797 14.1667V15.8334C1.66797 17.5 2.5013 18.3334 4.16797 18.3334Z" stroke="#292D32" stroke-width="1.5" stroke-miterlimit="10" stroke-linecap="round" stroke-linejoin="round"/>
</svg>
