<svg width="21" height="20" viewBox="0 0 21 20" fill="none" xmlns="http://www.w3.org/2000/svg">
<path fill-rule="evenodd" clip-rule="evenodd" d="M1.87498 9.35649C3.31285 13.8301 8.99355 17.4473 10.5032 18.3426C12.018 17.4381 17.7397 13.7809 19.1314 9.3606C20.0452 6.50332 19.1971 2.88405 15.827 1.79795C14.1943 1.27388 12.2898 1.59284 10.975 2.61021C10.7001 2.82148 10.3186 2.82559 10.0417 2.61637C8.64896 1.56925 6.82957 1.2626 5.17121 1.79795C1.80627 2.88302 0.96119 6.5023 1.87498 9.35649ZM10.4999 20C10.3727 20 10.2465 19.9692 10.1317 19.9067C9.81067 19.7313 2.24906 15.5633 0.406086 9.82622C0.405061 9.82622 0.40506 9.8252 0.40506 9.8252C-0.751796 6.2131 0.536335 1.67387 4.69507 0.333435C6.64778 -0.298323 8.77586 -0.0203906 10.4968 1.0657C12.1644 0.0114025 14.3796 -0.279863 16.2934 0.333435C20.4562 1.67592 21.7485 6.21412 20.5926 9.8252C18.8091 15.4967 11.1921 19.7272 10.8691 19.9046C10.7542 19.9682 10.627 20 10.4999 20Z" fill="#030611"/>
</svg>
