<svg width="12" height="14" viewBox="0 0 12 14" fill="none" xmlns="http://www.w3.org/2000/svg">
<path fill-rule="evenodd" clip-rule="evenodd" d="M3.61109 13.4483L3.83182 11.9992L3.34012 11.9873H0.992188L2.62392 1.2937C2.629 1.26132 2.64544 1.23126 2.66944 1.20987C2.69355 1.18849 2.72429 1.17676 2.75645 1.17676H6.71543C8.02985 1.17676 8.93687 1.45939 9.41035 2.01734C9.63238 2.27908 9.77378 2.55267 9.84223 2.85364C9.91399 3.16951 9.91517 3.54685 9.84518 4.00715L9.8401 4.04063V4.33561L10.0621 4.46563C10.249 4.56815 10.3976 4.68546 10.5116 4.81975C10.7015 5.04361 10.8243 5.32808 10.8762 5.66521C10.9299 6.012 10.9122 6.42478 10.8243 6.89205C10.723 7.42946 10.5593 7.89759 10.3381 8.28055C10.1347 8.63344 9.87557 8.92622 9.56783 9.15302C9.27404 9.36857 8.92504 9.53219 8.53041 9.63691C8.14795 9.7398 7.71194 9.79173 7.23373 9.79173H6.92563C6.70538 9.79173 6.49139 9.87372 6.3234 10.0207C6.15493 10.1708 6.04356 10.3758 6.00939 10.6L5.9861 10.7305L5.59608 13.2848L5.57847 13.3785C5.57374 13.4082 5.5657 13.423 5.55387 13.433C5.54335 13.4422 5.52822 13.4483 5.51344 13.4483H3.61109Z" fill="#28356A"/>
<path fill-rule="evenodd" clip-rule="evenodd" d="M10.2722 4.07458C10.2605 4.15267 10.2469 4.23246 10.2317 4.31445C9.70965 7.08509 7.9234 8.04225 5.64214 8.04225H4.48059C4.20158 8.04225 3.96643 8.25156 3.92304 8.53603L3.1599 13.5393C3.13165 13.7261 3.27092 13.8944 3.45322 13.8944H5.5134C5.75729 13.8944 5.96454 13.7112 6.00296 13.4626L6.02318 13.3544L6.41107 10.8102L6.43602 10.6707C6.47397 10.4211 6.68169 10.2378 6.92559 10.2378H7.23368C9.22966 10.2378 10.7922 9.40032 11.2489 6.97646C11.4396 5.96396 11.3409 5.11849 10.8361 4.52389C10.6834 4.34464 10.4938 4.1958 10.2722 4.07458Z" fill="#298FC2"/>
<path fill-rule="evenodd" clip-rule="evenodd" d="M9.72492 3.84956C9.64512 3.82549 9.56283 3.80374 9.47842 3.78407C9.39354 3.76488 9.30664 3.7479 9.21715 3.73299C8.90397 3.68069 8.56076 3.65588 8.1932 3.65588H5.09017C5.01368 3.65588 4.94109 3.67372 4.87618 3.70598C4.73301 3.7771 4.62673 3.91714 4.60096 4.08857L3.94079 8.41011L3.92188 8.53609C3.96526 8.25162 4.20041 8.0423 4.47942 8.0423H5.64098C7.92223 8.0423 9.70849 7.08467 10.2306 4.31451C10.2462 4.23252 10.2593 4.15273 10.271 4.07464C10.1389 4.00218 9.99589 3.94023 9.84184 3.88744C9.80377 3.87437 9.76452 3.86178 9.72492 3.84956Z" fill="#111013"/>
<path fill-rule="evenodd" clip-rule="evenodd" d="M4.60466 4.08862C4.63043 3.91718 4.73671 3.77715 4.87988 3.70652C4.94526 3.67414 5.01738 3.6563 5.09387 3.6563H8.1969C8.56446 3.6563 8.90767 3.68123 9.22085 3.73353C9.31034 3.74831 9.39723 3.76542 9.48212 3.7846C9.56653 3.80415 9.64882 3.82603 9.72862 3.84998C9.76822 3.8622 9.80747 3.8749 9.8459 3.88749C9.99994 3.94028 10.1431 4.00272 10.2752 4.07469C10.4305 3.05082 10.2739 2.3537 9.73831 1.72245C9.14778 1.0274 8.08211 0.72998 6.71839 0.72998H2.75929C2.48075 0.72998 2.24312 0.9393 2.20009 1.22426L0.551095 12.0279C0.518583 12.2416 0.678068 12.4344 0.886616 12.4344H3.33079L4.60466 4.08862Z" fill="#28356A"/>
</svg>
