<svg width="13" height="12" viewBox="0 0 13 12" fill="none" xmlns="http://www.w3.org/2000/svg">
<path d="M9.92508 7.46476C9.7697 7.62328 9.69831 7.85253 9.7337 8.07736L10.267 11.1845C10.312 11.4479 10.2064 11.7144 9.99707 11.8666C9.7919 12.0245 9.51893 12.0434 9.29516 11.9171L6.63811 10.4582C6.54572 10.4065 6.44313 10.3787 6.33815 10.3755H6.17557C6.11917 10.3844 6.06398 10.4033 6.01359 10.4324L3.35594 11.8982C3.22455 11.9676 3.07577 11.9923 2.92999 11.9676C2.57484 11.8969 2.33787 11.5407 2.39606 11.1649L2.92999 8.05778C2.96539 7.83106 2.894 7.60054 2.73862 7.4395L0.5723 5.22912C0.391123 5.04408 0.328132 4.76621 0.410921 4.51549C0.49131 4.2654 0.696483 4.08289 0.944251 4.04184L3.92586 3.5865C4.15263 3.56187 4.35181 3.41661 4.45379 3.20189L5.76762 0.366291C5.79882 0.303138 5.83901 0.245036 5.88761 0.195776L5.9416 0.151569C5.96979 0.118729 6.00219 0.0915728 6.03819 0.069469L6.10358 0.0442076L6.20556 0H6.45813C6.6837 0.0246299 6.88228 0.166726 6.98606 0.378922L8.31729 3.20189C8.41328 3.4084 8.59985 3.55176 8.81522 3.5865L11.7968 4.04184C12.0488 4.07973 12.2594 4.26287 12.3428 4.51549C12.4214 4.76873 12.3536 5.04661 12.1688 5.22912L9.92508 7.46476Z" fill="#FBA018"/>
</svg>
