<svg width="13" height="12" viewBox="0 0 13 12" fill="none" xmlns="http://www.w3.org/2000/svg">
<path d="M10.0534 7.46476C9.88979 7.62328 9.81463 7.85253 9.8519 8.07736L10.4133 11.1845C10.4607 11.4479 10.3495 11.7144 10.1291 11.8666C9.91315 12.0245 9.6258 12.0434 9.39024 11.9171L6.59317 10.4582C6.49591 10.4065 6.38792 10.3787 6.2774 10.3755H6.10625C6.04689 10.3844 5.98879 10.4033 5.93574 10.4324L3.13803 11.8982C2.99972 11.9676 2.8431 11.9923 2.68964 11.9676C2.31577 11.8969 2.06631 11.5407 2.12757 11.1649L2.68964 8.05778C2.7269 7.83106 2.65174 7.60054 2.48818 7.4395L0.207697 5.22912C0.0169731 5.04408 -0.0493383 4.76621 0.0378138 4.51549C0.12244 4.2654 0.338425 4.08289 0.59925 4.04184L3.73799 3.5865C3.97671 3.56187 4.18638 3.41661 4.29374 3.20189L5.67681 0.366291C5.70965 0.303138 5.75196 0.245036 5.80311 0.195776L5.85995 0.151569C5.88963 0.118729 5.92374 0.0915728 5.96163 0.069469L6.03047 0.0442076L6.13783 0H6.4037C6.64116 0.0246299 6.8502 0.166726 6.95946 0.378922L8.36084 3.20189C8.46188 3.4084 8.65829 3.55176 8.88501 3.5865L12.0238 4.04184C12.289 4.07973 12.5107 4.26287 12.5984 4.51549C12.6812 4.76873 12.6098 5.04661 12.4153 5.22912L10.0534 7.46476Z" fill="#1E1E2F" fill-opacity="0.2"/>
</svg>
