<svg width="15" height="12" viewBox="0 0 15 12" fill="none" xmlns="http://www.w3.org/2000/svg">
<path d="M4.64352 12C10.2155 12 13.2627 7.38369 13.2627 3.38083C13.2627 3.24967 13.26 3.11919 13.254 2.98921C13.8454 2.56165 14.3596 2.02796 14.7652 1.42071C14.2224 1.66187 13.6384 1.82426 13.0256 1.89748C13.651 1.52248 14.1312 0.929006 14.3578 0.221672C13.7724 0.56879 13.1241 0.821025 12.4343 0.957051C11.8813 0.368277 11.094 0 10.2229 0C8.54981 0 7.19308 1.35673 7.19308 3.02901C7.19308 3.2668 7.21978 3.49788 7.2715 3.71972C4.75402 3.59327 2.52152 2.38767 1.02758 0.554851C0.767119 1.00239 0.617154 1.52265 0.617154 2.07733C0.617154 3.12826 1.15202 4.05609 1.96532 4.59902C1.46841 4.58374 1.00155 4.44704 0.593308 4.21999C0.592636 4.23259 0.592636 4.24535 0.592636 4.25862C0.592636 5.72585 1.63701 6.95075 3.02296 7.22835C2.76855 7.2977 2.50086 7.33498 2.22444 7.33498C2.0293 7.33498 1.83954 7.3155 1.65498 7.28041C2.04056 8.48382 3.15899 9.35975 4.48499 9.38444C3.448 10.1971 2.14182 10.6812 0.722616 10.6812C0.478274 10.6812 0.237122 10.6673 0 10.6392C1.34061 11.4984 2.93245 12 4.64352 12Z" fill="#55585B"/>
</svg>
