<svg width="16" height="13" viewBox="0 0 16 13" fill="none" xmlns="http://www.w3.org/2000/svg">
<path opacity="0.4" d="M14.885 5.3022C13.325 8.55656 9.49 13 7.02 13C4.615 13 4.29 8.11847 2.99 4.86412C2.34 3.23694 1.95 3.61244 0.715 4.42603L0 3.54986C1.755 2.04785 3.51 0.358086 4.615 0.232918C5.85 0.107751 6.565 0.921339 6.825 2.6111C7.215 4.86411 7.735 8.3688 8.58 8.3688C9.295 8.3688 10.985 5.61512 11.115 4.61378C11.245 3.17435 10.01 3.11177 8.905 3.54986C10.66 -1.89493 17.875 -0.893589 14.885 5.3022Z" fill="#55585B"/>
</svg>
