<svg width="50" height="51" viewBox="0 0 50 51" fill="none" xmlns="http://www.w3.org/2000/svg">
<g id="icon">
<path id="Vector" d="M37.5 12.62C37.5 5.71676 31.9032 0.119995 25 0.119995V25.12C31.9032 25.12 37.5 19.5232 37.5 12.62Z" fill="#FFAB38"/>
<path id="Vector_2" d="M12.5 37.62C12.5 44.5232 18.0968 50.12 25 50.12V25.12C18.0968 25.12 12.5 30.7168 12.5 37.62Z" fill="#6D9335"/>
<path id="Vector_3" d="M37.5 37.62C44.4032 37.62 50 32.0232 50 25.12H25C25 32.0232 30.5968 37.62 37.5 37.62Z" fill="#FF7F92"/>
<path id="Vector_4" d="M12.5 12.62C5.59677 12.62 0 18.2168 0 25.12H25C25 18.2168 19.4032 12.62 12.5 12.62Z" fill="#DD451D"/>
</g>
</svg>
