<svg width="51" height="50" viewBox="0 0 51 50" fill="none" xmlns="http://www.w3.org/2000/svg">
<g id="icon">
<path id="Vector" d="M50.2598 25C50.2598 22.4891 44.4662 20.4216 37.0024 20.1336C42.0762 14.6568 44.7138 9.09929 42.94 7.31974C41.1662 5.54596 35.6088 8.17784 30.1261 13.2573C29.8382 5.7936 27.7707 0 25.2598 0C22.7488 0 20.6813 5.7936 20.3934 13.2573C14.9165 8.1836 9.35905 5.54596 7.5795 7.31974C5.80572 9.09353 8.4376 14.651 13.5171 20.1336C6.05336 20.4158 0.259766 22.4891 0.259766 25C0.259766 27.5109 6.05336 29.5784 13.5171 29.8664C8.44336 35.3432 5.80572 40.9007 7.5795 42.6803C9.35329 44.454 14.9108 41.8222 20.3934 36.7427C20.6756 44.2064 22.7488 50 25.2598 50C27.7707 50 29.8382 44.2064 30.1261 36.7427C35.603 41.8164 41.1605 44.454 42.94 42.6803C44.7138 40.9065 42.0819 35.349 37.0024 29.8664C44.4662 29.5784 50.2598 27.5109 50.2598 25Z" fill="#FFAB38"/>
<path id="Vector_2" d="M29.2887 34.9218C34.7439 32.6916 37.3583 26.4614 35.1281 21.0062C32.898 15.551 26.6677 12.9366 21.2125 15.1667C15.7573 17.3969 13.1429 23.6272 15.3731 29.0824C17.6032 34.5376 23.8335 37.152 29.2887 34.9218Z" fill="#0F1919"/>
<path id="Vector_3" d="M31.0253 30.8139C34.21 27.6292 34.21 22.466 31.0253 19.2814C27.8407 16.0967 22.6774 16.0967 19.4928 19.2813C16.3082 22.466 16.3082 27.6293 19.4928 30.8139C22.6774 33.9985 27.8407 33.9985 31.0253 30.8139Z" fill="#DD451D"/>
<path id="Vector_4" d="M28.8058 28.5945C30.7647 26.6356 30.7647 23.4596 28.8058 21.5007C26.8469 19.5418 23.6709 19.5418 21.712 21.5007C19.7531 23.4596 19.753 26.6356 21.7119 28.5945C23.6708 30.5534 26.8469 30.5534 28.8058 28.5945Z" fill="#FFF6EA"/>
</g>
</svg>
