<svg width="16" height="18" viewBox="0 0 16 18" fill="none" xmlns="http://www.w3.org/2000/svg">
<path d="M12.6673 5.66667C13.956 5.66667 15.0007 4.622 15.0007 3.33333C15.0007 2.04467 13.956 1 12.6673 1C11.3787 1 10.334 2.04467 10.334 3.33333C10.334 4.622 11.3787 5.66667 12.6673 5.66667Z" stroke="#030611" stroke-width="1.5" stroke-linecap="round" stroke-linejoin="round"/>
<path d="M3.33333 11.111C4.622 11.111 5.66667 10.0663 5.66667 8.77767C5.66667 7.489 4.622 6.44434 3.33333 6.44434C2.04467 6.44434 1 7.489 1 8.77767C1 10.0663 2.04467 11.111 3.33333 11.111Z" stroke="#030611" stroke-width="1.5" stroke-linecap="round" stroke-linejoin="round"/>
<path d="M12.6673 16.5553C13.956 16.5553 15.0007 15.5107 15.0007 14.222C15.0007 12.9333 13.956 11.8887 12.6673 11.8887C11.3787 11.8887 10.334 12.9333 10.334 14.222C10.334 15.5107 11.3787 16.5553 12.6673 16.5553Z" stroke="#030611" stroke-width="1.5" stroke-linecap="round" stroke-linejoin="round"/>
<path d="M5.34766 9.95215L10.6599 13.0477" stroke="#030611" stroke-width="1.5" stroke-linecap="round" stroke-linejoin="round"/>
<path d="M10.6521 4.50781L5.34766 7.60337" stroke="#030611" stroke-width="1.5" stroke-linecap="round" stroke-linejoin="round"/>
</svg>
