<svg width="30" height="30" viewBox="0 0 30 30" fill="none" xmlns="http://www.w3.org/2000/svg">
<path d="M15.0002 15L20.8705 2.47104C19.1878 0.911275 17.1703 0 15.0002 0C12.8301 0 10.8168 0.911275 9.12988 2.47104L15.0002 15Z" fill="#FFAB38"/>
<path d="M15.0002 15L9.12988 27.529C10.8126 29.0887 12.8301 30 15.0002 30C17.1703 30 19.1836 29.0887 20.8705 27.529L15.0002 15Z" fill="#6D9335"/>
<path d="M15 15.0002L27.529 20.8705C29.0887 19.1878 30 17.1703 30 15.0002C30 12.8301 29.0887 10.8168 27.529 9.12988L15 15.0002Z" fill="#DD451D"/>
<path d="M15 14.9999L2.47104 9.13379C0.911274 10.8165 0 12.834 0 15.0041C0 17.1742 0.911274 19.1875 2.47104 20.8744L15 14.9999Z" fill="#FF7F92"/>
</svg>
