<svg width="50" height="50" viewBox="0 0 50 50" fill="none" xmlns="http://www.w3.org/2000/svg">
<path d="M24.9997 25L34.7835 4.1184C31.979 1.51879 28.6165 0 24.9997 0C21.3828 0 18.0273 1.51879 15.2158 4.1184L24.9997 25Z" fill="#FFAB38"/>
<path d="M24.9997 25L15.2158 45.8816C18.0203 48.4812 21.3828 50 24.9997 50C28.6165 50 31.972 48.4812 34.7835 45.8816L24.9997 25Z" fill="#6D9335"/>
<path d="M25 25.0006L45.8816 34.7845C48.4812 31.98 50 28.6175 50 25.0006C50 21.3838 48.4812 18.0283 45.8816 15.2168L25 25.0006Z" fill="#DD451D"/>
<path d="M25 24.9994L4.1184 15.2227C1.51879 18.0271 0 21.3896 0 25.0065C0 28.6233 1.51879 31.9788 4.1184 34.7903L25 24.9994Z" fill="#FF7F92"/>
</svg>
