<svg width="36" height="30" viewBox="0 0 36 30" fill="none" xmlns="http://www.w3.org/2000/svg">
<path d="M24.6883 0.56964C24.4039 0.209854 23.9704 0 23.5117 0H16.8889C15.6353 0 14.9348 1.44658 15.7121 2.43012L24.814 13.9461C25.2451 14.4914 25.2449 15.2615 24.8137 15.8068L15.6965 27.3329C14.9186 28.3163 15.619 29.7634 16.8729 29.7634H23.4976C23.9561 29.7634 24.3894 29.5537 24.6739 29.1941L35.2648 15.807C35.6963 15.2617 35.6964 14.4914 35.2651 13.9459L24.6883 0.56964Z" fill="#F7C600"/>
<path fill-rule="evenodd" clip-rule="evenodd" d="M23.5117 1H16.8889C16.4711 1 16.2375 1.48219 16.4967 1.81004L25.5986 13.326C26.317 14.2349 26.3168 15.5184 25.598 16.4271L16.4808 27.9533C16.2215 28.2811 16.4549 28.7634 16.8729 28.7634H23.4976C23.6504 28.7634 23.7949 28.6935 23.8897 28.5737L34.4806 15.1865C34.6244 15.0048 34.6244 14.748 34.4807 14.5662L23.9039 1.18988C23.8091 1.06995 23.6646 1 23.5117 1ZM23.5117 0C23.9704 0 24.4039 0.209854 24.6883 0.56964L35.2651 13.9459C35.6964 14.4914 35.6963 15.2617 35.2648 15.807L24.6739 29.1941C24.3894 29.5537 23.9561 29.7634 23.4976 29.7634H16.8729C15.619 29.7634 14.9186 28.3163 15.6965 27.3329L24.8137 15.8068C25.2449 15.2615 25.2451 14.4914 24.814 13.9461L15.7121 2.43012C14.9348 1.44658 15.6353 0 16.8889 0H23.5117Z" fill="#162B30"/>
<path d="M9.91491 0.56964C9.63042 0.209854 9.19696 0 8.73829 0H2.1155C0.861851 0 0.16133 1.44658 0.938692 2.43012L10.0406 13.9461C10.4717 14.4914 10.4715 15.2615 10.0402 15.8068L0.923033 27.3329C0.145123 28.3163 0.84556 29.7634 2.09948 29.7634H8.72412C9.18266 29.7634 9.61601 29.5537 9.9005 29.1941L20.4914 15.807C20.9228 15.2617 20.9229 14.4914 20.4916 13.9459L9.91491 0.56964Z" fill="#F7C600"/>
<path fill-rule="evenodd" clip-rule="evenodd" d="M8.73829 1H2.1155C1.69762 1 1.46411 1.48219 1.72323 1.81004L10.8251 13.326C11.5436 14.2349 11.5433 15.5184 10.8245 16.4271L1.70733 27.9533C1.44803 28.2811 1.68151 28.7634 2.09948 28.7634H8.72412C8.87697 28.7634 9.02142 28.6935 9.11625 28.5737L19.7072 15.1865C19.851 15.0048 19.851 14.748 19.7072 14.5662L9.13049 1.18988C9.03567 1.06995 8.89118 1 8.73829 1ZM8.73829 0C9.19696 0 9.63042 0.209854 9.91491 0.56964L20.4916 13.9459C20.9229 14.4914 20.9228 15.2617 20.4914 15.807L9.9005 29.1941C9.61601 29.5537 9.18266 29.7634 8.72412 29.7634H2.09948C0.84556 29.7634 0.145123 28.3163 0.923033 27.3329L10.0402 15.8068C10.4715 15.2615 10.4717 14.4914 10.0406 13.9461L0.938692 2.43012C0.16133 1.44658 0.861851 0 2.1155 0H8.73829Z" fill="#162B30"/>
</svg>
