<svg width="794" height="481" viewBox="0 0 794 481" fill="none" xmlns="http://www.w3.org/2000/svg">
<path d="M5.95072 306.126C7.37222 308.932 24.8324 328.607 53.9467 357.598C85.772 389.338 129.2 436.603 182.255 469.017C202.421 481.294 224.189 485.499 237.747 473.406C252.441 460.257 258.631 432.964 269.749 404.452C279.235 380.153 298.23 358.852 321.839 357.763C350.033 356.488 379.891 370.29 404.755 364.471C456.013 352.264 462.298 263.101 485.145 198.53C495.195 170.144 512.496 149.404 533.711 143.395C556.16 137.118 581.866 142.448 607.368 147.614C877.421 202.892 798.573 -97.7807 712.291 35.2416C693.669 63.9979 674.438 107.852 631.809 119.125C586.01 131.167 514.614 113.194 476.516 162.501C455.598 189.565 440.036 223.846 411.92 238.658C383.884 253.411 345.78 245.662 308.615 239.747C273.267 234.087 240.546 235.567 215.033 245.511C190.057 255.271 168.354 267.974 146.547 270.814C96.4319 277.345 52.6561 263.196 27.0913 266.469C2.00572 269.773 -6.54781 281.573 5.93679 306.108L5.95072 306.126Z" fill="#B4E8E1"/>
</svg>
