<svg width="46" height="47" viewBox="0 0 46 47" fill="none" xmlns="http://www.w3.org/2000/svg">
<g id="icon_bg">
<g id="bg" filter="url(#filter0_d_320_1094)">
<path d="M3 -0.00390625H43V39.9961H3V-0.00390625Z" fill="white" fill-opacity="0.1" shape-rendering="crispEdges"/>
</g>
<g id="icon">
<path id="Vector" d="M29.979 24.4271C29.979 24.6791 29.923 24.9381 29.804 25.1901C29.685 25.4421 29.531 25.6801 29.328 25.9041C28.985 26.2821 28.607 26.5551 28.18 26.7301C27.76 26.9051 27.305 26.9961 26.815 26.9961C26.101 26.9961 25.338 26.8281 24.533 26.4851C23.728 26.1421 22.923 25.6801 22.125 25.0991C21.32 24.5111 20.557 23.8601 19.829 23.1391C19.108 22.4111 18.457 21.6481 17.876 20.8501C17.302 20.0521 16.84 19.2541 16.504 18.4631C16.168 17.6651 16 16.9021 16 16.1741C16 15.6981 16.084 15.2431 16.252 14.8231C16.42 14.3961 16.686 14.0041 17.057 13.6541C17.505 13.2131 17.995 12.9961 18.513 12.9961C18.709 12.9961 18.905 13.0381 19.08 13.1221C19.262 13.2061 19.423 13.3321 19.549 13.5141L21.173 15.8031C21.299 15.9781 21.39 16.1391 21.453 16.2931C21.516 16.4401 21.551 16.5871 21.551 16.7201C21.551 16.8881 21.502 17.0561 21.404 17.2171C21.313 17.3781 21.18 17.5461 21.012 17.7141L20.48 18.2671C20.403 18.3441 20.368 18.4351 20.368 18.5471C20.368 18.6031 20.375 18.6521 20.389 18.7081C20.41 18.7641 20.431 18.8061 20.445 18.8481C20.571 19.0791 20.788 19.3801 21.096 19.7441C21.411 20.1081 21.747 20.4791 22.111 20.8501C22.489 21.2211 22.853 21.5641 23.224 21.8791C23.588 22.1871 23.889 22.3971 24.127 22.5231C24.162 22.5371 24.204 22.5581 24.253 22.5791C24.309 22.6001 24.365 22.6071 24.428 22.6071C24.547 22.6071 24.638 22.5651 24.715 22.4881L25.247 21.9631C25.422 21.7881 25.59 21.6551 25.751 21.5711C25.912 21.4731 26.073 21.4241 26.248 21.4241C26.381 21.4241 26.521 21.4521 26.675 21.5151C26.829 21.5781 26.99 21.6691 27.165 21.7881L29.482 23.4331C29.664 23.5591 29.79 23.7061 29.867 23.8811C29.937 24.0561 29.979 24.2311 29.979 24.4271Z" stroke="white" stroke-miterlimit="10"/>
<path id="Vector_2" d="M27.5496 17.8963C27.5496 17.4763 27.2206 16.8323 26.7306 16.3073C26.2826 15.8243 25.6876 15.4463 25.0996 15.4463" stroke="white" stroke-linecap="round" stroke-linejoin="round"/>
<path id="Vector_3" d="M29.9996 17.8961C29.9996 15.1871 27.8086 12.9961 25.0996 12.9961" stroke="white" stroke-linecap="round" stroke-linejoin="round"/>
</g>
</g>
<defs>
<filter id="filter0_d_320_1094" x="0" y="-0.00390625" width="46" height="47" filterUnits="userSpaceOnUse" color-interpolation-filters="sRGB">
<feFlood flood-opacity="0" result="BackgroundImageFix"/>
<feColorMatrix in="SourceAlpha" type="matrix" values="0 0 0 0 0 0 0 0 0 0 0 0 0 0 0 0 0 0 127 0" result="hardAlpha"/>
<feOffset dy="4"/>
<feGaussianBlur stdDeviation="1.5"/>
<feComposite in2="hardAlpha" operator="out"/>
<feColorMatrix type="matrix" values="0 0 0 0 0.117647 0 0 0 0 0.117647 0 0 0 0 0.184314 0 0 0 0.12 0"/>
<feBlend mode="normal" in2="BackgroundImageFix" result="effect1_dropShadow_320_1094"/>
<feBlend mode="normal" in="SourceGraphic" in2="effect1_dropShadow_320_1094" result="shape"/>
</filter>
</defs>
</svg>
