<svg width="21" height="18" viewBox="0 0 21 18" fill="none" xmlns="http://www.w3.org/2000/svg">
<g id="icon">
<path id="Vector" d="M18.6999 15.957C18.6999 14.5702 18.6786 13.2208 18.7149 11.8727C18.7236 11.5489 18.8349 11.1162 19.0613 10.9398C19.3051 10.7498 19.8279 10.6485 20.0667 10.7873C20.3656 10.9611 20.6557 11.4088 20.677 11.7552C20.7495 12.9795 20.7058 14.21 20.707 15.4393C20.707 15.877 20.7133 16.3134 20.7057 16.7511C20.6907 17.6465 20.3393 17.9979 19.4452 17.9979C15.9674 18.0017 12.4909 17.9992 9.01312 17.9992C6.45199 17.9992 3.89087 18.0004 1.32975 17.9979C0.353067 17.9967 0.00916605 17.6603 0.00666495 16.6874C0.00166275 15.0629 -0.00709109 13.4384 0.0104166 11.8152C0.020421 10.9223 0.794511 10.3558 1.44855 10.7948C1.73367 10.9861 1.96753 11.4551 1.98628 11.8102C2.05131 13.0558 2.01129 14.3076 2.0138 15.5569C2.0138 15.6782 2.0288 15.7982 2.03881 15.9558C7.57999 15.957 13.0887 15.957 18.6999 15.957Z" fill="#111013"/>
<path id="Vector_2" d="M9.35126 10.1557C9.35126 7.14067 9.35126 4.30942 9.35126 1.47693C9.35126 1.26934 9.32875 1.0555 9.36752 0.854157C9.47132 0.317672 9.80771 -0.00371916 10.3605 3.24873e-05C10.9132 0.00503468 11.2483 0.332678 11.3384 0.869164C11.3822 1.13303 11.3546 1.4094 11.3546 1.67952C11.3559 4.44573 11.3546 7.2132 11.3546 10.0957C11.5585 9.90938 11.6935 9.80058 11.8111 9.67553C12.7953 8.62882 13.7745 7.57586 14.7611 6.5304C15.3426 5.91388 15.9104 5.83634 16.3806 6.29279C16.8333 6.73174 16.7908 7.29448 16.2393 7.88474C14.5485 9.69679 12.8541 11.5063 11.1558 13.3121C10.6381 13.8624 10.0578 13.8561 9.53634 13.3009C7.8431 11.4951 6.1411 9.69429 4.46787 7.86473C4.23777 7.61337 4.02642 7.19569 4.06769 6.89056C4.10771 6.59168 4.44286 6.16399 4.71548 6.10646C5.04937 6.03518 5.5596 6.1815 5.80846 6.42285C6.85016 7.4408 7.82184 8.53128 8.81853 9.59424C8.95734 9.74056 9.0974 9.88687 9.35126 10.1557Z" fill="#111013"/>
</g>
</svg>
