<svg width="26" height="30" viewBox="0 0 26 30" fill="none" xmlns="http://www.w3.org/2000/svg">
<path d="M10.9007 23.5747C7.94395 23.5747 4.98719 23.5723 2.03043 23.5759C1.27795 23.5759 0.658339 23.3042 0.262172 22.658C0.11361 22.4152 0.0169835 22.0988 0.0157757 21.8161C-0.00354953 19.1613 -0.00354953 16.5065 0.00732091 13.8517C0.0109444 12.8251 0.84676 12.2055 1.78886 12.0956C1.88791 12.0835 1.98936 12.0931 2.09082 12.0931C7.96448 12.0931 13.8381 12.0943 19.7118 12.0895C20.2106 12.0895 20.6442 12.2236 21.0561 12.511C21.5223 12.8372 21.7361 13.278 21.7639 13.8215C21.7832 14.2032 21.7687 14.5861 21.7687 14.9678C21.7687 17.16 21.7228 19.3546 21.7856 21.5444C21.8243 22.8754 20.7252 23.5916 19.7118 23.5832C16.7756 23.5578 13.8381 23.5747 10.9019 23.5747H10.9007ZM8.97905 20.7883C9.64577 20.7883 10.2473 20.8028 10.8488 20.7822C11.2051 20.7702 11.5735 20.752 11.9117 20.6506C12.5796 20.4501 13.1304 20.0974 13.4516 19.4162C13.7367 18.8123 13.8176 18.1939 13.7753 17.5501C13.6896 16.2565 13.0832 15.4895 11.9141 15.2395C11.6242 15.1779 11.3259 15.132 11.0299 15.1248C10.3536 15.1091 9.67718 15.1212 8.98026 15.1212V20.7871L8.97905 20.7883ZM3.82647 15.1236C3.7238 15.9739 3.75037 20.3341 3.85062 20.7545H5.27827C5.3906 20.1155 5.22634 19.4899 5.38336 18.8545C5.60922 18.8545 5.80851 18.863 6.00659 18.8533C7.70963 18.7736 8.11063 17.5549 7.79055 16.2094C7.60576 15.4364 6.91609 15.1876 6.21192 15.1369C5.43167 15.0801 4.64417 15.1236 3.82647 15.1236ZM18.2346 15.1707C17.3553 15.0716 15.3165 15.0994 14.9095 15.2081C14.8092 16.7082 14.8539 20.351 14.9795 20.7798C15.4506 20.7895 15.9241 20.8028 16.4289 20.7726C16.4289 20.374 16.4156 20.0346 16.4326 19.6964C16.4495 19.3449 16.354 18.9826 16.5171 18.6021H18.0885V17.4571C17.5244 17.3593 16.9809 17.5054 16.4205 17.3544C16.4627 17.0042 16.3649 16.6684 16.5123 16.2855H18.2346V15.1719V15.1707Z" fill="#111013"/>
<path d="M2.42849 24.4367H3.36939C3.38388 24.6107 3.40804 24.7653 3.40804 24.9187C3.41166 25.8451 3.40925 26.7703 3.41046 27.6967C3.41046 27.838 3.39838 27.9805 3.4177 28.1194C3.50346 28.7197 3.81629 28.9878 4.42986 29.0023C4.49025 29.0035 4.55064 29.0023 4.61104 29.0023C10.9316 29.0023 17.2521 28.9999 23.5727 29.0084C23.964 29.0084 24.3022 28.9588 24.4882 28.5844C24.574 28.4105 24.6066 28.2052 24.638 28.0095C24.661 27.8718 24.6428 27.7281 24.6428 27.588C24.6428 20.9654 24.638 14.3429 24.6489 7.72043C24.6501 6.87012 24.5547 6.7602 23.6874 6.78194C22.7224 6.8061 21.7549 6.80006 20.7887 6.78315C20.0446 6.76987 19.4347 6.48603 19.0385 5.81689C18.8875 5.56325 18.8416 5.30115 18.8441 5.01248C18.8501 3.9049 18.8223 2.79733 18.8573 1.69096C18.873 1.21024 18.6363 0.975924 18.1411 0.978339C13.6118 0.996457 9.08241 0.988002 4.55427 0.98921C3.71845 0.98921 3.41408 1.29962 3.41166 2.16684C3.40683 4.84459 3.41046 7.52113 3.41046 10.1989C3.41046 10.5202 3.41046 10.8414 3.41046 11.1748C3.10971 11.3258 2.81379 11.2497 2.47439 11.2473C2.45869 11.0842 2.4297 10.932 2.4297 10.7798C2.42729 7.84121 2.41883 4.90257 2.43333 1.96272C2.43816 1.01699 2.89955 0.300749 3.78126 0.0688461C3.97089 0.0193252 4.17622 0.00966261 4.3743 0.00966261C9.10415 0.00603913 13.8352 0.00845478 18.5651 0C18.8912 0 19.1267 0.0893791 19.3586 0.323697C21.3443 2.32386 23.3372 4.31556 25.3398 6.29881C25.5596 6.51622 25.6405 6.73605 25.6393 7.04163C25.632 14.0869 25.6345 21.1321 25.632 28.1774C25.632 29.2149 24.8844 29.9831 23.8698 29.9831C17.3476 29.9867 10.8265 29.9722 4.30425 30C3.35852 30.0036 2.45627 29.0796 2.43695 28.2354C2.40796 26.9901 2.4297 25.7448 2.4297 24.4379L2.42849 24.4367ZM19.8284 2.33473C19.8284 3.18625 19.8224 3.98703 19.8296 4.78662C19.8357 5.4014 20.1026 5.75288 20.7065 5.78549C21.5568 5.83139 22.4108 5.79757 23.2671 5.79757C22.1245 4.64651 21.0097 3.52444 19.8272 2.33473H19.8284Z" fill="#111013"/>
<path d="M10.4431 16.3119C10.6521 16.3119 10.8284 16.3094 11.0036 16.3119C11.6497 16.3203 12.0447 16.5788 12.1619 17.202C12.2778 17.8229 12.3467 18.463 12 19.0633C11.8128 19.3882 11.5519 19.5633 11.1908 19.5887C10.9552 19.6056 10.7173 19.5923 10.4914 19.5923C10.3815 19.1237 10.355 17.3192 10.4443 16.3119H10.4431Z" fill="#111013"/>
<path d="M5.33447 16.3424C5.7403 16.3158 6.11956 16.1938 6.35025 16.5779C6.48674 16.805 6.48311 17.0743 6.33213 17.3123C6.10869 17.6662 5.77653 17.7157 5.36587 17.6311C5.27408 17.2229 5.32722 16.8134 5.33326 16.3436L5.33447 16.3424Z" fill="#111013"/>
</svg>
