<svg width="41" height="41" viewBox="0 0 41 41" fill="none" xmlns="http://www.w3.org/2000/svg">
<path d="M26.6074 13.8205C23.1591 10.4729 19.0512 8.71207 14.2336 8.57781C13.7558 8.56481 13.2299 8.46312 12.8216 8.23511C12.1157 7.84022 11.8684 6.99552 12.0977 6.23335C12.3368 5.43858 12.9874 4.92813 13.864 4.91573C15.6339 4.89176 17.3772 5.10814 19.0951 5.51999C28.6403 7.80504 35.5007 16.491 35.5334 26.32C35.5362 27.1534 35.2905 27.8303 34.5039 28.2243C33.4148 28.7682 32.1404 28.1495 31.9094 26.9588C31.8586 26.6977 31.8588 26.424 31.852 26.1556C31.7239 21.3371 29.9411 17.2355 26.6074 13.8205Z" fill="#030611"/>
<path d="M24.9055 15.5189C27.8886 18.5639 29.4252 22.2194 29.4683 26.5077C29.4766 27.2829 29.1511 27.8853 28.4632 28.2437C27.7965 28.5914 27.1315 28.5185 26.526 28.0844C25.975 27.6889 25.8023 27.1026 25.7917 26.4523C25.7684 25.0523 25.5135 23.6998 25.0393 22.3826C23.4722 18.0267 19.1431 14.8464 14.5096 14.67C14.3019 14.6621 14.0951 14.6567 13.8875 14.6418C12.6743 14.5543 11.9355 13.8014 11.9928 12.7152C12.0472 11.6686 12.8579 10.9683 14.031 10.9732C16.0876 10.9815 18.0625 11.3887 19.9531 12.1836C21.8244 12.9697 23.4752 14.0797 24.9055 15.5189Z" fill="#030611"/>
<path d="M20.3507 19.5118C22.4336 21.6796 23.3873 23.9022 23.4294 26.5069C23.4469 27.5955 22.699 28.424 21.678 28.4722C20.6438 28.5213 19.8195 27.7943 19.78 26.6944C19.7011 24.4805 18.7788 22.7594 16.9233 21.5631C15.9991 20.9676 14.9626 20.7052 13.8644 20.6816C13.1508 20.666 12.5737 20.3964 12.2137 19.7678C11.5094 18.5386 12.3789 17.0381 13.8248 17.0208C15.4935 16.9999 17.076 17.3894 18.5114 18.2292C19.2725 18.674 19.9637 19.2379 20.3507 19.5118Z" fill="#030611"/>
<path d="M15.9637 28.8781C14.7354 30.1082 12.779 30.1241 11.5563 28.912C10.3143 27.6824 10.3277 25.7005 11.5842 24.4598C12.8213 23.2403 14.7679 23.2464 15.987 24.4743C17.2052 25.7031 17.1946 27.6437 15.9637 28.8781Z" fill="#030611"/>
</svg>
