<svg width="12" height="12" viewBox="0 0 12 12" fill="none" xmlns="http://www.w3.org/2000/svg">
<path d="M9.55008 7.07907C9.3947 7.2294 9.32331 7.4468 9.3587 7.66001L9.89203 10.6066C9.93703 10.8564 9.83144 11.1091 9.62207 11.2535C9.4169 11.4032 9.14393 11.4211 8.92016 11.3014L6.26311 9.91789C6.17072 9.86878 6.06813 9.84243 5.96315 9.83943H5.80057C5.74417 9.84782 5.68898 9.86578 5.63859 9.89333L2.98094 11.2834C2.84955 11.3493 2.70077 11.3726 2.55499 11.3493C2.19984 11.2822 1.96287 10.9444 2.02106 10.5881L2.55499 7.64145C2.59039 7.42644 2.519 7.20784 2.36362 7.05512L0.1973 4.95894C0.0161234 4.78347 -0.0468684 4.51995 0.0359208 4.28218C0.11631 4.04501 0.321483 3.87193 0.569251 3.833L3.55086 3.40119C3.77763 3.37783 3.97681 3.24008 4.07879 3.03646L5.39262 0.347366C5.42382 0.287475 5.46401 0.232376 5.51261 0.185661L5.5666 0.143738C5.59479 0.112594 5.62719 0.0868414 5.66319 0.0658797L5.72858 0.0419234L5.83056 0H6.08313C6.3087 0.0233574 6.50728 0.158111 6.61106 0.359344L7.94229 3.03646C8.03828 3.2323 8.22485 3.36825 8.44022 3.40119L11.4218 3.833C11.6738 3.86894 11.8844 4.04262 11.9678 4.28218C12.0464 4.52234 11.9786 4.78586 11.7938 4.95894L9.55008 7.07907Z" fill="#FFA121"/>
</svg>
