<svg width="14" height="14" viewBox="0 0 14 14" fill="none" xmlns="http://www.w3.org/2000/svg">
<path d="M12.982 10.798C12.982 11.014 12.934 11.236 12.832 11.452C12.73 11.668 12.598 11.872 12.424 12.064C12.13 12.388 11.806 12.622 11.44 12.772C11.08 12.922 10.69 13 10.27 13C9.658 13 9.004 12.856 8.314 12.562C7.624 12.268 6.934 11.872 6.25 11.374C5.56 10.87 4.906 10.312 4.282 9.694C3.664 9.07 3.106 8.416 2.608 7.732C2.116 7.048 1.72 6.364 1.432 5.686C1.144 5.002 1 4.348 1 3.724C1 3.316 1.072 2.926 1.216 2.566C1.36 2.2 1.588 1.864 1.906 1.564C2.29 1.186 2.71 1 3.154 1C3.322 1 3.49 1.036 3.64 1.108C3.796 1.18 3.934 1.288 4.042 1.444L5.434 3.406C5.542 3.556 5.62 3.694 5.674 3.826C5.728 3.952 5.758 4.078 5.758 4.192C5.758 4.336 5.716 4.48 5.632 4.618C5.554 4.756 5.44 4.9 5.296 5.044L4.84 5.518C4.774 5.584 4.744 5.662 4.744 5.758C4.744 5.806 4.75 5.848 4.762 5.896C4.78 5.944 4.798 5.98 4.81 6.016C4.918 6.214 5.104 6.472 5.368 6.784C5.638 7.096 5.926 7.414 6.238 7.732C6.562 8.05 6.874 8.344 7.192 8.614C7.504 8.878 7.762 9.058 7.966 9.166C7.996 9.178 8.032 9.196 8.074 9.214C8.122 9.232 8.17 9.238 8.224 9.238C8.326 9.238 8.404 9.202 8.47 9.136L8.926 8.686C9.076 8.536 9.22 8.422 9.358 8.35C9.496 8.266 9.634 8.224 9.784 8.224C9.898 8.224 10.018 8.248 10.15 8.302C10.282 8.356 10.42 8.434 10.57 8.536L12.556 9.946C12.712 10.054 12.82 10.18 12.886 10.33C12.946 10.48 12.982 10.63 12.982 10.798Z" stroke="#FE7535" stroke-miterlimit="10"/>
<path d="M10.9008 5.20001C10.9008 4.84001 10.6188 4.28801 10.1988 3.83801C9.81478 3.42401 9.30478 3.10001 8.80078 3.10001" stroke="#FE7535" stroke-linecap="round" stroke-linejoin="round"/>
<path d="M13.0008 5.2C13.0008 2.878 11.1228 1 8.80078 1" stroke="#FE7535" stroke-linecap="round" stroke-linejoin="round"/>
</svg>
