<svg width="12" height="11" viewBox="0 0 12 11" fill="none" xmlns="http://www.w3.org/2000/svg">
<path d="M8.82233 6.59979C8.69945 6.71868 8.64299 6.89062 8.67098 7.05924L9.09277 9.38961C9.12835 9.58712 9.04485 9.787 8.87926 9.90115C8.717 10.0196 8.50112 10.0338 8.32415 9.93905L6.22279 8.84491C6.14972 8.80607 6.06859 8.78523 5.98556 8.78286H5.85698C5.81238 8.78949 5.76873 8.8037 5.72888 8.82549L3.62704 9.92484C3.52314 9.97694 3.40547 9.99541 3.29018 9.97694C3.0093 9.92389 2.82189 9.65675 2.86791 9.37493L3.29018 7.04455C3.31817 6.87451 3.26171 6.70163 3.13883 6.58085L1.42557 4.92306C1.28228 4.78428 1.23246 4.57588 1.29794 4.38784C1.36152 4.20027 1.52378 4.06338 1.71973 4.0326L4.07777 3.69109C4.25712 3.67262 4.41464 3.56368 4.4953 3.40264L5.53435 1.27594C5.55902 1.22857 5.59081 1.185 5.62924 1.14805L5.67194 1.1149C5.69424 1.09027 5.71986 1.0699 5.74833 1.05332L5.80005 1.03438L5.88071 1.00122H6.08045C6.25885 1.01969 6.41589 1.12627 6.49797 1.28541L7.55079 3.40264C7.6267 3.55752 7.77426 3.66504 7.94459 3.69109L10.3026 4.0326C10.5019 4.06102 10.6684 4.19838 10.7344 4.38784C10.7965 4.57777 10.7429 4.78618 10.5968 4.92306L8.82233 6.59979Z" stroke="white"/>
</svg>
