<svg width="10" height="9" viewBox="0 0 10 9" fill="none" xmlns="http://www.w3.org/2000/svg">
<path d="M8.00592 5.59979C7.88304 5.71868 7.82658 5.89062 7.85457 6.05924L8.27636 8.38961C8.31195 8.58712 8.22844 8.787 8.06286 8.90115C7.90059 9.01957 7.68472 9.03378 7.50774 8.93905L5.40638 7.84491C5.33332 7.80607 5.25218 7.78523 5.16915 7.78286H5.04058C4.99598 7.78949 4.95233 7.8037 4.91247 7.82549L2.81064 8.92484C2.70673 8.97694 2.58906 8.99541 2.47377 8.97694C2.19289 8.92389 2.00548 8.65675 2.05151 8.37493L2.47377 6.04455C2.50177 5.87451 2.4453 5.70163 2.32242 5.58085L0.609162 3.92306C0.465876 3.78428 0.416059 3.57588 0.481533 3.38784C0.54511 3.20027 0.707374 3.06338 0.903324 3.0326L3.26137 2.69109C3.44071 2.67262 3.59823 2.56368 3.67889 2.40264L4.71795 0.275939C4.74262 0.228574 4.77441 0.184998 4.81284 0.148053L4.85554 0.114897C4.87784 0.0902674 4.90346 0.0699003 4.93193 0.0533225L4.98364 0.0343764L5.0643 0.0012207H5.26404C5.44244 0.0196932 5.59948 0.126265 5.68157 0.285412L6.73438 2.40264C6.8103 2.55752 6.95785 2.66504 7.12818 2.69109L9.48622 3.0326C9.6855 3.06102 9.85203 3.19838 9.91798 3.38784C9.98013 3.57777 9.92652 3.78618 9.78039 3.92306L8.00592 5.59979Z" fill="white"/>
</svg>
