<svg width="14" height="14" viewBox="0 0 22 22" fill="none" xmlns="http://www.w3.org/2000/svg">
<path d="M16 1H6C3.23858 1 1 3.23858 1 6V16C1 18.7614 3.23858 21 6 21H16C18.7614 21 21 18.7614 21 16V6C21 3.23858 18.7614 1 16 1Z" stroke="#1E1E2F" stroke-width="1.5" stroke-linecap="round" stroke-linejoin="round"/>
<path d="M14.9997 10.3693C15.1231 11.2016 14.981 12.0515 14.5935 12.7983C14.206 13.5451 13.5929 14.1507 12.8413 14.529C12.0898 14.9073 11.2382 15.0389 10.4075 14.9053C9.57683 14.7716 8.80947 14.3794 8.21455 13.7845C7.61962 13.1896 7.22744 12.4222 7.09377 11.5915C6.96011 10.7609 7.09177 9.90922 7.47003 9.1577C7.84829 8.40618 8.45389 7.79307 9.20069 7.40557C9.94749 7.01807 10.7975 6.87591 11.6297 6.99932C12.4786 7.12521 13.2646 7.52079 13.8714 8.12763C14.4782 8.73447 14.8738 9.5204 14.9997 10.3693Z" stroke="#1E1E2F" stroke-width="1.5" stroke-linecap="round" stroke-linejoin="round"/>
<path d="M16.5 5.49988H16.51" stroke="#1E1E2F" stroke-width="1.5" stroke-linecap="round" stroke-linejoin="round"/>
</svg>
