<svg width="14" height="14" viewBox="0 0 14 14" fill="none" xmlns="http://www.w3.org/2000/svg">
<path d="M9.80156 4.2002C10.9155 4.2002 11.9838 4.64269 12.7714 5.43035C13.5591 6.218 14.0016 7.28629 14.0016 8.4002V13.3002H11.2016V8.4002C11.2016 8.02889 11.0541 7.6728 10.7915 7.41025C10.529 7.1477 10.1729 7.0002 9.80156 7.0002C9.43026 7.0002 9.07416 7.1477 8.81161 7.41025C8.54906 7.6728 8.40156 8.02889 8.40156 8.4002V13.3002H5.60156V8.4002C5.60156 7.28629 6.04406 6.218 6.83171 5.43035C7.61937 4.64269 8.68765 4.2002 9.80156 4.2002Z" fill="#03041C"/>
<path d="M2.8 4.90039H0V13.3004H2.8V4.90039Z" fill="#03041C"/>
<path d="M1.4 2.8C2.1732 2.8 2.8 2.1732 2.8 1.4C2.8 0.626801 2.1732 0 1.4 0C0.626801 0 0 0.626801 0 1.4C0 2.1732 0.626801 2.8 1.4 2.8Z" fill="#03041C"/>
</svg>
