<svg width="16" height="18" viewBox="0 0 16 18" fill="none" xmlns="http://www.w3.org/2000/svg">
<path d="M12.6693 5.66667C13.9579 5.66667 15.0026 4.622 15.0026 3.33333C15.0026 2.04467 13.9579 1 12.6693 1C11.3806 1 10.3359 2.04467 10.3359 3.33333C10.3359 4.622 11.3806 5.66667 12.6693 5.66667Z" stroke="#ffffff" stroke-width="1.5" stroke-linecap="round" stroke-linejoin="round"/>
<path d="M3.33333 11.111C4.622 11.111 5.66667 10.0663 5.66667 8.77767C5.66667 7.489 4.622 6.44434 3.33333 6.44434C2.04467 6.44434 1 7.489 1 8.77767C1 10.0663 2.04467 11.111 3.33333 11.111Z" stroke="#ffffff" stroke-width="1.5" stroke-linecap="round" stroke-linejoin="round"/>
<path d="M12.6693 16.5553C13.9579 16.5553 15.0026 15.5107 15.0026 14.222C15.0026 12.9333 13.9579 11.8887 12.6693 11.8887C11.3806 11.8887 10.3359 12.9333 10.3359 14.222C10.3359 15.5107 11.3806 16.5553 12.6693 16.5553Z" stroke="#ffffff" stroke-width="1.5" stroke-linecap="round" stroke-linejoin="round"/>
<path d="M5.34766 9.95215L10.6599 13.0477" stroke="#ffffff" stroke-width="1.5" stroke-linecap="round" stroke-linejoin="round"/>
<path d="M10.6521 4.50781L5.34766 7.60337" stroke="#ffffff" stroke-width="1.5" stroke-linecap="round" stroke-linejoin="round"/>
</svg>
