<svg width="16" height="16" viewBox="0 0 16 16" fill="none" xmlns="http://www.w3.org/2000/svg">
<path d="M11.5 1H4.5C2.567 1 1 2.567 1 4.5V11.5C1 13.433 2.567 15 4.5 15H11.5C13.433 15 15 13.433 15 11.5V4.5C15 2.567 13.433 1 11.5 1Z" stroke="white" stroke-width="1.5" stroke-linecap="round" stroke-linejoin="round"/>
<path d="M10.8002 7.55872C10.8866 8.14129 10.7871 8.73627 10.5158 9.25903C10.2446 9.78179 9.81539 10.2057 9.28932 10.4705C8.76326 10.7353 8.1671 10.8274 7.58564 10.7339C7.00417 10.6403 6.46702 10.3658 6.05057 9.94934C5.63413 9.53289 5.3596 8.99573 5.26603 8.41427C5.17247 7.83281 5.26463 7.23665 5.52941 6.71058C5.7942 6.18452 6.21812 5.75534 6.74087 5.48409C7.26363 5.21284 7.85861 5.11333 8.44119 5.19972C9.03543 5.28784 9.58558 5.56475 10.0104 5.98954C10.4352 6.41433 10.7121 6.96448 10.8002 7.55872Z" stroke="white" stroke-width="1.5" stroke-linecap="round" stroke-linejoin="round"/>
<path d="M11.8477 4.1499H11.8547" stroke="white" stroke-width="1.5" stroke-linecap="round" stroke-linejoin="round"/>
</svg>
