<svg width="14" height="15" viewBox="0 0 14 15" fill="none" xmlns="http://www.w3.org/2000/svg">
<path d="M13.9996 10.5025V12.6142C14.0004 12.8103 13.9602 13.0043 13.8817 13.184C13.8031 13.3636 13.6879 13.5248 13.5435 13.6574C13.399 13.7899 13.2285 13.8908 13.0428 13.9536C12.8571 14.0164 12.6603 14.0397 12.465 14.0221C10.299 13.7867 8.2183 13.0466 6.39023 11.8611C4.68945 10.7803 3.24748 9.33834 2.16674 7.63756C0.977102 5.80119 0.236769 3.71041 0.00571348 1.53461C-0.011877 1.33995 0.0112568 1.14376 0.0736417 0.958538C0.136027 0.773312 0.236296 0.603106 0.368066 0.458755C0.499835 0.314404 0.660218 0.199072 0.839003 0.120101C1.01779 0.0411309 1.21106 0.000252306 1.40651 6.82463e-05H3.51826C3.85987 -0.00329397 4.19105 0.117678 4.45007 0.340435C4.70909 0.563192 4.87828 0.872535 4.92609 1.2108C5.01522 1.88661 5.18052 2.55016 5.41883 3.18881C5.51354 3.44076 5.53403 3.71457 5.47789 3.97781C5.42175 4.24105 5.29132 4.48268 5.10207 4.67407L4.20809 5.56804C5.21016 7.33033 6.6693 8.78948 8.43159 9.79154L9.32556 8.89757C9.51695 8.70831 9.75858 8.57788 10.0218 8.52174C10.2851 8.4656 10.5589 8.4861 10.8108 8.58081C11.4495 8.81912 12.113 8.98442 12.7888 9.07355C13.1308 9.12179 13.4431 9.29402 13.6663 9.55749C13.8895 9.82095 14.0081 10.1573 13.9996 10.5025Z" fill="white"/>
</svg>
