<svg width="132" height="42" viewBox="0 0 132 42" fill="none" xmlns="http://www.w3.org/2000/svg">
<path d="M29.657 0C20.3495 0 12.5288 6.35833 10.2973 14.9681H8.0492C7.38793 14.9681 6.85162 15.5044 6.85162 16.1656C6.85162 16.8269 7.38793 17.3632 8.0492 17.3632H9.83008H14.4789H15.2092C15.8705 17.3632 16.4068 16.8269 16.4068 16.1656C16.4068 15.5044 15.8705 14.9681 15.2092 14.9681H13.7584C13.3299 14.9681 13.0336 14.5434 13.1762 14.1393C15.5769 7.33309 22.0641 2.45542 29.6919 2.45542C39.3632 2.45542 47.2027 10.2955 47.2027 19.9663C47.2027 20.152 47.1988 20.3373 47.1933 20.5219L34.8808 8.20999V13.6511C34.8808 14.3743 34.2947 14.9598 33.5721 14.9598H21.4382C20.9074 14.9598 20.4772 15.3899 20.4772 15.9207V16.394C20.4772 16.9248 20.9074 17.3549 21.4382 17.3549H31.24C31.8072 17.3549 32.2639 17.8282 32.2369 18.401C32.2114 18.9379 31.7492 19.3509 31.2118 19.3509H15.7262C15.1954 19.3509 14.7653 19.7811 14.7653 20.3118V20.7851C14.7653 21.3159 15.1954 21.7461 15.7262 21.7461H35.4486C36.006 21.7461 36.4544 22.211 36.4278 22.7739C36.4029 23.3014 35.9485 23.7072 35.4204 23.7072H10.0015H4.04621C3.38494 23.7072 2.84863 24.2435 2.84863 24.9048C2.84863 25.566 3.38494 26.1023 4.04621 26.1023H10.6075C13.1878 34.1636 20.7399 40 29.657 40C40.7028 40 49.657 31.0458 49.657 20C49.657 8.95419 40.7028 0 29.657 0ZM34.4346 19.5057C33.864 19.5057 33.4018 19.0435 33.4018 18.4729C33.4018 17.9023 33.864 17.4401 34.4346 17.4401C35.0052 17.4401 35.4674 17.9023 35.4674 18.4729C35.4674 19.0429 35.0047 19.5057 34.4346 19.5057ZM29.6913 37.4771C22.5556 37.4771 16.4173 33.2082 13.6893 27.0854C13.4836 26.6237 13.8231 26.1034 14.3285 26.1034H33.5721C34.2947 26.1034 34.8808 26.6895 34.8808 27.4122V32.8532L47.1917 20.5424C46.8881 29.9466 39.1696 37.4771 29.6913 37.4771Z" fill="#0C513F"/>
<path d="M19.5563 16.1656C19.5563 15.5044 19.02 14.9681 18.3587 14.9681C17.6974 14.9681 17.1611 15.5044 17.1611 16.1656C17.1611 16.8269 17.6974 17.3632 18.3587 17.3632C19.02 17.3632 19.5563 16.8269 19.5563 16.1656Z" fill="#0C513F"/>
<path d="M13.6 20.4954C13.5696 19.8491 13.0128 19.3514 12.3654 19.3514H1.188C0.521204 19.3514 -0.0162131 19.9005 0.000373899 20.5678C0.000373899 20.5778 0.000926797 20.5883 0.000926797 20.5982C0.0169609 21.2424 0.544426 21.756 1.18911 21.756H12.3997C13.0825 21.7555 13.6326 21.186 13.6 20.4954Z" fill="#0C513F"/>
<path d="M65.2627 17H62.1963L62.2158 14.8906H65.2627C66.0895 14.8906 66.7829 14.7083 67.3428 14.3438C67.9027 13.9727 68.3258 13.4421 68.6123 12.752C68.8988 12.0553 69.042 11.222 69.042 10.252V9.51953C69.042 8.77083 68.9606 8.11003 68.7979 7.53711C68.6351 6.96419 68.3942 6.48242 68.0752 6.0918C67.7627 5.70117 67.3753 5.40495 66.9131 5.20312C66.4508 5.0013 65.9202 4.90039 65.3213 4.90039H62.1377V2.78125H65.3213C66.2718 2.78125 67.1377 2.94076 67.9189 3.25977C68.7067 3.57878 69.387 4.03776 69.96 4.63672C70.5394 5.22917 70.9821 5.9388 71.2881 6.76562C71.6006 7.59245 71.7568 8.51693 71.7568 9.53906V10.252C71.7568 11.2676 71.6006 12.1921 71.2881 13.0254C70.9821 13.8522 70.5394 14.5618 69.96 15.1543C69.387 15.7467 68.7035 16.2025 67.9092 16.5215C67.1149 16.8405 66.2327 17 65.2627 17ZM63.7002 2.78125V17H61.0146V2.78125H63.7002ZM76.5811 6.43359V17H73.9932V6.43359H76.5811ZM73.8174 3.66992C73.8174 3.28581 73.9476 2.9668 74.208 2.71289C74.4749 2.45898 74.833 2.33203 75.2822 2.33203C75.7314 2.33203 76.0863 2.45898 76.3467 2.71289C76.6136 2.9668 76.7471 3.28581 76.7471 3.66992C76.7471 4.04753 76.6136 4.36328 76.3467 4.61719C76.0863 4.87109 75.7314 4.99805 75.2822 4.99805C74.833 4.99805 74.4749 4.87109 74.208 4.61719C73.9476 4.36328 73.8174 4.04753 73.8174 3.66992ZM78.583 11.8242V11.6191C78.583 10.8444 78.6937 10.1315 78.915 9.48047C79.1364 8.82292 79.4587 8.25326 79.8818 7.77148C80.305 7.28971 80.8226 6.91536 81.4346 6.64844C82.0465 6.375 82.7432 6.23828 83.5244 6.23828C84.3187 6.23828 85.0218 6.375 85.6338 6.64844C86.2523 6.91536 86.7731 7.28971 87.1963 7.77148C87.6195 8.25326 87.9417 8.82292 88.1631 9.48047C88.3844 10.1315 88.4951 10.8444 88.4951 11.6191V11.8242C88.4951 12.5924 88.3844 13.3053 88.1631 13.9629C87.9417 14.6139 87.6195 15.1836 87.1963 15.6719C86.7731 16.1536 86.2555 16.528 85.6436 16.7949C85.0316 17.0618 84.3317 17.1953 83.5439 17.1953C82.7627 17.1953 82.0628 17.0618 81.4443 16.7949C80.8258 16.528 80.305 16.1536 79.8818 15.6719C79.4587 15.1836 79.1364 14.6139 78.915 13.9629C78.6937 13.3053 78.583 12.5924 78.583 11.8242ZM81.1611 11.6191V11.8242C81.1611 12.2865 81.2067 12.7194 81.2979 13.123C81.389 13.5267 81.529 13.8815 81.7178 14.1875C81.9066 14.4935 82.1507 14.7344 82.4502 14.9102C82.7562 15.0794 83.1208 15.1641 83.5439 15.1641C83.9606 15.1641 84.3187 15.0794 84.6182 14.9102C84.9176 14.7344 85.1618 14.4935 85.3506 14.1875C85.5459 13.8815 85.6891 13.5267 85.7803 13.123C85.8714 12.7194 85.917 12.2865 85.917 11.8242V11.6191C85.917 11.1634 85.8714 10.737 85.7803 10.3398C85.6891 9.9362 85.5459 9.58138 85.3506 9.27539C85.1618 8.96289 84.9144 8.71875 84.6084 8.54297C84.3089 8.36068 83.9476 8.26953 83.5244 8.26953C83.1077 8.26953 82.7497 8.36068 82.4502 8.54297C82.1507 8.71875 81.9066 8.96289 81.7178 9.27539C81.529 9.58138 81.389 9.9362 81.2979 10.3398C81.2067 10.737 81.1611 11.1634 81.1611 11.6191ZM70.4385 34.8906V37H62.8799V34.8906H70.4385ZM63.7002 22.7812V37H61.0146V22.7812H63.7002ZM69.4521 28.6504V30.7109H62.8799V28.6504H69.4521ZM70.4092 22.7812V24.9004H62.8799V22.7812H70.4092ZM74.1299 26.4336L76.0146 29.793L77.9287 26.4336H80.7314L77.626 31.6094L80.8584 37H78.0557L76.0342 33.4746L74.0029 37H71.2002L74.4229 31.6094L71.3369 26.4336H74.1299ZM84.8037 28.4648V41.0625H82.2158V26.4336H84.6084L84.8037 28.4648ZM91.5908 31.6094V31.8145C91.5908 32.5827 91.4997 33.2956 91.3174 33.9531C91.1416 34.6042 90.8812 35.1738 90.5361 35.6621C90.1911 36.1439 89.7614 36.5215 89.2471 36.7949C88.7393 37.0618 88.1533 37.1953 87.4893 37.1953C86.8382 37.1953 86.2718 37.0716 85.79 36.8242C85.3083 36.5703 84.9014 36.2122 84.5693 35.75C84.2373 35.2878 83.9704 34.7507 83.7686 34.1387C83.5732 33.5202 83.4268 32.8464 83.3291 32.1172V31.4629C83.4268 30.6882 83.5732 29.985 83.7686 29.3535C83.9704 28.7155 84.2373 28.1654 84.5693 27.7031C84.9014 27.2344 85.305 26.873 85.7803 26.6191C86.262 26.3652 86.8252 26.2383 87.4697 26.2383C88.1403 26.2383 88.7295 26.3652 89.2373 26.6191C89.7516 26.873 90.1846 27.2376 90.5361 27.7129C90.8877 28.1882 91.1514 28.7546 91.3271 29.4121C91.5029 30.0697 91.5908 30.8021 91.5908 31.6094ZM89.0029 31.8145V31.6094C89.0029 31.1406 88.9606 30.7077 88.876 30.3105C88.7913 29.9069 88.6611 29.5553 88.4854 29.2559C88.3096 28.9499 88.0817 28.7122 87.8018 28.543C87.5218 28.3737 87.1833 28.2891 86.7861 28.2891C86.389 28.2891 86.0472 28.3542 85.7607 28.4844C85.4743 28.6146 85.2399 28.8001 85.0576 29.041C84.8753 29.2819 84.7321 29.5684 84.6279 29.9004C84.5303 30.2259 84.4652 30.5872 84.4326 30.9844V32.6055C84.4912 33.0872 84.6051 33.5202 84.7744 33.9043C84.9437 34.2884 85.1911 34.5944 85.5166 34.8223C85.8486 35.0501 86.2783 35.1641 86.8057 35.1641C87.2028 35.1641 87.5413 35.0762 87.8213 34.9004C88.1012 34.7246 88.3291 34.4837 88.5049 34.1777C88.6807 33.8652 88.8076 33.5072 88.8857 33.1035C88.9639 32.6999 89.0029 32.2702 89.0029 31.8145ZM96.0537 28.5918V37H93.4756V26.4336H95.917L96.0537 28.5918ZM99.2666 26.3652L99.2275 28.7676C99.0843 28.7415 98.9215 28.722 98.7393 28.709C98.5635 28.696 98.3975 28.6895 98.2412 28.6895C97.8441 28.6895 97.4958 28.7448 97.1963 28.8555C96.8968 28.9596 96.6462 29.1126 96.4443 29.3145C96.249 29.5163 96.0993 29.7637 95.9951 30.0566C95.891 30.3431 95.8324 30.6686 95.8193 31.0332L95.2627 30.9648C95.2627 30.2943 95.3311 29.6725 95.4678 29.0996C95.6045 28.5267 95.8031 28.0254 96.0635 27.5957C96.3239 27.166 96.6494 26.834 97.04 26.5996C97.4372 26.3587 97.8929 26.2383 98.4072 26.2383C98.5505 26.2383 98.7035 26.2513 98.8662 26.2773C99.0355 26.2969 99.1689 26.3262 99.2666 26.3652ZM105.233 37.1953C104.433 37.1953 103.713 37.0651 103.075 36.8047C102.437 36.5443 101.894 36.1829 101.444 35.7207C101.002 35.252 100.66 34.7083 100.419 34.0898C100.185 33.4648 100.067 32.7943 100.067 32.0781V31.6875C100.067 30.8737 100.185 30.1348 100.419 29.4707C100.653 28.8001 100.985 28.224 101.415 27.7422C101.845 27.2604 102.359 26.8893 102.958 26.6289C103.557 26.3685 104.218 26.2383 104.94 26.2383C105.689 26.2383 106.35 26.3652 106.923 26.6191C107.496 26.8665 107.974 27.2181 108.358 27.6738C108.743 28.1296 109.032 28.6764 109.228 29.3145C109.423 29.946 109.521 30.6458 109.521 31.4141V32.498H101.239V30.7207H106.981V30.5254C106.968 30.1152 106.89 29.7409 106.747 29.4023C106.604 29.0573 106.382 28.7839 106.083 28.582C105.784 28.3737 105.396 28.2695 104.921 28.2695C104.537 28.2695 104.201 28.3542 103.915 28.5234C103.635 28.6862 103.401 28.9206 103.212 29.2266C103.03 29.526 102.893 29.8841 102.802 30.3008C102.711 30.7174 102.665 31.1797 102.665 31.6875V32.0781C102.665 32.5208 102.724 32.931 102.841 33.3086C102.965 33.6862 103.144 34.015 103.378 34.2949C103.619 34.5684 103.905 34.7832 104.237 34.9395C104.576 35.0892 104.96 35.1641 105.39 35.1641C105.93 35.1641 106.418 35.0599 106.854 34.8516C107.297 34.6367 107.681 34.321 108.007 33.9043L109.306 35.252C109.084 35.5775 108.785 35.89 108.407 36.1895C108.036 36.4889 107.587 36.7331 107.06 36.9219C106.532 37.1042 105.924 37.1953 105.233 37.1953ZM117.06 34.1094C117.06 33.888 117.001 33.6895 116.884 33.5137C116.767 33.3379 116.545 33.1784 116.22 33.0352C115.901 32.8854 115.432 32.7454 114.813 32.6152C114.267 32.498 113.762 32.3516 113.3 32.1758C112.838 32 112.44 31.7884 112.108 31.541C111.776 31.2871 111.516 30.9909 111.327 30.6523C111.145 30.3073 111.054 29.9102 111.054 29.4609C111.054 29.0247 111.148 28.6146 111.337 28.2305C111.526 27.8398 111.799 27.498 112.157 27.2051C112.515 26.9056 112.951 26.6712 113.466 26.502C113.98 26.3262 114.56 26.2383 115.204 26.2383C116.103 26.2383 116.874 26.3848 117.519 26.6777C118.17 26.9707 118.668 27.3743 119.013 27.8887C119.358 28.3965 119.53 28.9694 119.53 29.6074H116.952C116.952 29.3275 116.887 29.0736 116.757 28.8457C116.633 28.6178 116.441 28.4355 116.181 28.2988C115.92 28.1556 115.591 28.084 115.194 28.084C114.836 28.084 114.534 28.1426 114.286 28.2598C114.045 28.377 113.863 28.5299 113.739 28.7188C113.616 28.9076 113.554 29.1159 113.554 29.3438C113.554 29.513 113.586 29.666 113.651 29.8027C113.723 29.9329 113.837 30.0534 113.993 30.1641C114.149 30.2747 114.361 30.3757 114.628 30.4668C114.901 30.5579 115.237 30.6458 115.634 30.7305C116.422 30.8867 117.108 31.0951 117.694 31.3555C118.287 31.6094 118.749 31.9479 119.081 32.3711C119.413 32.7943 119.579 33.3346 119.579 33.9922C119.579 34.4609 119.478 34.8906 119.276 35.2812C119.075 35.6654 118.782 36.0007 118.397 36.2871C118.013 36.5736 117.554 36.7982 117.021 36.9609C116.487 37.1172 115.884 37.1953 115.214 37.1953C114.244 37.1953 113.424 37.0228 112.753 36.6777C112.082 36.3262 111.575 35.8835 111.229 35.3496C110.884 34.8092 110.712 34.2493 110.712 33.6699H113.183C113.202 34.0801 113.313 34.4089 113.515 34.6562C113.716 34.9036 113.97 35.0827 114.276 35.1934C114.589 35.2975 114.918 35.3496 115.263 35.3496C115.653 35.3496 115.982 35.2975 116.249 35.1934C116.516 35.0827 116.718 34.9362 116.854 34.7539C116.991 34.5651 117.06 34.3503 117.06 34.1094ZM127.353 34.1094C127.353 33.888 127.294 33.6895 127.177 33.5137C127.06 33.3379 126.838 33.1784 126.513 33.0352C126.194 32.8854 125.725 32.7454 125.106 32.6152C124.56 32.498 124.055 32.3516 123.593 32.1758C123.131 32 122.733 31.7884 122.401 31.541C122.069 31.2871 121.809 30.9909 121.62 30.6523C121.438 30.3073 121.347 29.9102 121.347 29.4609C121.347 29.0247 121.441 28.6146 121.63 28.2305C121.819 27.8398 122.092 27.498 122.45 27.2051C122.808 26.9056 123.244 26.6712 123.759 26.502C124.273 26.3262 124.853 26.2383 125.497 26.2383C126.396 26.2383 127.167 26.3848 127.812 26.6777C128.463 26.9707 128.961 27.3743 129.306 27.8887C129.651 28.3965 129.823 28.9694 129.823 29.6074H127.245C127.245 29.3275 127.18 29.0736 127.05 28.8457C126.926 28.6178 126.734 28.4355 126.474 28.2988C126.213 28.1556 125.884 28.084 125.487 28.084C125.129 28.084 124.826 28.1426 124.579 28.2598C124.338 28.377 124.156 28.5299 124.032 28.7188C123.909 28.9076 123.847 29.1159 123.847 29.3438C123.847 29.513 123.879 29.666 123.944 29.8027C124.016 29.9329 124.13 30.0534 124.286 30.1641C124.442 30.2747 124.654 30.3757 124.921 30.4668C125.194 30.5579 125.53 30.6458 125.927 30.7305C126.715 30.8867 127.401 31.0951 127.987 31.3555C128.58 31.6094 129.042 31.9479 129.374 32.3711C129.706 32.7943 129.872 33.3346 129.872 33.9922C129.872 34.4609 129.771 34.8906 129.569 35.2812C129.368 35.6654 129.075 36.0007 128.69 36.2871C128.306 36.5736 127.847 36.7982 127.313 36.9609C126.78 37.1172 126.177 37.1953 125.507 37.1953C124.537 37.1953 123.716 37.0228 123.046 36.6777C122.375 36.3262 121.868 35.8835 121.522 35.3496C121.177 34.8092 121.005 34.2493 121.005 33.6699H123.476C123.495 34.0801 123.606 34.4089 123.808 34.6562C124.009 34.9036 124.263 35.0827 124.569 35.1934C124.882 35.2975 125.211 35.3496 125.556 35.3496C125.946 35.3496 126.275 35.2975 126.542 35.1934C126.809 35.0827 127.011 34.9362 127.147 34.7539C127.284 34.5651 127.353 34.3503 127.353 34.1094Z" fill="#030611"/>
<path d="M96 12H106" stroke="#0C513F" stroke-width="1.5" stroke-linecap="round" stroke-linejoin="round"/>
<path d="M101 7L106 12L101 17" stroke="#0C513F" stroke-width="1.5" stroke-linecap="round" stroke-linejoin="round"/>
</svg>
