<svg width="15" height="14" viewBox="0 0 15 14" fill="none" xmlns="http://www.w3.org/2000/svg">
<g opacity="0.5">
<path d="M10.3156 4.42114C11.4881 4.42114 12.6126 4.88693 13.4417 5.71603C14.2708 6.54513 14.7366 7.66964 14.7366 8.84217V14H11.7892V8.84217C11.7892 8.45132 11.634 8.07649 11.3576 7.80012C11.0812 7.52375 10.7064 7.36849 10.3156 7.36849C9.92471 7.36849 9.54988 7.52375 9.27351 7.80012C8.99714 8.07649 8.84188 8.45132 8.84188 8.84217V14H5.89453V8.84217C5.89453 7.66964 6.36032 6.54513 7.18942 5.71603C8.01852 4.88693 9.14303 4.42114 10.3156 4.42114Z" fill="#1E1E2F"/>
<path d="M2.94735 5.15759H0V13.9996H2.94735V5.15759Z" fill="#1E1E2F"/>
<path d="M1.47367 2.94723C2.28756 2.94723 2.94735 2.28744 2.94735 1.47355C2.94735 0.659665 2.28756 -0.00012207 1.47367 -0.00012207C0.659787 -0.00012207 0 0.659665 0 1.47355C0 2.28744 0.659787 2.94723 1.47367 2.94723Z" fill="#1E1E2F"/>
</g>
</svg>
