<svg width="40" height="42" viewBox="0 0 40 42" fill="none" xmlns="http://www.w3.org/2000/svg">
<g id="icon">
<path id="Vector" d="M8.79225 31.5055C6.81619 31.5055 4.8516 31.5088 2.88538 31.5039C0.940475 31.499 0.0122991 30.5888 0.00737949 28.6472C-0.00245983 24.905 -0.00245983 21.1611 0.00737949 17.4189C0.0122991 15.4724 0.924076 14.5655 2.87226 14.5557C4.83521 14.5475 6.79979 14.554 8.89721 14.554C8.89721 14.1719 8.89721 13.8571 8.89721 13.5406C8.89721 10.2887 8.89229 7.03844 8.89884 3.78654C8.9054 1.25456 10.1501 0.0148013 12.6771 0.0131614C17.5952 0.00988165 22.5132 0.0230007 27.4296 4.23313e-05C28.1101 -0.00323744 28.607 0.18371 29.0826 0.685515C32.3607 4.12764 35.6798 7.5304 38.9448 10.9856C39.2958 11.3579 39.5631 11.9794 39.5647 12.4861C39.6024 21.0923 39.5959 29.6984 39.5877 38.3045C39.586 40.7151 38.2922 41.9959 35.8865 41.9975C28.1282 42.0008 20.3682 42.0008 12.6099 41.9975C10.1812 41.9959 8.91524 40.7463 8.89721 38.3258C8.88081 36.1399 8.88409 33.9555 8.87589 31.7696C8.87753 31.7187 8.84637 31.6679 8.79225 31.5055ZM10.5486 31.5055C10.5322 31.8598 10.5109 32.1271 10.5109 32.3944C10.5076 34.3343 10.5059 36.2743 10.5109 38.2143C10.5141 39.864 11.0225 40.3708 12.6689 40.3708C20.3748 40.3724 28.0806 40.3724 35.7864 40.3708C37.4706 40.3708 37.9724 39.864 37.9724 38.1586C37.974 30.0706 37.9724 21.9811 37.9724 13.8932C37.9724 13.6029 37.9724 13.311 37.9724 12.9486C37.569 12.9486 37.2738 12.9486 36.977 12.9486C33.9711 12.9486 30.9652 12.9519 27.9592 12.9469C26.8917 12.9453 26.6687 12.719 26.6687 11.6449C26.6654 8.61109 26.667 5.57894 26.667 2.54515C26.667 2.25817 26.667 1.97119 26.667 1.64321C26.2898 1.64321 26.0455 1.64321 25.8012 1.64321C21.4013 1.64321 17.0015 1.64157 12.6033 1.64485C11.0635 1.64485 10.5158 2.17781 10.5125 3.70291C10.5059 7.0368 10.5289 10.3707 10.4945 13.7046C10.4879 14.395 10.6994 14.5737 11.3718 14.5688C15.4977 14.5409 19.6237 14.5508 23.7513 14.5557C25.7651 14.559 26.6687 15.456 26.6719 17.4435C26.6752 21.1595 26.6752 24.8755 26.6719 28.5931C26.6703 30.5872 25.7569 31.5039 23.771 31.5055C19.6713 31.5088 15.5732 31.5072 11.4735 31.5072C11.1816 31.5055 10.8897 31.5055 10.5486 31.5055ZM13.2987 29.8771C16.7933 29.8771 20.2895 29.8788 23.7841 29.8755C24.8254 29.8739 25.0419 29.664 25.0435 28.6407C25.0468 24.9001 25.0468 21.1595 25.0435 17.4173C25.0419 16.3858 24.8353 16.171 23.789 16.1693C16.8261 16.1644 9.8631 16.1644 2.90014 16.1693C1.86701 16.1693 1.63087 16.4038 1.62923 17.414C1.62267 21.1546 1.62267 24.8952 1.62923 28.6374C1.63087 29.6459 1.87193 29.8755 2.89522 29.8771C6.36194 29.8788 9.8303 29.8755 13.2987 29.8771ZM28.3282 11.2562C31.2374 11.2562 34.0498 11.2562 36.9934 11.2562C34.0777 8.23063 31.2603 5.30672 28.3282 2.26145C28.3282 5.39363 28.3282 8.30607 28.3282 11.2562Z" fill="#030611"/>
<path id="Vector_2" d="M11.2539 26.5792C11.2539 24.2899 11.2539 22.058 11.2539 19.6605C12.533 19.7261 13.7924 19.6736 15.0092 19.8819C16.395 20.1181 17.087 21.5448 17.005 23.5684C16.9361 25.2329 16.1129 26.4218 14.7567 26.5562C13.6268 26.6694 12.4773 26.5792 11.2539 26.5792ZM12.6576 20.8888C12.6576 22.4811 12.6576 23.9406 12.6576 25.4838C13.5694 25.3608 14.6255 25.8527 15.188 24.9016C15.7948 23.875 15.7948 22.6599 15.2257 21.6071C14.6829 20.6002 13.617 20.9642 12.6576 20.8888Z" fill="#030611"/>
<path id="Vector_3" d="M4.79461 19.7967C6.02944 19.7967 7.22492 19.7213 8.40564 19.8197C9.48305 19.9083 10.1062 20.7758 10.08 21.8761C10.0521 23.0257 9.37645 23.8358 8.28921 23.9604C7.61685 24.0375 6.93794 24.0522 6.17867 24.0998C6.17867 24.9329 6.17867 25.7397 6.17867 26.6023C5.67687 26.6023 5.2587 26.6023 4.79297 26.6023C4.79461 24.3064 4.79461 22.0565 4.79461 19.7967ZM6.21803 20.8725C6.21803 21.5875 6.21803 22.1729 6.21803 22.7895C6.79363 22.7895 7.36103 22.901 7.84808 22.7502C8.16786 22.6518 8.56963 22.1713 8.56635 21.8663C8.56307 21.5662 8.14654 21.1267 7.81856 21.007C7.35939 20.8381 6.81331 20.9086 6.21803 20.8725Z" fill="#030611"/>
<path id="Vector_4" d="M19.682 20.8625C19.682 21.4529 19.682 21.9301 19.682 22.509C20.6052 22.509 21.517 22.509 22.4829 22.509C22.4829 22.9436 22.4829 23.2797 22.4829 23.6913C21.558 23.6913 20.6659 23.6913 19.6656 23.6913C19.6656 24.6966 19.6656 25.633 19.6656 26.6136C19.1605 26.6136 18.7636 26.6136 18.293 26.6136C18.293 24.3227 18.293 22.0547 18.293 19.7556C19.8476 19.7556 21.3612 19.7556 22.9273 19.7556C22.9273 20.1164 22.9273 20.4329 22.9273 20.8625C21.8696 20.8625 20.7971 20.8625 19.682 20.8625Z" fill="#030611"/>
</g>
</svg>
