<svg width="16" height="12" viewBox="0 0 16 12" fill="none" xmlns="http://www.w3.org/2000/svg">
<path opacity="0.5" d="M15.5294 0.00672484C14.8534 0.458456 14.105 0.803959 13.3129 1.02993C12.8878 0.566818 12.3228 0.238578 11.6944 0.0896016C11.0659 -0.0593751 10.4044 -0.021901 9.79912 0.196956C9.19388 0.415812 8.6742 0.805492 8.31034 1.31329C7.94649 1.82109 7.75602 2.42251 7.76471 3.0362V3.70496C6.52421 3.73544 5.29502 3.47478 4.18659 2.94622C3.07817 2.41765 2.12493 1.63758 1.41176 0.675484C1.41176 0.675484 -1.41176 6.69432 4.94118 9.36935C3.48743 10.3043 1.75564 10.773 0 10.7069C6.35294 14.0507 14.1176 10.7069 14.1176 3.01614C14.117 2.82986 14.0981 2.64404 14.0612 2.46107C14.7816 1.78796 15.29 0.938114 15.5294 0.00672484Z" fill="#1E1E2F"/>
</svg>
