<svg width="38" height="28" viewBox="0 0 38 28" fill="none" xmlns="http://www.w3.org/2000/svg">
<path d="M25.5371 7.36713C27.2579 7.36713 28.9462 7.36713 30.6346 7.36713C30.9543 7.36713 31.2726 7.36566 31.5923 7.3686C32.5086 7.37892 33.207 7.7767 33.6195 8.59437C34.9366 11.1991 36.2449 13.8083 37.534 16.4263C37.6681 16.6989 37.7034 17.0392 37.7093 17.3501C37.7285 18.5523 37.6872 19.7574 37.7255 20.9596C37.7623 22.1132 37.3469 22.9647 36.4806 23.361C36.0843 24.4955 35.741 25.4737 35.3756 26.5197C35.7675 26.5197 36.2655 26.5271 36.7635 26.5183C37.2658 26.5094 37.646 26.6715 37.7034 27.224C37.752 27.6881 37.3822 27.9901 36.759 27.9945C35.2858 28.0048 33.8125 27.9974 32.3392 27.9974C22.0513 27.9974 11.7634 27.9974 1.47549 27.9974C1.2545 27.9974 1.0335 28.0033 0.812513 27.993C0.323385 27.9709 0.00220992 27.7308 0.0213625 27.2225C0.0390419 26.7569 0.35285 26.5286 0.809567 26.5242C1.81582 26.5153 2.82354 26.5198 3.82979 26.5183C4.34249 26.5183 4.85372 26.5183 5.32517 26.5183C4.96863 25.5769 4.61947 24.6561 4.21137 23.5761C3.8018 23.5761 3.2007 23.5776 2.5996 23.5761C0.852292 23.5717 0.00220992 22.7408 0.00220992 21.0215C-0.000736639 14.8588 -0.000736639 8.69603 0.00220992 2.53183C0.00220992 0.856712 0.861132 0.00220992 2.54656 0.00220992C9.34869 -0.000736639 16.1493 -0.000736639 22.9515 0.00220992C24.634 0.0036832 25.4855 0.859658 25.4899 2.5392C25.4944 4.06109 25.4929 5.58446 25.4958 7.10636C25.4958 7.1535 25.5106 7.20212 25.5371 7.36713ZM23.9916 22.0572C24.0019 21.8833 24.0137 21.7861 24.0137 21.6889C24.0152 15.3081 24.0167 8.92733 24.0137 2.54656C24.0137 1.66849 23.7971 1.47991 22.8351 1.47844C16.111 1.47696 9.38552 1.47696 2.66148 1.47844C1.65228 1.47844 1.47991 1.6567 1.47991 2.69094C1.47844 6.9605 1.47991 11.2315 1.47991 15.5011C1.47991 15.7147 1.47991 15.9269 1.47991 16.2068C2.2136 16.2068 2.87068 16.1935 3.52629 16.2112C4.16275 16.2274 4.40879 16.4735 4.42057 17.1143C4.43678 17.9733 4.43531 18.8322 4.42205 19.6911C4.41173 20.3747 4.17012 20.6134 3.48504 20.6281C2.82943 20.6428 2.17382 20.6311 1.52705 20.6311C1.43866 21.7154 1.60514 22.0601 2.26369 22.0881C3.06663 22.1235 3.87104 22.097 4.64746 22.097C5.45481 20.2922 6.75867 19.2344 8.69308 19.174C10.794 19.1092 12.1921 20.2185 13.0496 22.0984C16.5972 22.0984 20.1301 22.0984 23.6631 22.097C23.7544 22.0955 23.8472 22.0749 23.9916 22.0572ZM36.1594 17.6845C35.909 17.6845 35.6452 17.6845 35.383 17.6845C32.9536 17.6845 30.5256 17.6874 28.0962 17.683C27.1651 17.6816 26.9647 17.4856 26.9632 16.5722C26.9588 14.9044 26.9603 13.2352 26.9617 11.5674C26.9632 10.4581 27.1105 10.3152 28.2494 10.3137C29.7389 10.3122 31.2269 10.3137 32.7355 10.3137C32.3304 8.9509 32.1948 8.84483 30.8998 8.84483C29.9923 8.84483 29.0847 8.84483 28.1757 8.84483C27.3006 8.84483 26.4255 8.84483 25.5415 8.84483C25.5415 13.3044 25.5415 17.6786 25.5415 22.0763C26.2722 22.0763 26.9544 22.0763 27.638 22.0763C28.4321 20.2951 29.7462 19.2329 31.7145 19.1681C33.702 19.1047 35.0486 20.1802 35.9915 21.901C36.2802 21.3058 36.3539 19.0119 36.1594 17.6845ZM27.2151 23.6174C22.6421 23.6174 17.9688 23.6174 13.4474 23.6174C13.0731 24.6266 12.7299 25.5518 12.3954 26.4535C17.6653 26.4535 23.0237 26.4535 28.27 26.4535C27.9253 25.5253 27.5879 24.6192 27.2151 23.6174ZM35.7646 16.1744C35.2651 15.1726 34.7082 14.268 34.3532 13.2912C33.9141 12.0816 33.2246 11.5984 31.909 11.7619C30.7834 11.9019 29.6269 11.7914 28.4925 11.7914C28.4925 13.3162 28.4925 14.7468 28.4925 16.1744C30.9204 16.1744 33.2909 16.1744 35.7646 16.1744ZM11.784 23.5791C11.787 21.9555 10.4536 20.6252 8.82862 20.6325C7.23454 20.6384 5.92184 21.9393 5.89974 23.5319C5.87765 25.157 7.19476 26.5035 8.81831 26.5153C10.4433 26.5286 11.7796 25.2041 11.784 23.5791ZM34.7657 23.6012C34.7804 21.9762 33.4574 20.6369 31.8324 20.6325C30.2383 20.6281 28.9138 21.9187 28.8814 23.5098C28.8475 25.1334 30.1573 26.4932 31.7779 26.5153C33.4044 26.5389 34.751 25.2247 34.7657 23.6012ZM1.52853 17.7184C1.52853 18.2193 1.52853 18.6657 1.52853 19.0959C2.02649 19.0959 2.4729 19.0959 2.91046 19.0959C2.91046 18.6097 2.91046 18.1795 2.91046 17.7184C2.44491 17.7184 2.01471 17.7184 1.52853 17.7184Z" fill="#030611"/>
<path d="M15.687 4.42072C17.1559 4.42072 18.6247 4.42661 20.0936 4.41777C20.5901 4.41482 20.9775 4.55331 21.0556 5.0999C21.1219 5.56398 20.7492 5.88958 20.1407 5.894C18.501 5.90431 16.8597 5.89842 15.22 5.89842C13.922 5.89842 12.6241 5.90284 11.3276 5.89694C10.672 5.894 10.3405 5.64796 10.3243 5.18388C10.3081 4.69622 10.6616 4.42661 11.3541 4.42366C12.7979 4.4163 14.2432 4.42072 15.687 4.42072Z" fill="#030611"/>
<path d="M17.229 7.36705C18.1837 7.36705 19.1369 7.35968 20.0916 7.37C20.7251 7.37589 21.0683 7.65139 21.0624 8.11548C21.0566 8.57956 20.7192 8.84033 20.0739 8.84328C18.1409 8.84917 16.2095 8.84917 14.2765 8.84328C13.6194 8.8418 13.2894 8.59724 13.2703 8.13463C13.2511 7.6455 13.6032 7.37442 14.2927 7.37C15.2725 7.36116 16.2507 7.36705 17.229 7.36705Z" fill="#030611"/>
<path d="M7.37012 5.12335C7.45115 4.68431 7.69866 4.40292 8.15685 4.44122C8.6062 4.47805 8.8655 4.77418 8.82424 5.22943C8.78594 5.64342 8.51338 5.89387 8.09055 5.88062C7.62941 5.86588 7.40695 5.57417 7.37012 5.12335Z" fill="#030611"/>
<path d="M8.81099 22.1059C9.63455 22.0883 10.3152 22.7571 10.3108 23.5807C10.3078 24.3748 9.66696 25.0274 8.87287 25.0451C8.0493 25.0628 7.36865 24.3939 7.37307 23.5704C7.37601 22.7733 8.01542 22.1221 8.81099 22.1059Z" fill="#030611"/>
<path d="M31.8132 22.1058C32.6383 22.0999 33.3086 22.7776 33.2939 23.6011C33.2791 24.3952 32.6294 25.039 31.8339 25.0449C31.0103 25.0508 30.3414 24.3731 30.3547 23.5496C30.3694 22.751 31.0177 22.1102 31.8132 22.1058Z" fill="#030611"/>
</svg>
