<svg width="22" height="39" viewBox="0 0 22 39" fill="none" xmlns="http://www.w3.org/2000/svg">
<path d="M9.80268 4.30269C9.80268 3.15696 9.79506 2.11789 9.80573 1.07881C9.81182 0.358158 10.08 0.00773643 10.598 0.000118563C11.1145 -0.0074993 11.4055 0.352064 11.4146 1.05443C11.4268 1.94267 11.4314 2.83244 11.4131 3.72068C11.4055 4.1031 11.4938 4.31945 11.9174 4.41086C13.345 4.71863 14.4359 5.54288 15.3256 6.68251C16.9498 8.76371 18.5815 10.8388 20.2392 12.8926C20.9111 13.7245 21.2158 14.6371 21.2127 15.699C21.2005 22.2245 21.2127 28.7484 21.2036 35.2739C21.2005 37.6659 19.8598 38.9945 17.4678 38.996C12.8727 39.0005 8.27758 39.0021 3.68096 38.996C1.38189 38.9929 0.0121943 37.6552 0.00762358 35.3668C-0.00608858 28.7652 0.00610001 22.1635 5.71326e-06 15.5619C-0.00151786 14.5807 0.301673 13.7336 0.918721 12.9673C2.3844 11.1496 3.85769 9.33658 5.267 7.47477C6.42949 5.93901 7.691 4.59369 9.80268 4.30269ZM11.4161 5.99843C11.4161 7.29804 11.4542 8.48947 11.4009 9.67633C11.3704 10.368 11.5258 10.723 12.248 11.0064C13.962 11.6768 14.8716 13.534 14.5471 15.3638C14.2408 17.0961 12.7203 18.4719 10.9758 18.5969C9.07746 18.734 7.41829 17.6675 6.81952 15.9276C6.22228 14.1892 6.80886 12.0546 8.4665 11.3157C9.79506 10.723 9.90019 9.89878 9.8103 8.74391C9.75545 8.03697 9.8042 7.32394 9.79658 6.61243C9.79506 6.4235 9.75545 6.23458 9.72955 6.01062C8.71789 6.18887 7.98201 6.69775 7.39848 7.42906C5.64332 9.63063 3.88207 11.8291 2.1711 14.0657C1.87095 14.4573 1.6607 15.0302 1.65765 15.5208C1.62414 22.1696 1.63175 28.8185 1.63937 35.4689C1.64089 36.6878 2.30365 37.3429 3.5347 37.3459C8.25473 37.3551 12.9763 37.3551 17.6963 37.3459C18.9213 37.3429 19.5749 36.6817 19.5764 35.4537C19.5825 28.8048 19.5886 22.1559 19.5596 15.5055C19.5581 15.0363 19.3738 14.4832 19.0873 14.1115C17.3413 11.8383 15.5481 9.60015 13.7548 7.36355C13.1865 6.65509 12.4567 6.17973 11.4161 5.99843ZM10.6422 12.2649C9.32885 12.2466 8.26844 13.2781 8.25016 14.5914C8.23187 15.8971 9.27247 16.9697 10.5767 16.9895C11.8747 17.0093 12.9519 15.9611 12.9748 14.6554C12.9961 13.3558 11.9509 12.2832 10.6422 12.2649Z" fill="#030611"/>
<path d="M13.336 30.6758C13.2964 31.5381 12.8698 32.3441 11.9983 32.8636C11.6555 33.0678 11.4361 33.2445 11.3477 33.6879C11.2959 33.9484 10.851 34.2775 10.5646 34.2973C10.3315 34.3126 9.89577 33.9362 9.86072 33.6909C9.79673 33.2323 9.56058 33.0632 9.21625 32.8652C8.46818 32.434 8.04767 31.7545 7.90446 30.9089C7.79933 30.2827 8.07205 29.783 8.57787 29.7373C9.17054 29.6839 9.42955 30.0359 9.53316 30.5889C9.67942 31.3721 10.202 31.7377 10.8632 31.5732C11.4437 31.4284 11.8018 30.8738 11.6555 30.2934C11.4909 29.6413 10.9897 29.4691 10.3848 29.4158C9.20254 29.3122 8.40723 28.6647 8.02177 27.557C7.60583 26.361 8.101 25.0492 9.20102 24.3926C9.5362 24.193 9.79673 24.0391 9.86834 23.5775C9.90491 23.3428 10.3452 23.0122 10.6027 23.0122C10.8602 23.0122 11.2975 23.3367 11.3401 23.5744C11.4209 24.0269 11.6692 24.1945 12.0074 24.3941C12.7479 24.8329 13.173 25.5109 13.3086 26.3595C13.4091 26.9887 13.1257 27.4839 12.6169 27.5205C12.0242 27.5631 11.7743 27.202 11.6723 26.652C11.5214 25.843 10.9013 25.4042 10.2751 25.7303C9.95061 25.8994 9.65352 26.3168 9.55906 26.6779C9.4326 27.1624 9.75407 27.554 10.2401 27.7231C10.4762 27.8038 10.7368 27.8145 10.9882 27.8511C12.335 28.043 13.3329 29.1842 13.336 30.6758Z" fill="#030611"/>
</svg>
