<svg width="21" height="23" viewBox="0 0 21 23" fill="none" xmlns="http://www.w3.org/2000/svg">
<path d="M16.4214 7.168C18.1246 7.168 19.5054 5.78724 19.5054 4.084C19.5054 2.38075 18.1246 1 16.4214 1C14.7182 1 13.3374 2.38075 13.3374 4.084C13.3374 5.78724 14.7182 7.168 16.4214 7.168Z" stroke="white" stroke-width="1.5" stroke-linecap="round" stroke-linejoin="round"/>
<path d="M4.084 14.3643C5.78725 14.3643 7.168 12.9835 7.168 11.2803C7.168 9.57704 5.78725 8.19629 4.084 8.19629C2.38075 8.19629 1 9.57704 1 11.2803C1 12.9835 2.38075 14.3643 4.084 14.3643Z" stroke="white" stroke-width="1.5" stroke-linecap="round" stroke-linejoin="round"/>
<path d="M16.4214 21.5601C18.1246 21.5601 19.5054 20.1793 19.5054 18.4761C19.5054 16.7728 18.1246 15.3921 16.4214 15.3921C14.7182 15.3921 13.3374 16.7728 13.3374 18.4761C13.3374 20.1793 14.7182 21.5601 16.4214 21.5601Z" stroke="white" stroke-width="1.5" stroke-linecap="round" stroke-linejoin="round"/>
<path d="M6.74561 12.8325L13.7668 16.924" stroke="white" stroke-width="1.5" stroke-linecap="round" stroke-linejoin="round"/>
<path d="M13.7566 5.63672L6.74561 9.72816" stroke="white" stroke-width="1.5" stroke-linecap="round" stroke-linejoin="round"/>
</svg>
