<svg width="46" height="38" viewBox="0 0 46 38" fill="none" xmlns="http://www.w3.org/2000/svg">
<path d="M7.68122 32.2191C7.77447 31.9717 7.86583 31.7053 7.97431 31.4445C8.72417 29.6403 10.418 28.5117 12.3669 28.5117C14.3234 28.5117 16.0419 29.6118 16.7309 31.4559C16.9935 32.1563 17.3323 32.3314 18.0365 32.3219C21.1767 32.2838 24.317 32.3048 27.4554 32.3048C27.7656 32.3048 28.0777 32.3048 28.5154 32.3048C28.5154 31.8842 28.5154 31.5492 28.5154 31.2142C28.5154 23.2208 28.5154 15.2293 28.5154 7.23594C28.5154 4.85124 27.4782 3.80639 25.1163 3.80449C24.1324 3.80259 23.1503 3.81591 22.1664 3.80068C21.3747 3.78926 20.8703 3.3915 20.9293 2.80912C21.0016 2.09923 21.4851 1.88607 22.1398 1.89369C23.3768 1.90891 24.6139 1.87085 25.851 1.91081C28.3613 1.99265 30.352 3.97958 30.4053 6.4956C30.451 8.71282 30.4148 10.9319 30.4148 13.2196C30.7022 13.25 30.9439 13.2938 31.1856 13.2957C32.613 13.3033 34.0404 13.3338 35.4678 13.29C36.9732 13.2424 37.9971 13.8686 38.6423 15.2331C39.415 16.8642 40.2905 18.4476 41.0422 20.0882C41.3962 20.8609 41.8892 21.3843 42.6714 21.6869C43.1129 21.8582 43.5278 22.0961 43.9503 22.3149C45.0713 22.8935 45.6308 23.8184 45.6327 25.0764C45.6365 27.1072 45.648 29.136 45.6289 31.1667C45.6118 32.9785 44.4908 34.1432 42.6676 34.1908C42.0205 34.208 41.6912 34.3526 41.4438 35.0225C40.7701 36.8496 39.0058 37.9915 37.0874 37.9972C35.1747 38.0029 33.4028 36.861 32.712 35.0435C32.4684 34.4002 32.1772 34.1889 31.4996 34.1946C26.9643 34.2232 22.429 34.208 17.8937 34.2118C17.4655 34.2118 17.0887 34.1394 16.8546 34.7447C16.0381 36.8705 14.3367 38.0372 12.3041 37.9991C10.2543 37.961 8.6233 36.7316 7.82015 34.6248C7.77638 34.5106 7.73451 34.3964 7.68122 34.2536C7.19019 34.2251 6.7163 34.2194 6.24812 34.1661C3.76445 33.8806 1.99068 32.0364 1.92216 29.5356C1.85555 27.0634 1.90123 24.5873 1.90503 22.1151C1.90503 21.4813 2.10487 20.9732 2.8414 20.9256C3.46946 20.8856 3.80252 21.3005 3.80632 22.1531C3.81774 24.4046 3.80632 26.6561 3.81203 28.9095C3.81203 31.376 5.18423 32.556 7.68122 32.2191ZM39.337 20.9085C38.3854 19.0262 37.5442 17.3038 36.6249 15.6233C36.4917 15.3797 35.9855 15.2522 35.641 15.2312C34.7884 15.1761 33.93 15.2122 33.0755 15.2122C32.2057 15.2122 31.3341 15.2122 30.4871 15.2122C30.4871 20.9884 30.4871 26.6104 30.4871 32.2686C30.7384 32.2838 30.9249 32.301 31.1114 32.3067C31.3645 32.3124 31.6424 32.3714 31.8651 32.2895C32.1144 32.1982 32.4303 32.0212 32.5179 31.8023C33.3419 29.7374 34.8017 28.5631 37.057 28.5231C39.1467 28.4851 40.6921 29.6289 41.5999 31.7852C41.6779 31.9679 41.7978 32.2058 41.9577 32.2705C42.8541 32.6302 43.7067 32.0478 43.7162 31.0639C43.7334 29.0998 43.7143 27.1338 43.7257 25.1697C43.7295 24.593 43.4783 24.2371 42.9816 23.9612C41.6113 23.1999 40.2258 22.608 38.5833 22.7945C37.5822 22.9087 36.5564 22.825 35.5439 22.8117C34.6704 22.8002 34.1717 22.4177 34.2345 21.7953C34.3164 20.9979 34.8949 20.8989 35.5515 20.9066C36.7429 20.9161 37.9343 20.9085 39.337 20.9085ZM37.0493 30.4225C35.4659 30.4301 34.2136 31.6881 34.2231 33.264C34.2326 34.8227 35.5306 36.1016 37.0855 36.0883C38.6461 36.075 39.927 34.7808 39.9156 33.2278C39.906 31.6539 38.6366 30.4149 37.0493 30.4225ZM15.2007 33.2449C15.2007 31.6615 13.956 30.4225 12.365 30.4225C10.7815 30.4225 9.51018 31.6805 9.51209 33.2449C9.51399 34.7941 10.812 36.0883 12.365 36.0883C13.9313 36.0864 15.2007 34.8132 15.2007 33.2449Z" fill="#030611"/>
<path d="M10.4562 0C16.259 0 20.9161 4.65901 20.9104 10.4561C20.9047 16.2323 16.1924 20.9332 10.4296 20.9085C4.71047 20.8837 0.0210047 16.1942 6.95986e-05 10.4771C-0.0208655 4.7142 4.68382 0 10.4562 0ZM10.4219 1.90509C5.72677 1.92032 1.89565 5.77047 1.90707 10.4618C1.91849 15.1399 5.78767 19.0015 10.46 19.0015C15.1932 19.0015 19.0225 15.1361 19.0034 10.3762C18.9844 5.68293 15.1438 1.88987 10.4219 1.90509Z" fill="#030611"/>
<path d="M11.406 9.50253C12.3976 9.50253 13.2483 9.50253 14.099 9.50253C14.7214 9.50253 15.1724 9.74804 15.1876 10.4199C15.2029 11.086 14.7613 11.3886 14.1485 11.4C12.9761 11.4228 11.8038 11.4171 10.6333 11.4057C9.9082 11.3981 9.51233 11.0099 9.50662 10.2809C9.49711 8.47481 9.4933 6.66868 9.51043 4.86445C9.51614 4.24972 9.82255 3.81009 10.4868 3.82151C11.1586 3.83483 11.406 4.28398 11.406 4.90823C11.406 6.39081 11.406 7.8753 11.406 9.50253Z" fill="#030611"/>
</svg>
