<svg width="37" height="36" viewBox="0 0 37 36" fill="none" xmlns="http://www.w3.org/2000/svg">
<path d="M1.30647 14.1186C0.128242 14.4921 0.015493 14.4075 0.0140837 13.2138C0.0140837 12.6261 0.046499 12.037 0.00421814 11.4521C-0.0338346 10.9095 0.186026 10.6022 0.645478 10.3274C4.15338 8.2345 7.64437 6.11482 11.1396 4.0036C13.2085 2.75349 15.2873 1.51748 17.3422 0.244829C17.8425 -0.065231 18.2287 -0.0905995 18.7473 0.225098C24.3016 3.60334 29.8686 6.96185 35.4412 10.3091C35.9218 10.598 36.1544 10.9179 36.1093 11.4901C36.0628 12.0736 36.0994 12.6641 36.0994 13.2504C36.098 14.3962 35.9303 14.5174 34.8493 14.1031C34.8493 18.6849 34.8493 23.2499 34.8493 27.8105C36.0994 28.0205 36.0994 28.0205 36.0994 29.3031C36.0994 31.1817 36.1008 33.0618 36.0994 34.9405C36.0994 35.9383 36.0416 35.9989 35.0762 35.9989C24.1536 36.0004 13.2311 36.0004 2.30853 35.9989C1.39385 35.9989 1.30788 35.9116 1.30788 34.9814C1.30647 28.3109 1.30647 21.639 1.30647 14.9684C1.30647 14.6922 1.30647 14.4146 1.30647 14.1186ZM6.90587 17.6786C6.62822 17.6786 6.41964 17.6772 6.20964 17.6786C5.77697 17.6829 5.54865 17.4644 5.5416 17.0388C5.53033 16.4046 5.53315 15.7704 5.54019 15.1376C5.54442 14.7458 5.75724 14.5315 6.15045 14.5104C6.33789 14.5005 6.52534 14.5019 6.71419 14.5019C14.2754 14.5019 21.8366 14.5019 29.3979 14.5019C29.5853 14.5019 29.7742 14.5005 29.9616 14.5104C30.3548 14.5315 30.5648 14.7443 30.5747 15.1362C30.5846 15.559 30.5691 15.9818 30.5817 16.4046C30.6212 17.8224 30.3577 17.6857 29.3443 17.6984C29.3063 17.6984 29.2682 17.7421 29.2104 17.7773C29.2104 18.7638 29.2104 19.7617 29.2104 20.8441C29.5219 20.8441 29.7967 20.8441 30.0716 20.8441C31.5232 20.8469 31.5232 20.8469 31.5232 22.3309C31.5232 23.9038 31.5218 25.4781 31.5246 27.0509C31.5246 27.3018 31.5457 27.5526 31.5598 27.8317C32.3012 27.8317 32.9847 27.8317 33.6668 27.8317C33.6922 27.7091 33.7176 27.6414 33.7176 27.5752C33.7204 22.9722 33.7162 18.3706 33.7345 13.7677C33.7359 13.3477 33.5019 13.2025 33.2158 13.0306C28.3733 10.1118 23.5279 7.19721 18.6966 4.25728C18.2357 3.97682 17.9186 3.95427 17.4423 4.2446C12.6321 7.17466 7.81068 10.0836 2.97938 12.977C2.54389 13.2377 2.37758 13.5126 2.37899 14.0256C2.39732 20.7412 2.39027 27.4568 2.39309 34.1738C2.39309 34.4021 2.41282 34.6305 2.4255 34.894C3.93916 34.894 5.40349 34.894 6.90587 34.894C6.90587 29.1537 6.90587 23.4584 6.90587 17.6786ZM8.05872 34.8898C10.962 34.8898 13.792 34.8898 16.7122 34.8898C16.7122 34.4543 16.7122 34.0625 16.7122 33.6693C16.7122 32.026 16.7066 30.3812 16.7164 28.7379C16.7207 28.0417 16.8574 27.9092 17.5367 27.8923C17.982 27.881 18.4288 27.8895 18.8756 27.8895C19.6634 27.8895 20.4527 27.8895 21.2983 27.8895C21.2983 27.5611 21.2983 27.33 21.2983 27.0988C21.2983 25.3371 21.2969 23.5754 21.2997 21.8151C21.3011 20.9455 21.3955 20.8483 22.2721 20.8455C23.9394 20.8398 25.6067 20.8455 27.274 20.8427C27.5234 20.8427 27.7743 20.8187 28.0505 20.8046C28.0505 19.7476 28.0505 18.7498 28.0505 17.7364C21.3631 17.7364 14.7123 17.7364 8.06013 17.7364C8.05872 23.4683 8.05872 29.1466 8.05872 34.8898ZM1.15003 12.8163C1.45163 12.65 1.67713 12.5345 1.89276 12.4048C6.97351 9.33803 12.0641 6.28536 17.1237 3.18476C17.8312 2.75068 18.3316 2.78591 19.0179 3.20449C24.062 6.28677 29.1301 9.32958 34.1925 12.3823C34.4251 12.5232 34.6647 12.6529 34.9212 12.798C35.2059 11.538 35.141 11.3746 34.1784 10.7939C29.0765 7.71586 23.969 4.64909 18.8812 1.54567C18.2893 1.18487 17.8806 1.14541 17.2604 1.52453C12.1783 4.6364 7.07781 7.71727 1.95618 10.7615C1.24728 11.1829 0.930169 11.6438 1.08379 12.4344C1.10211 12.5246 1.1162 12.6162 1.15003 12.8163ZM28.3465 21.9236C28.3465 22.4254 28.3592 22.8679 28.3437 23.3076C28.3254 23.8559 28.1746 24.0081 27.6136 24.018C26.8385 24.032 26.0633 24.0278 25.2882 24.0194C24.6032 24.0123 24.482 23.8869 24.4651 23.1836C24.4552 22.7735 24.4637 22.362 24.4637 21.9546C23.7012 21.9546 23.0557 21.9546 22.4145 21.9546C22.4145 23.939 22.4145 25.8769 22.4145 27.8458C25.1078 27.8458 27.7475 27.8458 30.4028 27.8458C30.4028 25.8473 30.4028 23.8925 30.4028 21.9222C29.7192 21.9236 29.0878 21.9236 28.3465 21.9236ZM17.8186 34.8898C20.5006 34.8898 23.1417 34.8898 25.828 34.8898C25.828 32.9082 25.828 30.9717 25.828 29.0085C25.1402 29.0085 24.4778 29.0085 23.7661 29.0085C23.7661 29.506 23.7689 29.9514 23.7647 30.3967C23.7604 30.859 23.5293 31.0774 23.0614 31.0718C22.2397 31.0619 21.4167 31.0817 20.595 31.0648C20.0482 31.0535 19.9058 30.8956 19.8889 30.3305C19.8762 29.8922 19.8861 29.4525 19.8861 29.0043C19.1434 29.0043 18.4795 29.0043 17.8171 29.0043C17.8186 30.9915 17.8186 32.9308 17.8186 34.8898ZM26.9794 34.8912C29.6614 34.8912 32.3012 34.8912 34.9874 34.8912C34.9874 32.9096 34.9874 30.9746 34.9874 29.0071C34.3025 29.0071 33.6386 29.0071 32.9269 29.0071C32.9269 29.5032 32.9297 29.9485 32.9255 30.3939C32.9227 30.8548 32.6944 31.0774 32.2236 31.0718C31.402 31.0619 30.5789 31.0817 29.7573 31.0648C29.209 31.0535 29.0653 30.8956 29.0484 30.3333C29.0357 29.895 29.0455 29.4553 29.0455 29.0029C28.3056 29.0029 27.6404 29.0029 26.9766 29.0029C26.9794 30.9901 26.9794 32.9294 26.9794 34.8912ZM29.4514 15.6083C21.8169 15.6083 14.2458 15.6083 6.66064 15.6083C6.66064 15.9451 6.66064 16.2383 6.66064 16.5723C14.2712 16.5723 21.8395 16.5723 29.4514 16.5723C29.4514 16.2439 29.4514 15.9494 29.4514 15.6083ZM25.5588 22.906C26.1563 22.906 26.6806 22.906 27.2416 22.906C27.2416 22.5663 27.2416 22.2774 27.2416 21.9476C26.6708 21.9476 26.1282 21.9476 25.5588 21.9476C25.5588 22.2774 25.5588 22.5677 25.5588 22.906ZM20.9798 29.9471C21.583 29.9471 22.1213 29.9471 22.6696 29.9471C22.6696 29.599 22.6696 29.3087 22.6696 29C22.0903 29 21.5477 29 20.9798 29C20.9798 29.32 20.9798 29.5948 20.9798 29.9471ZM30.1632 28.9845C30.1632 29.3425 30.1632 29.6329 30.1632 29.9443C30.7495 29.9443 31.2864 29.9443 31.8276 29.9443C31.8276 29.5934 31.8276 29.3031 31.8276 28.9845C31.2667 28.9845 30.7424 28.9845 30.1632 28.9845Z" fill="#030611"/>
<path d="M18.0169 19.7942C16.7753 19.7942 15.535 19.7956 14.2934 19.7928C14.1059 19.7928 13.8847 19.8421 13.7409 19.7604C13.5619 19.6589 13.3392 19.4489 13.3336 19.2784C13.328 19.1121 13.5408 18.8809 13.717 18.7851C13.8847 18.6935 14.1271 18.7301 14.3371 18.7301C16.819 18.7273 19.3023 18.7273 21.7841 18.7301C21.9941 18.7301 22.2365 18.6949 22.4029 18.7879C22.5776 18.8852 22.7876 19.1205 22.7792 19.2854C22.7707 19.4546 22.5452 19.6617 22.3648 19.7604C22.2196 19.8407 21.9984 19.7914 21.8123 19.7928C20.5467 19.7942 19.2825 19.7942 18.0169 19.7942Z" fill="#030611"/>
</svg>
