<svg width="36" height="36" viewBox="0 0 36 36" fill="none" xmlns="http://www.w3.org/2000/svg">
<path d="M3.73233 18.663C5.19385 20.1231 6.5823 21.5116 8.04101 22.9703C7.42829 23.583 6.78888 24.221 6.15087 24.8619C5.46367 25.5505 5.47351 25.6783 6.16773 26.3936C6.67083 26.9122 7.15426 27.4504 7.64049 27.9746C7.7754 27.8594 7.82459 27.8383 7.83302 27.8074C8.42185 25.7317 9.84262 24.7002 11.9421 24.4445C12.9722 24.3194 13.9883 24.0721 15.1968 23.8458C14.9088 23.5929 14.7738 23.4509 14.6165 23.3399C13.4908 22.5361 12.7376 21.4751 12.3202 20.1527C12.2443 19.9138 11.9885 19.6749 11.7538 19.5526C10.9922 19.1507 10.4258 18.5562 10.409 17.7102C10.371 15.8412 10.2783 13.9454 10.5228 12.103C11.0217 8.36211 14.4984 5.61473 18.214 5.80726C22.1503 6.01103 25.2912 9.08163 25.4247 12.9673C25.5076 15.3999 25.4626 17.8381 25.4444 20.2735C25.4359 21.3668 24.7164 22.0821 23.6132 22.0484C22.8825 22.0259 22.3288 22.1819 21.8664 22.7904C21.5854 23.16 21.1469 23.4102 20.7801 23.7137C20.7928 23.7699 20.804 23.8247 20.8167 23.8809C21.8847 24.0791 22.9626 24.2365 24.018 24.4866C24.76 24.6623 25.5399 24.8492 26.1779 25.2371C26.7274 25.5715 27.2685 26.1266 27.52 26.7098C28.1552 28.184 28.6246 29.7298 29.1979 31.3502C25.0214 31.3502 20.9656 31.3502 16.7792 31.3502C17.087 31.6917 17.3006 31.9277 17.5803 32.2383C17.153 32.6304 16.7314 33.0183 16.3099 33.4061C15.7744 33.8966 15.246 34.3941 14.7022 34.8747C12.9638 36.4121 10.676 36.377 9.00927 34.7524C7.46624 33.2487 5.95834 31.7099 4.43498 30.1866C3.39224 29.1438 2.33967 28.1081 1.30676 27.0541C-0.435822 25.275 -0.434416 22.879 1.30395 21.1055C2.10779 20.2848 2.92006 19.4795 3.73233 18.663ZM17.9035 27.5558C17.132 26.7675 16.4532 26.0578 15.7519 25.3692C15.6002 25.2202 15.3514 25.0291 15.1814 25.0586C13.7297 25.3073 12.264 25.5167 10.8488 25.906C9.54188 26.2658 9.08094 27.4392 8.81955 28.6365C8.66637 29.3378 9.414 29.5514 9.76813 29.9603C10.2473 30.5126 10.4357 30.4887 10.9908 29.9969C11.7566 29.3195 12.5141 28.6323 13.3545 27.8776C13.9588 28.5128 14.5364 29.0904 15.0788 29.7003C15.3992 30.0615 15.7519 30.1964 16.2396 30.1936C19.7515 30.1739 23.2633 30.1838 26.7752 30.1838C27.0029 30.1838 27.2291 30.1838 27.5481 30.1838C27.2671 29.3237 27.0197 28.5508 26.7597 27.7821C26.3648 26.6115 25.5554 25.9243 24.3356 25.7135C23.2521 25.5266 22.163 25.3621 21.0935 25.1148C20.5834 24.9968 20.2714 25.1232 19.937 25.4886C19.306 26.1758 18.63 26.8223 17.9035 27.5558ZM17.9147 11.9232C19.4423 13.7037 21.3268 14.6438 23.6695 14.5019C23.751 14.8898 23.6512 15.3704 24.2878 15.2636C24.2751 13.9145 24.4157 12.5584 23.9449 11.2402C22.8052 8.04451 19.3509 6.24431 16.1272 7.23646C12.7952 8.26233 10.9893 11.3048 11.7735 15.3676C11.9436 15.0949 12.1122 14.8223 12.3117 14.5019C14.5462 14.6242 16.3871 13.7009 17.9147 11.9232ZM17.985 20.9003C19.1191 20.9003 20.2349 20.875 21.3507 20.9115C21.8369 20.927 22.0576 20.7345 22.2206 20.3058C22.7996 18.7839 22.4946 17.224 22.5635 15.6613C20.738 15.4814 19.2329 14.7914 17.9133 13.6025C16.6064 14.8195 15.0619 15.473 13.2955 15.6753C13.2955 16.7181 13.2758 17.6976 13.2997 18.6785C13.3643 21.4301 15.7168 23.4889 18.4558 23.1769C19.3228 23.0785 20.1337 22.7975 20.7281 22.0175C19.8063 22.0175 18.883 22.0175 17.9316 22.0175C17.9316 21.7097 17.9274 21.4765 17.933 21.2432C17.9358 21.1546 17.9597 21.0675 17.985 20.9003ZM2.32421 21.8081C0.875333 22.9633 0.760097 24.8394 2.10217 26.2011C3.95577 28.0842 5.83467 29.942 7.70373 31.8097C8.43168 32.5377 9.14699 33.2768 9.8904 33.9879C11.3941 35.427 13.5301 34.8044 14.1738 33.7041C13.3067 32.8271 12.4565 31.9657 11.5993 31.0986C10.3865 31.7675 9.8117 31.6832 8.78723 30.6588C7.66298 29.5345 6.53873 28.4103 5.41448 27.286C4.30288 26.1744 4.22278 25.705 4.90014 24.37C4.04993 23.5254 3.20815 22.6864 2.32421 21.8081ZM15.1983 32.844C15.4456 32.6107 15.6704 32.3999 15.8306 32.2482C14.9088 31.3263 14.0571 30.4718 13.1802 29.5935C12.9905 29.7748 12.7643 29.9912 12.5633 30.1824C13.4613 31.0916 14.296 31.9334 15.1983 32.844ZM6.41085 22.9801C6.34199 22.997 6.27313 23.0125 6.20427 23.0293C5.34281 22.1749 4.48136 21.3191 3.61428 20.4576C3.54121 20.5223 3.36976 20.6768 3.24609 20.7879C4.14689 21.6915 5.00975 22.5585 5.87964 23.4327C6.03001 23.3048 6.22113 23.1418 6.41085 22.9801ZM17.8177 25.6376C18.3138 25.1429 18.8211 24.6356 19.1725 24.2829C18.3953 24.2829 17.3877 24.2829 16.4715 24.2829C16.9198 24.734 17.4271 25.2441 17.8177 25.6376ZM24.233 19.5343C23.5444 19.7058 23.5444 19.7058 23.3519 20.8244C24.2386 20.9396 24.3988 20.7049 24.233 19.5343ZM23.7608 16.4693C23.7608 17.1383 23.7608 17.7018 23.7608 18.2962C24.4635 17.7327 24.4775 17.2001 23.7608 16.4693ZM12.0574 16.5958C11.3716 17.0371 11.3575 17.6891 12.0574 18.2583C12.0574 17.6821 12.0574 17.1425 12.0574 16.5958Z" fill="#030611"/>
<path d="M27.0172 11.5875C27.2098 10.393 27.3826 9.31791 27.5723 8.14166C27.103 8.14166 26.6898 8.14588 26.2766 8.14026C25.0104 8.1248 24.3064 7.44182 24.298 6.19671C24.2881 4.76892 24.2867 3.34112 24.298 1.91192C24.3092 0.697736 25.0048 0.0105398 26.2359 0.00632389C28.8118 -0.00210796 31.3863 -0.00210796 33.9623 0.00632389C35.2214 0.0105398 35.9086 0.697736 35.9199 1.96673C35.9325 3.37064 35.9339 4.77595 35.9199 6.18126C35.9072 7.43479 35.2003 8.18944 33.9496 8.11918C32.9533 8.06297 32.1466 8.35668 31.3442 8.89772C30.1609 9.69453 28.9327 10.4225 27.7213 11.1785C27.5274 11.2994 27.3264 11.4076 27.0172 11.5875ZM28.5996 9.24483C29.3697 8.76843 30.0246 8.41289 30.6247 7.98005C31.6182 7.26334 32.6483 6.79678 33.9271 6.94715C34.5848 7.02444 34.7282 6.80943 34.7324 6.11099C34.7422 4.75487 34.7422 3.40015 34.7324 2.04402C34.7268 1.31748 34.5834 1.16711 33.8723 1.1643C31.3709 1.15587 28.8708 1.15727 26.3694 1.16289C25.6316 1.1643 25.4644 1.33294 25.4587 2.07635C25.4489 3.3622 25.4531 4.64806 25.4573 5.93252C25.4601 6.85159 25.5768 6.96261 26.5254 6.96542C27.3109 6.96823 28.0979 6.96542 28.9509 6.96542C28.8329 7.73553 28.7317 8.39462 28.5996 9.24483Z" fill="#030611"/>
<path d="M2.08912 14.2507C4.83369 4.00603 14.9407 -0.0862375 22.7149 2.51359C22.6165 2.8354 22.5167 3.16003 22.4001 3.54087C17.1189 2.16647 12.3113 3.02793 8.11088 6.55947C5.70218 8.58312 4.13104 11.1562 3.30472 14.3449C3.88511 14.0118 4.34324 13.749 4.85758 13.4539C5.04871 13.7617 5.22999 14.0554 5.45765 14.4236C4.32778 15.1052 3.2204 15.7713 2.05961 16.4711C1.37663 15.3342 0.718947 14.2409 0.0205078 13.0801C0.350756 12.8792 0.641655 12.7007 1.00563 12.4786C1.34853 13.0422 1.68018 13.5846 2.08912 14.2507Z" fill="#030611"/>
<path d="M30.5649 28.2264C30.2459 27.9748 29.9761 27.7626 29.6655 27.5181C32.902 23.1925 33.814 18.4735 32.1318 13.2711C31.8283 13.7573 31.5248 14.2449 31.1805 14.7972C30.853 14.6033 30.5452 14.422 30.1911 14.2126C30.8839 13.0589 31.5416 11.9613 32.2302 10.8146C33.3615 11.4933 34.4576 12.151 35.6198 12.8481C35.4245 13.1825 35.2516 13.4748 35.0366 13.843C34.511 13.5353 34.0164 13.2458 33.391 12.879C34.9818 18.5199 34.0894 23.5931 30.5649 28.2264Z" fill="#030611"/>
<path d="M33.5391 3.47596C31.2315 3.47596 28.9943 3.47596 26.6755 3.47596C26.6587 3.12182 26.6432 2.78876 26.6235 2.38684C28.9521 2.38684 31.2245 2.38684 33.5391 2.38684C33.5391 2.72974 33.5391 3.06842 33.5391 3.47596Z" fill="#030611"/>
<path d="M26.6689 5.74717C26.6689 5.3593 26.6689 5.03889 26.6689 4.68335C28.1951 4.68335 29.6819 4.68335 31.225 4.68335C31.225 5.02203 31.225 5.35649 31.225 5.74717C29.7171 5.74717 28.2162 5.74717 26.6689 5.74717Z" fill="#030611"/>
<path d="M33.5418 4.68335C33.5418 5.05154 33.5418 5.38741 33.5418 5.76263C33.1722 5.76263 32.8363 5.76263 32.4653 5.76263C32.4653 5.39303 32.4653 5.05576 32.4653 4.68335C32.8321 4.68335 33.168 4.68335 33.5418 4.68335Z" fill="#030611"/>
</svg>
