<svg width="36" height="35" viewBox="0 0 36 35" fill="none" xmlns="http://www.w3.org/2000/svg">
<path d="M35.13 17.5333C35.13 20.2063 35.1149 22.8792 35.1422 25.5522C35.1482 26.141 34.9408 26.4679 34.4202 26.7267C29.0061 29.4164 23.5981 32.1196 18.1962 34.8365C17.7391 35.0665 17.3728 35.0469 16.9233 34.8213C11.5228 32.1045 6.11484 29.4027 0.700793 26.7116C0.213422 26.4694 -0.00150504 26.1682 8.53037e-06 25.6037C0.0181714 20.2063 0.0181714 14.8104 8.53037e-06 9.41298C-0.00150504 8.85145 0.198287 8.54419 0.690198 8.29899C6.12544 5.59727 11.5546 2.88343 16.9793 0.157484C17.4091 -0.0589574 17.7588 -0.0483624 18.1826 0.165051C23.5845 2.87889 28.991 5.58516 34.4081 8.27175C34.9666 8.54873 35.1497 8.90442 35.1437 9.51439C35.1149 12.1859 35.13 14.8588 35.13 17.5333ZM33.9146 10.0623C33.7239 10.135 33.6301 10.1607 33.5453 10.2031C28.5672 12.6884 23.5921 15.1842 18.6033 17.6483C18.1387 17.8784 18.178 18.1962 18.178 18.5686C18.178 23.2819 18.178 27.9966 18.1795 32.7099C18.1795 32.9233 18.2007 33.1382 18.2159 33.4061C18.3718 33.3471 18.4641 33.3199 18.5488 33.2775C23.527 30.7922 28.5021 28.3024 33.4848 25.8292C33.839 25.6536 33.9237 25.4311 33.9207 25.0648C33.9056 23.2758 33.9131 21.4852 33.9131 19.6962C33.9146 16.5207 33.9146 13.3452 33.9146 10.0623ZM12.1237 15.4582C12.1237 15.8623 12.1237 16.1136 12.1237 16.3648C12.1237 17.777 12.1268 19.1907 12.1207 20.6028C12.1192 20.9948 12.2327 21.4519 11.7574 21.6669C11.2262 21.9075 10.9976 21.4308 10.6934 21.1598C10.486 20.9752 10.2696 20.7905 10.1076 20.5695C9.35843 19.5524 8.39883 19.1483 7.11986 19.2966C6.19355 19.4041 6.06641 19.2028 6.0649 18.2795C6.06036 16.5132 6.05127 14.7483 6.07246 12.982C6.077 12.5764 5.965 12.3554 5.58207 12.1737C4.28493 11.5577 3.01051 10.8948 1.72397 10.256C1.58472 10.1864 1.42277 10.1607 1.25173 10.1077C1.25173 15.3159 1.25173 20.459 1.25173 25.6128C6.46751 28.2191 11.6651 30.8164 16.8567 33.4107C16.9127 33.3123 16.9339 33.2926 16.9339 33.2745C16.9429 28.2555 16.9535 23.2364 16.9475 18.2174C16.9475 18.0585 16.8188 17.8239 16.6826 17.7543C15.2144 16.996 13.7296 16.2619 12.1237 15.4582ZM12.9395 14.4517C13.1938 14.5985 13.377 14.7181 13.5707 14.8164C14.6953 15.384 15.835 15.9244 16.9445 16.5192C17.3955 16.7614 17.7497 16.7508 18.2053 16.5207C22.9291 14.1399 27.6636 11.7817 32.3935 9.4145C32.6069 9.30855 32.8067 9.17535 33.1109 8.99827C31.5202 8.20364 30.0293 7.48166 28.5627 6.71126C28.1313 6.48422 27.8149 6.49179 27.3866 6.72185C22.7899 9.18443 18.1795 11.6228 13.5737 14.0702C13.3815 14.1717 13.1999 14.2943 12.9395 14.4517ZM1.98733 9.02248C3.4449 9.75202 4.75263 10.3832 6.03463 11.0643C6.48718 11.3049 6.83379 11.2959 7.28635 11.0522C10.9855 9.06032 14.6998 7.09722 18.4096 5.12503C19.4963 4.54836 20.5816 3.97169 21.7773 3.33599C20.4893 2.68969 19.295 2.10999 18.1235 1.48791C17.7179 1.27299 17.3955 1.30477 17.0005 1.50305C13.6328 3.20733 10.256 4.89194 6.88071 6.57958C5.3066 7.36663 3.73248 8.15066 1.98733 9.02248ZM26.6192 5.75619C25.5582 5.2219 24.588 4.75875 23.6435 4.24867C23.2636 4.04283 22.9745 4.07612 22.6052 4.27289C17.9661 6.75061 13.3195 9.21319 8.67581 11.6818C8.49418 11.7787 8.3292 11.9043 8.07644 12.0693C9.06026 12.5612 9.95327 12.9669 10.8024 13.4467C11.2988 13.7267 11.6818 13.7191 12.1903 13.4451C15.7109 11.5441 19.2511 9.68089 22.7838 7.80406C24.0265 7.14414 25.2646 6.47817 26.6192 5.75619ZM10.7524 19.5842C10.8039 19.5433 10.8554 19.5025 10.9068 19.4601C10.9068 18.0282 10.9129 16.5949 10.8962 15.163C10.8947 15.0208 10.7903 14.8104 10.6722 14.7498C9.58547 14.1838 8.48661 13.6419 7.33933 13.0667C7.33933 14.7998 7.33933 16.4375 7.33933 18.2144C8.87257 17.7255 9.92754 18.3764 10.7524 19.5842Z" fill="#030611"/>
</svg>
