<svg width="39" height="38" viewBox="0 0 39 38" fill="none" xmlns="http://www.w3.org/2000/svg">
<path d="M19.0363 37.9999C8.62659 38.0353 0.0388607 29.4997 0.000131717 19.08C-0.0385972 8.5962 8.4683 0.0253142 18.942 5.61558e-05C29.4375 -0.0252019 37.9966 8.47328 38.0202 18.9436C38.0438 29.4155 29.5251 37.9662 19.0363 37.9999ZM19.0447 1.29495C9.29508 1.26801 1.35228 9.15188 1.31186 18.8947C1.27145 28.6915 9.16374 36.6696 18.9319 36.7067C28.7067 36.7437 36.6798 28.8228 36.7051 19.048C36.732 9.24786 28.8482 1.32358 19.0447 1.29495Z" fill="#030611"/>
<path d="M2.77549 18.9571C2.80579 10.0039 10.0936 2.72963 19.0231 2.73804C27.9863 2.74646 35.3061 10.1151 35.2438 19.0682C35.1815 28.0483 27.9207 35.2502 18.9558 35.2249C10.0077 35.1996 2.74518 27.8984 2.77549 18.9571ZM19.0652 33.9367C27.3246 33.8862 33.9961 27.1827 33.9708 18.9587C33.9472 10.664 27.1646 3.98579 18.8312 4.04641C10.6762 4.10703 4.00639 10.8829 4.05017 19.0665C4.09227 27.2888 10.8547 33.9873 19.0652 33.9367Z" fill="#030611"/>
<path d="M21.2618 15.6636C20.9958 15.6636 20.7297 15.6636 20.4653 15.6636C18.1955 15.6636 15.9256 15.6636 13.6558 15.6636C13.4874 15.6636 13.319 15.6602 13.1506 15.6636C12.7027 15.6737 12.3407 15.5154 12.3289 15.0304C12.3171 14.5438 12.6758 14.3687 13.1186 14.3569C13.3712 14.3502 13.6238 14.3535 13.8747 14.3535C16.0603 14.3535 18.246 14.3535 20.4317 14.3535C20.7011 14.3535 20.9688 14.3535 21.2382 14.3535C21.2601 14.303 21.2803 14.2525 21.3022 14.202C20.8779 13.8147 20.4519 13.4274 20.0275 13.0401C19.8625 12.8886 19.6924 12.7421 19.5358 12.5821C19.2631 12.3009 19.2243 11.9776 19.482 11.6812C19.7463 11.3764 20.0865 11.3781 20.3778 11.6358C21.447 12.5838 22.5112 13.5368 23.5603 14.5084C23.9038 14.8267 23.8988 15.2274 23.5552 15.544C22.5045 16.5122 21.442 17.4687 20.3677 18.41C20.0797 18.6625 19.7261 18.6491 19.4702 18.3443C19.2159 18.0429 19.2732 17.7112 19.5443 17.44C19.8002 17.1824 20.0797 16.9467 20.3492 16.7025C20.6725 16.4078 20.9958 16.1148 21.3191 15.8202C21.3005 15.768 21.282 15.7158 21.2618 15.6636Z" fill="#030611"/>
<path d="M16.7985 22.2909C17.0713 22.2909 17.3441 22.2909 17.6169 22.2909C19.8884 22.2909 22.16 22.2876 24.4315 22.2943C24.7094 22.2943 25.0259 22.2741 25.2499 22.397C25.4536 22.5082 25.6843 22.8163 25.6675 23.015C25.649 23.2188 25.3711 23.4511 25.1505 23.5656C24.972 23.6582 24.711 23.601 24.4871 23.601C22.1869 23.6027 19.8884 23.601 17.5883 23.601C17.3172 23.601 17.0444 23.601 16.5493 23.601C17.1202 24.1314 17.5394 24.5204 17.9587 24.9094C18.144 25.0811 18.405 25.2209 18.4942 25.4314C18.5969 25.6789 18.6559 26.0477 18.5413 26.2581C18.3544 26.5966 17.9688 26.5798 17.6607 26.3507C17.3694 26.1335 17.1067 25.8776 16.8356 25.6351C16.1048 24.9784 15.3706 24.3284 14.6516 23.6616C14.0673 23.1194 14.0606 22.8045 14.6331 22.2758C15.5592 21.4187 16.5022 20.5801 17.4367 19.7331C17.7735 19.4284 18.1423 19.1859 18.5245 19.6153C18.8966 20.0329 18.6474 20.3831 18.3039 20.693C17.7853 21.1594 17.2734 21.6309 16.7581 22.1007C16.7716 22.1647 16.7851 22.227 16.7985 22.2909Z" fill="#030611"/>
</svg>
