<svg width="14" height="14" viewBox="0 0 14 14" fill="none" xmlns="http://www.w3.org/2000/svg">
<g opacity="0.5">
<path d="M4.88833 11.1695H4.58923C2.19641 11.1695 1 10.5713 1 7.58026V4.58923C1 2.19641 2.19641 1 4.58923 1H9.37487C11.7677 1 12.9641 2.19641 12.9641 4.58923V7.58026C12.9641 9.97308 11.7677 11.1695 9.37487 11.1695H9.07577C8.89033 11.1695 8.71087 11.2592 8.59721 11.4088L7.6999 12.6052C7.30508 13.1316 6.65902 13.1316 6.26421 12.6052L5.3669 11.4088C5.27119 11.2772 5.04985 11.1695 4.88833 11.1695Z" stroke="#030611" stroke-miterlimit="10" stroke-linecap="round" stroke-linejoin="round"/>
<path d="M9.37785 6.38394H9.38322" stroke="#030611" stroke-linecap="round" stroke-linejoin="round"/>
<path d="M6.98332 6.38394H6.98869" stroke="#030611" stroke-linecap="round" stroke-linejoin="round"/>
<path d="M4.58879 6.38394H4.59416" stroke="#030611" stroke-linecap="round" stroke-linejoin="round"/>
</g>
</svg>
