<svg width="16" height="15" viewBox="0 0 16 15" fill="none" xmlns="http://www.w3.org/2000/svg">
<path d="M11.0493 4.73682C12.3056 4.73682 13.5104 5.23587 14.3987 6.1242C15.2871 7.01252 15.7861 8.21735 15.7861 9.47363V14.9999H12.6282V9.47363C12.6282 9.05487 12.4619 8.65326 12.1658 8.35715C11.8697 8.06104 11.4681 7.89469 11.0493 7.89469C10.6306 7.89469 10.2289 8.06104 9.93283 8.35715C9.63673 8.65326 9.47037 9.05487 9.47037 9.47363V14.9999H6.3125V9.47363C6.3125 8.21735 6.81156 7.01252 7.69988 6.1242C8.5882 5.23587 9.79303 4.73682 11.0493 4.73682Z" fill="white"/>
<path d="M3.15787 5.52612H0V14.9997H3.15787V5.52612Z" fill="white"/>
<path d="M1.57894 3.15787C2.45096 3.15787 3.15787 2.45096 3.15787 1.57894C3.15787 0.706914 2.45096 0 1.57894 0C0.706914 0 0 0.706914 0 1.57894C0 2.45096 0.706914 3.15787 1.57894 3.15787Z" fill="white"/>
</svg>
