<svg width="16" height="18" viewBox="0 0 16 18" fill="none" xmlns="http://www.w3.org/2000/svg">
<path d="M12.6693 5.66685C13.9579 5.66685 15.0026 4.62218 15.0026 3.33352C15.0026 2.04485 13.9579 1.00018 12.6693 1.00018C11.3806 1.00018 10.3359 2.04485 10.3359 3.33352C10.3359 4.62218 11.3806 5.66685 12.6693 5.66685Z" stroke="#030611" stroke-width="1.5" stroke-linecap="round" stroke-linejoin="round"/>
<path d="M3.33333 11.1112C4.622 11.1112 5.66667 10.0665 5.66667 8.77785C5.66667 7.48919 4.622 6.44452 3.33333 6.44452C2.04467 6.44452 1 7.48919 1 8.77785C1 10.0665 2.04467 11.1112 3.33333 11.1112Z" stroke="#030611" stroke-width="1.5" stroke-linecap="round" stroke-linejoin="round"/>
<path d="M12.6693 16.5555C13.9579 16.5555 15.0026 15.5109 15.0026 14.2222C15.0026 12.9335 13.9579 11.8889 12.6693 11.8889C11.3806 11.8889 10.3359 12.9335 10.3359 14.2222C10.3359 15.5109 11.3806 16.5555 12.6693 16.5555Z" stroke="#030611" stroke-width="1.5" stroke-linecap="round" stroke-linejoin="round"/>
<path d="M5.34766 9.95233L10.6599 13.0479" stroke="#030611" stroke-width="1.5" stroke-linecap="round" stroke-linejoin="round"/>
<path d="M10.6521 4.508L5.34766 7.60355" stroke="#030611" stroke-width="1.5" stroke-linecap="round" stroke-linejoin="round"/>
</svg>
