<svg width="13" height="13" viewBox="0 0 13 13" fill="none" xmlns="http://www.w3.org/2000/svg">
<path d="M5.50222 7.95086C5.15922 8.34546 4.82395 8.73128 4.48868 9.11732C3.38865 10.3834 2.28821 11.6491 1.19006 12.9167C1.13679 12.9783 1.08206 13.0008 1.00227 12.9998C0.709816 12.9956 0.417367 12.9983 0.124918 12.9979C0.0910771 12.9979 0.0574454 12.9948 0 12.9919C0.114264 12.8596 0.215159 12.7424 0.316472 12.6259C1.75428 10.971 3.19208 9.31597 4.62989 7.66113C4.73726 7.53767 4.84192 7.41192 4.95305 7.29201C4.99817 7.24355 4.99545 7.21055 4.9591 7.15853C4.37859 6.32484 3.80017 5.48969 3.22091 4.65496C2.54849 3.68591 1.87544 2.71706 1.2028 1.74822C0.816142 1.19069 0.429483 0.633154 0.042614 0.0756202C0.031125 0.0589088 0.0208892 0.0411529 0.000417785 0.00835682C0.0486719 0.00585011 0.0848103 0.00229894 0.12074 0.00229894C1.31477 0.00188116 2.50901 0.00271673 3.70303 1.12686e-06C3.78346 -0.000207765 3.82858 0.0286194 3.87224 0.0919138C4.71804 1.31331 5.56594 2.53345 6.413 3.75401C6.62335 4.0569 6.83287 4.36042 7.04302 4.66352C7.0685 4.7005 7.09503 4.73664 7.12866 4.78405C7.23916 4.65809 7.34424 4.53944 7.44827 4.41975C8.7035 2.97505 9.95873 1.53035 11.2125 0.0843936C11.262 0.0271571 11.3115 -0.00104333 11.3899 0.000210019C11.6856 0.00459676 11.9816 0.00188116 12.2776 0.00209005C12.3113 0.00209005 12.3449 0.00543233 12.4017 0.00856571C12.2685 0.163146 12.15 0.301851 12.0303 0.439511C10.5877 2.09937 9.14552 3.75965 7.70061 5.41742C7.64024 5.48656 7.64274 5.5321 7.69225 5.60312C8.90613 7.34863 10.1177 9.09538 11.3301 10.8419C11.8024 11.5223 12.2754 12.202 12.7477 12.8824C12.7692 12.9135 12.7892 12.9457 12.8199 12.9927C12.7702 12.995 12.7339 12.9979 12.6977 12.9979C11.507 12.9981 10.3166 12.9973 9.12588 13C9.03877 13.0002 8.98968 12.9708 8.94059 12.8997C8.06951 11.6407 7.1953 10.3838 6.32213 9.1263C6.06415 8.75489 5.80721 8.38264 5.54943 8.01081C5.53753 7.9941 5.52395 7.97864 5.50222 7.95086ZM11.2783 12.193C11.2526 12.1519 11.2363 12.1224 11.2171 12.0951C11.0245 11.8221 10.8313 11.5497 10.6387 11.2768C9.20401 9.24453 7.76933 7.21222 6.33466 5.18011C5.33532 3.76466 4.33535 2.34983 3.33747 0.933123C3.29298 0.869829 3.24828 0.841419 3.16806 0.841837C2.65628 0.845597 2.1447 0.843508 1.63291 0.843717C1.60304 0.843717 1.57338 0.84706 1.5293 0.849775C1.55938 0.894896 1.58132 0.929154 1.60471 0.962368C2.83738 2.70725 4.07027 4.45171 5.30273 6.19658C6.69772 8.17166 8.09249 10.1469 9.48518 12.1239C9.52779 12.1843 9.57291 12.1999 9.64059 12.1995C10.1488 12.1974 10.6571 12.1985 11.1655 12.1981C11.1981 12.1985 11.2313 12.1953 11.2783 12.193Z" fill="white"/>
</svg>
