<svg width="14" height="12" viewBox="0 0 14 12" fill="none" xmlns="http://www.w3.org/2000/svg">
<path d="M14 0.00652115C13.3906 0.43637 12.7159 0.765136 12.0018 0.980158C11.6186 0.539483 11.1092 0.227143 10.5427 0.0853833C9.9761 -0.0563768 9.37968 -0.020718 8.83405 0.187537C8.28842 0.395792 7.81992 0.766595 7.4919 1.2498C7.16388 1.733 6.99217 2.30528 7 2.88925V3.52561C5.88168 3.55461 4.77354 3.30658 3.77428 2.80362C2.77502 2.30066 1.91566 1.55838 1.27273 0.642885C1.27273 0.642885 -1.27273 6.37016 4.45455 8.91561C3.14397 9.80523 1.58274 10.2513 0 10.1883C5.72727 13.3702 12.7273 10.1883 12.7273 2.87016C12.7267 2.6929 12.7096 2.51608 12.6764 2.34198C13.3258 1.70147 13.7842 0.892793 14 0.00652115Z" fill="#081C15"/>
</svg>
