<svg width="22" height="22" viewBox="0 0 22 22" fill="none" xmlns="http://www.w3.org/2000/svg">
<path fill-rule="evenodd" clip-rule="evenodd" d="M1.51573 3.49844C1.84871 2.94605 3.6844 0.940806 4.99253 1.00134C5.38388 1.03485 5.72983 1.27051 6.01091 1.54508H6.012C6.65633 2.17638 8.505 4.55889 8.60878 5.06047C8.865 6.29064 7.39796 6.99977 7.84661 8.23967C8.99041 11.0384 10.9612 13.009 13.7613 14.1516C15.0002 14.6013 15.7094 13.1355 16.9397 13.3906C17.4413 13.4955 19.8251 15.3429 20.4554 15.9882V15.9882C20.7289 16.2682 20.9667 16.6152 20.9992 17.0065C21.0478 18.3848 18.9181 20.2452 18.5029 20.483C17.5235 21.1846 16.2456 21.1716 14.6878 20.4473C10.3407 18.6388 3.39359 11.8232 1.55141 7.31218C0.846536 5.76312 0.798968 4.47673 1.51573 3.49844Z" stroke="#030611" stroke-width="1.5" stroke-linecap="round" stroke-linejoin="round"/>
<path d="M13.7031 1.26318C17.6 1.69582 20.6768 4.7695 21.1147 8.66529" stroke="#030611" stroke-width="1.5" stroke-linecap="round" stroke-linejoin="round"/>
<path d="M13.7031 4.99268C15.5663 5.35583 17.0221 6.81162 17.3852 8.67478" stroke="#030611" stroke-width="1.5" stroke-linecap="round" stroke-linejoin="round"/>
</svg>
