<svg width="15" height="20" viewBox="0 0 15 20" fill="none" xmlns="http://www.w3.org/2000/svg">
<g opacity="0.5">
<path d="M7.19149 9.05969C7.10063 9.0506 6.99159 9.0506 6.89164 9.05969C4.72906 8.987 3.01172 7.21514 3.01172 5.03439C3.01172 2.80821 4.81084 1 7.04611 1C9.27229 1 11.0805 2.80821 11.0805 5.03439C11.0714 7.21514 9.35407 8.987 7.19149 9.05969Z" stroke="#030611" stroke-width="1.5" stroke-linecap="round" stroke-linejoin="round"/>
<path d="M2.64919 12.4124C0.450269 13.8844 0.450269 16.2832 2.64919 17.7462C5.14797 19.4181 9.24596 19.4181 11.7447 17.7462C13.9437 16.2741 13.9437 13.8753 11.7447 12.4124C9.25505 10.7496 5.15706 10.7496 2.64919 12.4124Z" stroke="#030611" stroke-width="1.5" stroke-linecap="round" stroke-linejoin="round"/>
</g>
</svg>
