<svg width="14" height="14" viewBox="0 0 14 14" fill="none" xmlns="http://www.w3.org/2000/svg">
<path d="M9.80156 4.20038C10.9155 4.20038 11.9838 4.64288 12.7714 5.43053C13.5591 6.21818 14.0016 7.28647 14.0016 8.40038V13.3004H11.2016V8.40038C11.2016 8.02908 11.0541 7.67298 10.7915 7.41043C10.529 7.14788 10.1729 7.00038 9.80156 7.00038C9.43026 7.00038 9.07416 7.14788 8.81161 7.41043C8.54906 7.67298 8.40156 8.02908 8.40156 8.40038V13.3004H5.60156V8.40038C5.60156 7.28647 6.04406 6.21818 6.83171 5.43053C7.61937 4.64288 8.68765 4.20038 9.80156 4.20038Z" fill="#03041C"/>
<path d="M2.8 4.90057H0V13.3006H2.8V4.90057Z" fill="#03041C"/>
<path d="M1.4 2.80018C2.1732 2.80018 2.8 2.17338 2.8 1.40018C2.8 0.626984 2.1732 0.000183105 1.4 0.000183105C0.626801 0.000183105 0 0.626984 0 1.40018C0 2.17338 0.626801 2.80018 1.4 2.80018Z" fill="#03041C"/>
</svg>
