<svg width="24" height="24" viewBox="0 0 24 24" fill="none" xmlns="http://www.w3.org/2000/svg">
<path d="M12.0017 22.7486C11.4017 22.7486 10.8117 22.6086 10.3317 22.3386L5.60172 19.6086C3.64172 18.2886 3.51172 18.0486 3.51172 15.9786V11.0186C3.51172 8.94859 3.64172 8.70859 5.56172 7.41859L10.3417 4.65859C11.2917 4.10859 12.7217 4.10859 13.6717 4.65859L18.4017 7.38859C20.3617 8.70859 20.4917 8.94859 20.4917 11.0186V15.9786C20.4917 18.0486 20.3617 18.2886 18.4417 19.5786L13.6617 22.3386C13.1917 22.6186 12.5917 22.7486 12.0017 22.7486ZM12.0017 5.74859C11.6617 5.74859 11.3217 5.81859 11.0817 5.95859L6.35172 8.68859C5.01172 9.59859 5.01172 9.59859 5.01172 11.0186V15.9786C5.01172 17.3986 5.01172 17.3986 6.40172 18.3386L11.0917 21.0386C11.5717 21.3186 12.4417 21.3186 12.9217 21.0386L17.6517 18.3086C18.9917 17.3986 18.9917 17.3986 18.9917 15.9786V11.0186C18.9917 9.59859 18.9917 9.59859 17.6017 8.65859L12.9117 5.95859C12.6817 5.81859 12.3417 5.74859 12.0017 5.74859Z" fill="#E349E3"/>
<path d="M17.5 8.37854C17.09 8.37854 16.75 8.03854 16.75 7.62854V4.99854C16.75 3.41854 16.08 2.74854 14.5 2.74854H9.5C7.92 2.74854 7.25 3.41854 7.25 4.99854V7.55854C7.25 7.96853 6.91 8.30854 6.5 8.30854C6.09 8.30854 5.75 7.97854 5.75 7.55854V4.99854C5.75 2.57854 7.08 1.24854 9.5 1.24854H14.5C16.92 1.24854 18.25 2.57854 18.25 4.99854V7.62854C18.25 8.03854 17.91 8.37854 17.5 8.37854Z" fill="#E349E3"/>
<path d="M13.6283 17.6287C13.4183 17.6287 13.1983 17.5887 12.9783 17.4987L11.9983 17.1187L11.0183 17.5087C10.4883 17.7187 9.94828 17.6687 9.54828 17.3787C9.14828 17.0887 8.93828 16.5887 8.96828 16.0187L9.02828 14.9687L8.35828 14.1587C7.99828 13.7087 7.87828 13.1887 8.03828 12.7087C8.18828 12.2387 8.59828 11.8787 9.14828 11.7387L10.1683 11.4787L10.7383 10.5887C11.3483 9.62865 12.6583 9.62865 13.2683 10.5887L13.8383 11.4787L14.8583 11.7387C15.4083 11.8787 15.8183 12.2387 15.9683 12.7087C16.1183 13.1787 15.9983 13.7087 15.6383 14.1487L14.9683 14.9587L15.0283 16.0087C15.0583 16.5787 14.8483 17.0687 14.4483 17.3687C14.2083 17.5387 13.9283 17.6287 13.6283 17.6287ZM9.51828 13.1987L10.1883 14.0087C10.4183 14.2787 10.5483 14.7087 10.5283 15.0587L10.4683 16.1087L11.4483 15.7187C11.7783 15.5887 12.2183 15.5887 12.5483 15.7187L13.5283 16.1087L13.4683 15.0587C13.4483 14.7087 13.5783 14.2887 13.8083 14.0087L14.4783 13.1987L13.4583 12.9387C13.1183 12.8487 12.7583 12.5887 12.5683 12.2987L12.0083 11.4187L11.4383 12.2987C11.2483 12.5987 10.8883 12.8587 10.5483 12.9487L9.51828 13.1987Z" fill="#E349E3"/>
</svg>
