<svg width="24" height="24" viewBox="0 0 24 24" fill="none" xmlns="http://www.w3.org/2000/svg">
<path d="M9.09964 13.5359C9.09964 13.1217 8.76385 12.7859 8.34964 12.7859H4.64196C3.89054 12.7859 3.75994 12.5529 3.75921 12.5513C3.75772 12.548 3.67012 12.294 4.16286 11.7255L13.244 1.40874C13.2441 1.40867 13.2442 1.40859 13.2442 1.40851C13.5386 1.07442 13.7815 0.891705 13.9536 0.806801C14.0516 0.758462 14.1061 0.75067 14.1281 0.750223C14.1442 0.76504 14.1794 0.80641 14.2205 0.905787C14.2934 1.08229 14.3551 1.37929 14.3551 1.82489V10.4641C14.3551 10.8783 14.6908 11.2141 15.1051 11.2141H18.8127C19.5696 11.2141 19.7029 11.4497 19.7041 11.4523C19.7049 11.4542 19.7936 11.708 19.2952 12.2707L19.2937 12.2724L10.2107 22.5913C9.91621 22.9255 9.67326 23.1083 9.50107 23.1932C9.40306 23.2415 9.34858 23.2493 9.32657 23.2498C9.31046 23.235 9.27528 23.1936 9.23422 23.0942C9.16129 22.9177 9.09964 22.6207 9.09964 22.1751V13.5359ZM14.1398 0.751052C14.1397 0.751159 14.1384 0.751051 14.1359 0.750408C14.1385 0.750624 14.1398 0.750946 14.1398 0.751052ZM14.1222 0.745265C14.1198 0.744037 14.1187 0.743199 14.1187 0.743087C14.1188 0.742974 14.12 0.743588 14.1222 0.745265ZM9.31492 23.2489C9.31497 23.2488 9.31631 23.2489 9.31884 23.2496C9.31615 23.2494 9.31488 23.2491 9.31492 23.2489ZM9.33246 23.2547C9.3349 23.256 9.33601 23.2568 9.33595 23.2569C9.3359 23.257 9.33469 23.2564 9.33246 23.2547Z" stroke="#5672FF" stroke-width="1.5" stroke-miterlimit="10" stroke-linecap="round" stroke-linejoin="round"/>
</svg>
