<svg width="29" height="28" viewBox="0 0 29 28" fill="none" xmlns="http://www.w3.org/2000/svg">
<g id="icon">
<path id="Vector" d="M7.68726 4.99044C8.02032 4.99044 8.27774 4.99044 8.59387 4.99044C8.59387 5.4589 8.59387 5.90477 8.59387 6.35065C8.59387 6.77847 8.59387 7.20516 8.59387 7.62846C9.1471 7.73005 9.53097 7.70522 9.89452 7.21644C10.4015 6.53577 11.4289 6.62495 11.9268 7.34739C12.1221 7.62959 12.3174 7.68603 12.6155 7.68038C13.3629 7.66684 14.1103 7.67587 14.8837 7.67587C14.8837 5.40923 14.8837 3.1979 14.8837 0.952711C14.7798 0.938036 14.6748 0.908687 14.5687 0.908687C12.725 0.905301 10.8824 0.899657 9.03871 0.916589C8.85581 0.917718 8.67516 1.06559 8.49226 1.14574C8.50919 1.20782 8.525 1.2699 8.54193 1.33086C8.28339 1.33086 8.02597 1.33086 7.68726 1.33086C7.68726 1.0622 7.68274 0.787905 7.68839 0.514735C7.69629 0.169321 7.88597 0.0011288 8.22468 0C10.5787 0.0011288 12.9305 0.0011288 15.2811 0.00225761C15.6571 0.00225761 15.8231 0.211086 15.8197 0.574561C15.8174 0.814997 15.8197 1.0543 15.8197 1.35456C16.5185 1.35456 17.1745 1.3207 17.8237 1.3715C18.0868 1.39182 18.3363 1.595 18.5869 1.72368C18.6332 1.74739 18.6535 1.81512 18.6942 1.85237C20.0885 3.11889 20.6305 4.68002 20.3415 6.54029C20.3019 6.79766 20.3358 7.06631 20.3358 7.32932C20.3358 8.49425 20.3347 8.48748 19.1785 8.59246C19.0408 8.60487 18.8771 8.70872 18.789 8.81935C18.0924 9.70433 17.1565 9.71336 16.4768 8.85095C16.3718 8.71775 16.1584 8.5981 15.9924 8.59471C14.8261 8.57327 13.6598 8.56762 12.4947 8.5981C12.305 8.60262 12.0747 8.77419 11.9426 8.93448C11.3532 9.64789 10.3394 9.69981 9.81097 8.95255C9.56935 8.61052 9.31871 8.57665 8.96984 8.57891C7.68613 8.58907 7.68613 8.5823 7.68613 7.28643C7.68726 6.5369 7.68726 5.78738 7.68726 4.99044ZM15.9856 2.22036C15.9394 2.25196 15.8919 2.2847 15.8456 2.31631C15.8456 4.09304 15.8456 5.86978 15.8456 7.83277C16.1358 7.6341 16.3661 7.54267 16.4994 7.37448C17.1316 6.57641 18.1184 6.57641 18.7506 7.37109C18.885 7.54041 19.13 7.62169 19.3829 7.77972C19.3829 6.57641 19.3829 5.55484 19.3829 4.51747C18.5294 4.51747 17.7221 4.50844 16.916 4.52086C16.4677 4.52763 16.2532 4.34025 16.2668 3.88421C16.2792 3.45301 16.2905 3.01955 16.2555 2.58948C16.2442 2.46079 16.0794 2.3434 15.9856 2.22036ZM17.2152 2.28809C17.2152 2.74638 17.2152 3.16517 17.2152 3.56589C17.7808 3.56589 18.3047 3.56589 18.981 3.56589C18.3058 3.0997 18.2471 2.08829 17.2152 2.28809ZM10.8327 8.77194C11.0473 8.46829 11.264 8.29558 11.2629 8.12287C11.2629 7.97726 11.0123 7.83164 10.8723 7.68716C10.7176 7.83616 10.4771 7.96597 10.4365 8.14206C10.4048 8.27301 10.6284 8.46603 10.8327 8.77194ZM18.264 8.15448C17.9761 7.93098 17.8 7.69393 17.6656 7.71538C17.4873 7.74472 17.2626 7.95242 17.2118 8.12739C17.1824 8.23011 17.4444 8.5315 17.5877 8.54166C17.7616 8.55295 17.9479 8.34863 18.264 8.15448Z" fill="black"/>
<path id="Vector_2" d="M22.9988 21.6493C22.1452 20.3433 22.1825 19.3082 23.0789 18.5395C23.8365 17.8904 24.9644 17.8893 25.7197 18.5384C26.6173 19.3093 26.6534 20.3433 25.7818 21.6776C25.9839 21.6776 26.1431 21.6685 26.3 21.6787C27.2417 21.743 27.9789 22.4485 28.0015 23.3888C28.0342 24.7231 28.0094 26.0596 28.0162 27.3938C28.0184 27.825 27.8107 28 27.3907 27.9989C25.3968 27.9932 23.403 27.9921 21.4091 28C20.945 28.0022 20.7768 27.7799 20.7813 27.3385C20.7926 26.2097 20.7847 25.082 20.7847 23.9532C20.7859 22.3436 21.3447 21.7487 22.9988 21.6493ZM27.1028 27.0665C27.1028 25.8248 27.1209 24.6271 27.0938 23.4306C27.0825 22.9384 26.763 22.6054 26.2696 22.5941C25.0321 22.5637 23.7925 22.5682 22.555 22.5908C22.0605 22.5998 21.7218 22.9125 21.7083 23.4035C21.6744 24.6158 21.697 25.8304 21.697 27.0665C23.5113 27.0665 25.2681 27.0665 27.1028 27.0665ZM25.5233 20.0859C25.5188 19.4617 24.987 18.9515 24.3626 18.9707C23.7597 18.9899 23.2709 19.499 23.2765 20.1029C23.2821 20.7068 23.7778 21.208 24.3807 21.2181C25.005 21.2283 25.5278 20.7113 25.5233 20.0859Z" fill="black"/>
<path id="Vector_3" d="M18.6052 14.4905C18.4731 14.7355 18.4087 14.9398 18.2789 15.0854C17.7844 15.6385 17.7742 15.993 18.2642 16.5032C18.3534 16.5957 18.4494 16.7109 18.4731 16.8305C18.6413 17.6455 18.0079 18.1354 17.6466 18.719C17.4152 19.0927 16.9839 19.0712 16.5752 18.9154C16.2444 18.7901 15.585 19.1423 15.5286 19.4889C15.4281 20.1142 15.0521 20.34 14.4639 20.3242C14.1636 20.3163 13.8621 20.3163 13.5618 20.3242C12.9736 20.34 12.5965 20.1154 12.496 19.49C12.4407 19.1468 11.7869 18.8127 11.4437 18.9121C10.7697 19.1062 10.5168 19.0069 10.1408 18.3984C9.98275 18.1433 9.83146 17.8837 9.67453 17.6275C9.38098 17.1489 9.45663 16.7447 9.89243 16.388C10.2187 16.1205 10.2029 15.485 9.86759 15.2028C9.45662 14.8574 9.38888 14.4623 9.66211 14.0051C9.81566 13.7478 9.97259 13.4904 10.1295 13.2342C10.5224 12.5941 10.7482 12.5072 11.4731 12.7127C11.8073 12.8075 12.4407 12.4496 12.5028 12.0952C12.6066 11.5026 12.9645 11.2734 13.5324 11.2859C13.8519 11.2926 14.1715 11.2938 14.491 11.2859C15.0578 11.2723 15.4168 11.4981 15.5252 12.0896C15.5963 12.4734 16.2319 12.8154 16.6057 12.6811C17.1555 12.4835 17.5586 12.6348 17.8408 13.136C18.096 13.5886 18.3511 14.0401 18.6052 14.4905ZM13.4726 12.207C13.1576 13.2929 12.085 13.8787 10.991 13.5547C10.8182 13.8482 10.641 14.1496 10.4694 14.442C11.2913 15.1667 11.2902 16.3598 10.4795 17.2053C10.6478 17.4807 10.8216 17.7663 10.9921 18.044C12.0929 17.7483 13.0808 18.2878 13.5019 19.3929C13.8542 19.3929 14.2076 19.3929 14.5531 19.3929C14.8636 18.3172 15.9384 17.7313 17.0324 18.0542C17.2052 17.7607 17.3813 17.4593 17.554 17.168C16.7321 16.4434 16.7321 15.2434 17.5439 14.4059C17.3757 14.1304 17.2018 13.8448 17.0324 13.5672C15.9237 13.8607 14.9223 13.3143 14.5181 12.2081C14.1861 12.207 13.8497 12.207 13.4726 12.207Z" fill="black"/>
<path id="Vector_4" d="M6.11726 23.7817C6.31823 23.986 6.5271 24.1971 6.76532 24.4376C7.26887 23.8686 7.64258 24.1271 8.0321 24.5595C8.47242 25.0471 8.95 25.5009 9.42307 25.9569C9.7471 26.2685 9.75952 26.5541 9.42871 26.8667C9.11484 27.1636 8.81339 27.474 8.51081 27.7811C8.25452 28.0407 7.99484 28.07 7.72726 27.8048C7.14129 27.2223 6.55984 26.6342 5.97161 26.054C5.59339 25.6804 5.83387 25.3857 6.13758 25.0855C5.90049 24.8496 5.69049 24.6407 5.48613 24.4376C3.71016 25.5709 1.67 25.1893 0.573711 23.574C-0.349838 22.2138 -0.135322 20.3772 1.05129 19.2496C2.26048 18.1004 4.12226 18 5.44097 19.0114C6.89178 20.1233 7.1379 21.8187 6.11726 23.7817ZM3.42339 24.17C4.79178 24.1599 5.89145 23.0457 5.87903 21.6821C5.86661 20.3321 4.72065 19.2089 3.37597 19.2259C2.01548 19.2439 0.909033 20.3727 0.922581 21.7296C0.93613 23.0977 2.04484 24.1791 3.42339 24.17ZM6.92339 25.5709C7.375 26.0269 7.76452 26.4197 8.17436 26.834C8.28726 26.711 8.42161 26.5653 8.49726 26.4829C8.09081 26.0326 7.72049 25.6217 7.35581 25.2164C7.17629 25.3643 7.03291 25.4817 6.92339 25.5709Z" fill="black"/>
<path id="Vector_5" d="M5.5783 5.86755C5.80185 6.07638 6.00282 6.26376 6.19814 6.44663C3.31346 10.0464 2.72298 12.4078 3.55508 17.0179C3.30782 17.1014 3.0504 17.1883 2.79298 17.2752C1.62556 14.2083 2.26685 9.15124 5.5783 5.86755Z" fill="black"/>
<path id="Vector_6" d="M22.4551 5.9386C25.3308 8.66353 26.3977 13.4124 25.3511 16.8067C25.0903 16.7356 24.8272 16.6645 24.5709 16.5945C25.1208 11.8964 24.755 10.5373 21.8545 6.48155C22.043 6.3111 22.2361 6.13727 22.4551 5.9386Z" fill="black"/>
<path id="Vector_7" d="M19.2196 23.5209C19.3788 23.8189 19.4996 24.0458 19.643 24.3133C16.7763 25.8123 13.8454 26.1352 10.7383 25.2942C10.7823 25.1215 10.8105 24.9985 10.8455 24.8777C10.8828 24.7524 10.9268 24.6294 10.9889 24.4408C13.8251 25.1892 16.5607 24.907 19.2196 23.5209Z" fill="black"/>
<path id="Vector_8" d="M8.5749 1.8512C8.5749 2.12888 8.5749 2.38625 8.5749 2.67748C7.83765 2.67748 7.11619 2.67748 6.36426 2.67748C6.36426 2.40883 6.36426 2.15259 6.36426 1.8512C7.0699 1.8512 7.79023 1.8512 8.5749 1.8512Z" fill="black"/>
<path id="Vector_9" d="M9.47166 3.6438C9.47166 3.92374 9.47166 4.17998 9.47166 4.47798C8.75473 4.47798 8.03328 4.47798 7.27344 4.47798C7.27344 4.21384 7.27344 3.94519 7.27344 3.6438C8.00166 3.6438 8.72311 3.6438 9.47166 3.6438Z" fill="black"/>
<path id="Vector_10" d="M13.9836 17.6094C12.9799 17.5948 12.1805 16.7572 12.2087 15.7481C12.2358 14.7682 13.0555 13.9871 14.0412 14.0007C15.046 14.0153 15.8442 14.8518 15.816 15.8621C15.79 16.8407 14.9681 17.6241 13.9836 17.6094ZM14.9094 15.8135C14.9139 15.3225 14.512 14.9127 14.0208 14.9071C13.5297 14.9014 13.1199 15.3033 13.1153 15.7955C13.1108 16.2865 13.5128 16.6962 14.0039 16.7019C14.4928 16.7075 14.9049 16.3046 14.9094 15.8135Z" fill="black"/>
</g>
</svg>
