<svg width="16" height="15" viewBox="0 0 16 15" fill="none" xmlns="http://www.w3.org/2000/svg">
<path d="M12.6739 9.33096C12.4691 9.5291 12.375 9.81566 12.4217 10.0967L13.1247 13.9806C13.184 14.3098 13.0448 14.643 12.7688 14.8332C12.4984 15.0306 12.1386 15.0543 11.8436 14.8964L8.34136 13.0728C8.21959 13.0081 8.08437 12.9733 7.94598 12.9694H7.73169C7.65736 12.9804 7.58461 13.0041 7.51818 13.0404L4.01512 14.8727C3.84195 14.9595 3.64584 14.9903 3.45368 14.9595C2.98555 14.8711 2.6732 14.4259 2.74991 13.9562L3.45368 10.0722C3.50034 9.78882 3.40624 9.50068 3.20143 9.29938L0.345999 6.53641C0.10719 6.30511 0.0241601 5.95776 0.133285 5.64436C0.239247 5.33175 0.509686 5.10361 0.83627 5.05229L4.76634 4.48312C5.06525 4.45233 5.32778 4.27077 5.46221 4.00236L7.19397 0.457864C7.23509 0.378922 7.28807 0.306295 7.35213 0.244721L7.42329 0.189461C7.46046 0.148411 7.50316 0.114466 7.55061 0.0868363L7.6368 0.0552595L7.77123 0H8.10414C8.40146 0.0307874 8.6632 0.208407 8.80001 0.473653L10.5547 4.00236C10.6812 4.26051 10.9271 4.4397 11.211 4.48312L15.1411 5.05229C15.4732 5.09966 15.7508 5.32859 15.8607 5.64436C15.9643 5.96092 15.8749 6.30826 15.6314 6.53641L12.6739 9.33096Z" fill="#FFA121"/>
</svg>
