<svg width="13" height="18" viewBox="0 0 13 18" fill="none" xmlns="http://www.w3.org/2000/svg">
<path d="M6.50337 8.16404C6.4226 8.15596 6.32568 8.15596 6.23684 8.16404C4.31458 8.09943 2.78809 6.52447 2.78809 4.58606C2.78809 2.60726 4.38727 1 6.37414 1C8.35294 1 9.9602 2.60726 9.9602 4.58606C9.95213 6.52447 8.42563 8.09943 6.50337 8.16404Z" stroke="white" stroke-width="1.5" stroke-linecap="round" stroke-linejoin="round"/>
<path d="M2.46592 11.1442C0.511359 12.4526 0.511359 14.5849 2.46592 15.8852C4.68702 17.3713 8.32961 17.3713 10.5507 15.8852C12.5053 14.5768 12.5053 12.4445 10.5507 11.1442C8.33769 9.66614 4.69509 9.66614 2.46592 11.1442Z" stroke="white" stroke-width="1.5" stroke-linecap="round" stroke-linejoin="round"/>
</svg>
