<svg width="20" height="20" viewBox="0 0 20 20" fill="none" xmlns="http://www.w3.org/2000/svg">
<g id="icon">
<path id="Vector" d="M15.8216 14.3461L16.1726 17.1899C16.2626 17.9369 15.4617 18.4588 14.8227 18.0718L11.0519 15.831C10.638 15.831 10.233 15.804 9.83704 15.75C10.503 14.9671 10.899 13.9771 10.899 12.9062C10.899 10.3504 8.6851 8.28054 5.94928 8.28054C4.90535 8.28054 3.94242 8.5775 3.14147 9.09947C3.11448 8.87448 3.10547 8.64949 3.10547 8.4155C3.10547 4.32077 6.66024 1 11.0519 1C15.4437 1 18.9984 4.32077 18.9984 8.4155C18.9984 10.8453 17.7475 12.9962 15.8216 14.3461Z" stroke="white" stroke-width="1.5" stroke-linecap="round" stroke-linejoin="round"/>
<path id="Vector_2" d="M10.8993 12.9064C10.8993 13.9773 10.5034 14.9673 9.83742 15.7503C8.94648 16.8302 7.53357 17.5231 5.94967 17.5231L3.60083 18.918C3.20485 19.161 2.70089 18.828 2.75488 18.3691L2.97987 16.5962C1.77395 15.7593 1 14.4183 1 12.9064C1 11.3225 1.84595 9.92763 3.14186 9.09968C3.94281 8.57772 4.90574 8.28076 5.94967 8.28076C8.68549 8.28076 10.8993 10.3506 10.8993 12.9064Z" stroke="white" stroke-width="1.5" stroke-linecap="round" stroke-linejoin="round"/>
</g>
</svg>
