<svg width="40" height="38" viewBox="0 0 40 38" fill="none" xmlns="http://www.w3.org/2000/svg">
<path d="M14.9486 13.0644C14.3912 12.7438 13.9121 12.466 13.4313 12.1918C9.79832 10.1224 6.16714 8.05483 2.53597 5.98369C1.56896 5.43162 1.52444 5.27312 2.05336 4.31502C2.41131 3.66679 2.81913 3.0417 3.12544 2.36854C3.5012 1.544 4.01052 1.32496 4.89561 1.60099C6.4788 2.09429 8.08691 2.51279 9.70215 2.88677C10.0565 2.96869 10.5303 2.81554 10.8668 2.62676C11.2853 2.38991 11.6397 1.76661 12.1402 2.23141C12.4019 2.47361 12.3521 3.05417 12.4803 3.65254C13.0947 3.81816 13.9424 4.06926 14.8025 4.25981C15.0127 4.30612 15.2709 4.17255 15.4971 4.09063C15.8604 3.95707 16.3038 3.59377 16.546 3.7024C16.8398 3.83241 16.9574 4.3542 17.2619 4.90448C18.2058 5.16271 19.3936 5.52779 20.6064 5.78423C20.8717 5.84122 21.3258 5.58833 21.5146 5.3408C23.4272 2.85471 25.8528 1.1255 28.9141 0.409593C30.0859 0.135341 31.3165 0.105066 32.5239 0.00711877C33.327 -0.0587731 33.7188 0.333016 33.7081 1.1718C33.6565 5.26244 32.287 8.76361 29.1527 11.4901C29.085 11.5489 29.0209 11.6148 28.9461 11.6575C27.9097 12.247 27.5998 13.0573 28.1626 14.1525C28.2552 14.3324 28.2676 14.5532 28.3246 14.7526C28.4582 15.2264 28.4546 15.6751 27.8954 15.8407C27.3416 16.0064 27.0851 15.6609 26.9551 15.1676C26.8358 14.7188 26.6969 14.2772 26.5313 13.7091C24.9018 15.1017 23.3542 16.4249 21.7675 17.7801C22.8324 19.6482 23.8707 21.4718 24.9107 23.2936C25.1315 23.6801 25.3452 24.0683 25.575 24.4512C25.8403 24.8946 26.0131 25.3737 25.4699 25.6871C24.9392 25.9934 24.5991 25.6462 24.3373 25.1796C23.5252 23.7317 22.6989 22.2928 21.8761 20.8503C21.4825 20.1611 21.0854 19.4755 20.6491 18.7151C18.4462 20.5956 16.3839 22.5261 14.1383 24.2108C12.6744 25.3096 12.1223 26.4725 12.5533 28.248C12.8169 29.3325 12.8347 30.4812 12.9326 31.6031C12.9985 32.3564 11.3762 33.831 10.6585 33.6351C10.4038 33.5656 10.1527 33.2469 10.0263 32.9833C9.48667 31.8631 9.03433 30.6985 8.46802 29.5926C8.04417 28.7627 7.54019 27.9631 6.99525 27.2062C5.88933 25.6711 4.08888 25.2419 2.49501 24.4886C1.85212 24.1859 1.19676 23.908 0.550311 23.6106C-0.0231259 23.3471 -0.144224 22.9464 0.167426 22.3836C1.08635 20.7256 1.20745 20.6669 3.11119 20.8913C4.46642 21.0498 5.82344 21.1922 7.18224 21.3009C7.47252 21.324 7.89458 21.2742 8.05842 21.0854C10.3539 18.4533 12.6174 15.7909 14.9486 13.0644ZM32.2104 1.51195C29.2507 1.23947 25.5073 2.85471 23.5288 5.17339C18.6991 10.8365 13.8622 16.4961 9.0468 22.1717C8.63364 22.6579 8.21692 22.8413 7.59005 22.7612C6.00331 22.5599 4.40944 22.3997 2.81557 22.2465C2.5057 22.2162 2.18514 22.3017 1.86993 22.3338C3.80929 23.778 6.10482 24.1965 7.80554 25.899C9.50448 27.6015 9.89805 29.9452 11.3014 31.8062C11.426 31.409 11.4563 31.0279 11.4207 30.6539C11.2729 29.1491 11.1251 27.6443 10.9309 26.1448C10.8455 25.4877 11.0378 25.0496 11.5525 24.6133C17.2512 19.7782 22.9713 14.9681 28.59 10.0423C31.0992 7.84647 32.1303 4.87955 32.2104 1.51195ZM3.46736 4.83325C7.62389 7.20179 11.7323 9.54363 15.8978 11.9193C17.2548 10.3272 18.5833 8.76717 19.9724 7.13946C19.5307 7.01658 19.2476 6.93288 18.9626 6.85809C14.7028 5.72012 10.443 4.58571 6.18495 3.44596C4.33642 2.9491 4.33642 2.94554 3.46736 4.83325Z" fill="#D4FD00"/>
<path d="M33.3374 17.333C34.9954 17.333 36.6552 17.3508 38.3131 17.3241C39.0682 17.3116 39.3941 17.6268 39.3906 18.3766C39.3781 21.0122 39.3817 23.6497 39.3888 26.2854C39.3906 26.9853 39.0682 27.3165 38.363 27.3147C34.9865 27.3076 31.61 27.3094 28.2335 27.3129C27.5728 27.3129 27.2629 27.0048 27.2665 26.3352C27.2754 23.6693 27.2789 21.0033 27.2647 18.3374C27.2611 17.6233 27.5585 17.317 28.2762 17.3259C29.9591 17.3472 31.6492 17.333 33.3374 17.333ZM28.7446 25.8793C31.7079 25.8793 34.552 25.8722 37.3978 25.8865C37.9213 25.8882 37.9552 25.5944 37.9534 25.199C37.9445 23.8046 37.9498 22.4084 37.9516 21.014C37.9516 20.2874 37.9516 19.5608 37.9516 18.8325C36.5679 18.8325 35.3391 18.8325 34.1085 18.8325C34.1673 18.9091 34.2243 18.9838 34.2831 19.0604C33.9536 19.4308 33.6241 19.7995 33.2947 20.1699C32.9812 19.7781 32.6696 19.3881 32.2386 18.8485C31.2502 18.8485 30.0001 18.8485 28.7464 18.8485C28.7446 21.2046 28.7446 23.4841 28.7446 25.8793Z" fill="#D4FD00"/>
<path d="M20.5195 28.0183C22.1775 28.0183 23.8373 28.0361 25.4952 28.0094C26.2521 27.9969 26.5727 28.3175 26.5691 29.0654C26.5566 31.7011 26.5602 34.3386 26.5655 36.9742C26.5673 37.6777 26.2396 38.0018 25.5362 38C22.1597 37.9929 18.7832 37.9947 15.4067 37.9982C14.7442 37.9982 14.4397 37.6848 14.4432 37.017C14.4521 34.351 14.4557 31.6851 14.4414 29.0191C14.4379 28.3032 14.7406 28.0023 15.4565 28.0112C17.143 28.0325 18.8313 28.0183 20.5195 28.0183ZM19.4189 29.532C18.4252 29.532 17.1733 29.532 15.9249 29.532C15.9249 31.8917 15.9249 34.1712 15.9249 36.4453C16.0478 36.4898 16.1297 36.5468 16.2098 36.5468C18.9987 36.5557 21.7893 36.5522 24.5781 36.57C25.1035 36.5735 25.1319 36.2708 25.1302 35.879C25.123 34.424 25.1284 32.9709 25.1284 31.5159C25.1284 30.8499 25.1284 30.182 25.1284 29.5178C23.7429 29.5178 22.5141 29.5178 21.2853 29.5178C21.3441 29.5943 21.4046 29.6691 21.4634 29.7457C21.1321 30.1144 20.7991 30.483 20.4679 30.8516C20.1562 30.4598 19.8446 30.0681 19.4189 29.532Z" fill="#D4FD00"/>
<path d="M33.3392 28.0183C34.9972 28.0183 36.6569 28.0361 38.3149 28.0094C39.0718 27.9969 39.3941 28.3157 39.3906 29.0637C39.3781 31.6993 39.3817 34.3368 39.3888 36.9725C39.3906 37.6741 39.0647 38.0018 38.3612 38C34.9847 37.9929 31.6082 37.9947 28.2317 37.9982C27.5692 37.9982 27.2629 37.6866 27.2665 37.0188C27.2754 34.3528 27.2789 31.6869 27.2647 29.0209C27.2611 28.3068 27.5603 28.0023 28.278 28.0112C29.9627 28.0325 31.6509 28.0183 33.3392 28.0183ZM28.7446 36.5646C31.7061 36.5646 34.5502 36.5575 37.396 36.5718C37.9178 36.5735 37.957 36.2833 37.9534 35.8861C37.9445 34.5505 37.9498 33.2148 37.9498 31.8792C37.9498 31.0921 37.9498 30.3067 37.9498 29.516C36.5679 29.516 35.3391 29.516 34.1085 29.516C34.1673 29.5908 34.2261 29.6638 34.2848 29.7386C33.9554 30.1108 33.6241 30.483 33.2947 30.8552C32.9812 30.4652 32.6678 30.0734 32.2333 29.532C31.2485 29.532 29.9983 29.532 28.7428 29.532C28.7446 31.8881 28.7446 34.1676 28.7446 36.5646Z" fill="#D4FD00"/>
<path d="M18.3309 17.148C18.103 16.9574 17.7646 16.8061 17.7539 16.6369C17.7379 16.3288 17.8198 15.9085 18.0299 15.7144C19.1376 14.6851 20.2952 13.7127 21.4385 12.7208C22.6709 11.6523 23.9103 10.5926 25.1374 9.51878C25.5274 9.17685 25.9387 8.91685 26.3733 9.37097C26.8292 9.84824 26.4979 10.2293 26.1097 10.5641C23.7554 12.6014 21.4047 14.6423 19.0468 16.6761C18.8527 16.8435 18.6176 16.961 18.3309 17.148Z" fill="#D4FD00"/>
<path d="M9.50614 25.2472C9.13394 24.9391 8.85434 24.8163 8.77064 24.6115C8.68694 24.4084 8.71009 24.0487 8.84366 23.892C9.30312 23.3542 9.8071 22.8502 10.3467 22.3925C10.5016 22.2607 10.8774 22.2394 11.0626 22.3373C11.2532 22.437 11.4936 22.868 11.4366 22.9428C10.8453 23.7139 10.1971 24.4405 9.50614 25.2472Z" fill="#D4FD00"/>
</svg>
